<svg id="Group_12870" data-name="Group 12870" xmlns="http://www.w3.org/2000/svg" width="51.479" height="51.456" viewBox="0 0 51.479 51.456">
  <path id="Path_6837" data-name="Path 6837" d="M3398.06,1099.485a1.9,1.9,0,0,1,2.017-1.12q2.528.079,5.062,0a4.9,4.9,0,0,1,4.284,1.932.816.816,0,0,1,.42.475,4.907,4.907,0,0,1,.526,2.226q0,5.923,0,11.847a4.92,4.92,0,0,1-.691,2.535,1.049,1.049,0,0,1-.556.553,5.048,5.048,0,0,1-4.024,1.551c-1.671-.052-3.347-.049-5.018,0a1.9,1.9,0,0,1-2.02-1.12Z" transform="translate(-3398.06 -1068.039)" fill="#17abe7"/>
  <path id="Path_6838" data-name="Path 6838" d="M3657.363,872.508c.853.212,1.738.249,2.585.5,6.753,1.977,10.98,6.378,12.338,13.283a16.469,16.469,0,0,1-9.454,17.854,15.626,15.626,0,0,1-6.974,1.5.428.428,0,0,1-.138-.309,16.3,16.3,0,0,1,.041-2.569c.111-.248.34-.24.556-.248a13.235,13.235,0,0,0,7.8-2.825,13.325,13.325,0,0,0,1.005-20.366,13.154,13.154,0,0,0-8.739-3.676c-.23-.01-.482.025-.617-.239a15.461,15.461,0,0,1-.047-2.591.5.5,0,0,1,.138-.315Z" transform="translate(-3621.097 -872.508)" fill="#fecb33"/>
  <path id="Path_6839" data-name="Path 6839" d="M3549.94,872.508q0,1.505,0,3.011l-.054.057a5.653,5.653,0,0,1-1.288.156,13.405,13.405,0,0,0-8.226,22.732,13.128,13.128,0,0,0,7.579,3.9c.642.1,1.3.1,1.935.229l.054.058q0,1.5,0,2.994a15.846,15.846,0,0,1-8.616-2.42,16.4,16.4,0,0,1-7.623-10.793,16.609,16.609,0,0,1,6.555-16.789,16.862,16.862,0,0,1,7.761-3.028c.111-.014.241.023.314-.106Z" transform="translate(-3515.181 -872.508)" fill="#fdda41"/>
  <path id="Path_6840" data-name="Path 6840" d="M3480.451,1114.277a5.433,5.433,0,0,0,1.105-3.6q-.054-5.392,0-10.785a5.79,5.79,0,0,0-.8-3.25,10.579,10.579,0,0,1,7.112-2.5,10.029,10.029,0,0,1,6.353,2.349,4.927,4.927,0,0,0,3.433,1.257c1.62-.048,3.243-.008,4.863-.013a3.047,3.047,0,0,1,1.746.5c.108,1.28.025,2.562.046,3.843a5.436,5.436,0,0,1-.046,1.195,3.046,3.046,0,0,1-1.747.5q-4.491-.005-8.981,0a1.49,1.49,0,0,0-1.484.981,1.525,1.525,0,0,0,.452,1.684,1.661,1.661,0,0,0,1.121.35q4.967-.009,9.934,0c.2,0,.4.01.6.015a.87.87,0,0,1,.157.665q.007,3.84,0,7.68a.869.869,0,0,1-.157.665q-4.816.008-9.633.016c-1.572,0-3.146.035-4.717-.011a34.011,34.011,0,0,1-8.818-1.4C3480.808,1114.358,3480.629,1114.322,3480.451,1114.277Z" transform="translate(-3469.389 -1064.378)" fill="#fdc378"/>
  <path id="Path_6841" data-name="Path 6841" d="M3656.974,1129.174v-9.01a11.013,11.013,0,0,0,2.143-.171,6.2,6.2,0,0,0,3.028-2.286q3.073-3.512,6.154-7.019a3.008,3.008,0,0,1,5.079.669,3.818,3.818,0,0,1-.625,3.967c-1.355,1.847-2.762,3.656-4.151,5.479-1.166,1.53-2.293,3.09-3.515,4.575a10.259,10.259,0,0,1-6.666,3.72A6.647,6.647,0,0,1,3656.974,1129.174Z" transform="translate(-3622.212 -1077.751)" fill="#fdb656"/>
  <path id="Path_6842" data-name="Path 6842" d="M3657.049,1129.662c-.13-.094-.108-.234-.108-.365q0-2.154,0-4.307c0-.131-.021-.272.109-.365A2.96,2.96,0,0,1,3657.049,1129.662Z" transform="translate(-3622.181 -1090.775)" fill="#fdb656"/>
  <path id="Path_6843" data-name="Path 6843" d="M3655.845,894.927a12.983,12.983,0,0,1,7.335,2.131,13.374,13.374,0,0,1,6.134,9.15,12.785,12.785,0,0,1-1.272,8.39,13.543,13.543,0,0,1-9.276,7.152,11.223,11.223,0,0,1-2.921.309l0-.007a.483.483,0,0,1-.138-.313,16.1,16.1,0,0,1,.042-2.581c.091-.221.31-.228.494-.295a1.345,1.345,0,0,0,.972-1.363c.006-.4.016-.8,0-1.2a.768.768,0,0,1,.5-.817,4.321,4.321,0,0,0,2.24-5.487,4.262,4.262,0,0,0-3.568-2.859c-.224-.035-.481.016-.626-.234a11.8,11.8,0,0,1-.01-2.818c.137-.261.355-.188.568-.136a3.257,3.257,0,0,1,1.167.666,1.763,1.763,0,0,0,.842.419,1.389,1.389,0,0,0,1.115-2.411,5.387,5.387,0,0,0-1.722-1.1.705.705,0,0,1-.508-.762c.014-.434.01-.869,0-1.3a1.35,1.35,0,0,0-.957-1.326c-.184-.067-.4-.068-.5-.287a15.248,15.248,0,0,1-.047-2.59.481.481,0,0,1,.139-.314Z" transform="translate(-3621.089 -891.916)" fill="#fd9823"/>
  <path id="Path_6844" data-name="Path 6844" d="M3569.515,919.1v3a13.559,13.559,0,1,1,0-27.119v3l-.05.06a2.017,2.017,0,0,1-.417.168,1.357,1.357,0,0,0-.9,1.269,10.282,10.282,0,0,0,0,1.2.866.866,0,0,1-.566.942,4.162,4.162,0,0,0-2.339,2.952,4.371,4.371,0,0,0,3.157,5.179,6.934,6.934,0,0,1,1.121.253.371.371,0,0,1,.095.142,17.4,17.4,0,0,1,.015,2.763.449.449,0,0,1-.07.149c-.262.192-.515.06-.758-.038a4.918,4.918,0,0,1-1.473-1.108,1.314,1.314,0,0,0-2.1.3,1.351,1.351,0,0,0,.207,1.627,5.6,5.6,0,0,0,2.171,1.661.714.714,0,0,1,.535.79c-.02.35-.006.7,0,1.054a1.426,1.426,0,0,0,1.148,1.6.824.824,0,0,1,.181.085Z" transform="translate(-3534.756 -891.965)" fill="#fda732"/>
  <path id="Path_6845" data-name="Path 6845" d="M3655.834,984.688a4.486,4.486,0,0,1,4.488,3.839,4.435,4.435,0,0,1-2.582,4.8c-.294.149-.437.283-.408.625.034.415.009.834.007,1.252a1.443,1.443,0,0,1-1.506,1.558v-.013a.89.89,0,0,1-.16-.661q-.007-2.346,0-4.693a.892.892,0,0,1,.161-.661v-.013a1.632,1.632,0,0,1,.485-.244,1.339,1.339,0,0,0,0-2.511,1.591,1.591,0,0,1-.484-.245V987.7a.373.373,0,0,1-.116-.216,11.636,11.636,0,0,1,.05-2.727Z" transform="translate(-3621.075 -969.625)" fill="#fecb33"/>
  <path id="Path_6846" data-name="Path 6846" d="M3655.9,917.356a1.445,1.445,0,0,1,1.507,1.564c0,.469.011.938,0,1.406a.4.4,0,0,0,.31.443,5.94,5.94,0,0,1,1.832,1.1,1.532,1.532,0,1,1-1.893,2.408,3.185,3.185,0,0,0-1.751-.883l-.067-.073a1.435,1.435,0,0,1-.093-.687q0-2.252,0-4.5a1.045,1.045,0,0,1,.159-.764Z" transform="translate(-3621.141 -911.335)" fill="#fecb33"/>
  <path id="Path_6847" data-name="Path 6847" d="M3646.382,961.7v3.013a.449.449,0,0,1-.376.079,1.631,1.631,0,0,1-1.262-1.638,1.6,1.6,0,0,1,1.36-1.553.384.384,0,0,1,.277.087Z" transform="translate(-3611.623 -949.641)" fill="#fda732"/>
  <path id="Path_6848" data-name="Path 6848" d="M3627.814,923.47a1.513,1.513,0,0,0-1.506,1.491,1.489,1.489,0,0,0,1.506,1.535v3a4.558,4.558,0,0,1-4.437-3.67,4.5,4.5,0,0,1,2.475-4.879.651.651,0,0,0,.464-.763,11.394,11.394,0,0,1-.007-1.2,1.465,1.465,0,0,1,1.505-1.526Z" transform="translate(-3593.057 -911.419)" fill="#fdda41"/>
  <path id="Path_6849" data-name="Path 6849" d="M3627.185,1018.74q0,3.008,0,6.016a1.467,1.467,0,0,1-1.506-1.526,1.1,1.1,0,0,1,0-.15c.121-.977.054-1.793-1.13-2.153a3.868,3.868,0,0,1-1.484-1.242,1.478,1.478,0,0,1,.019-2.223,1.4,1.4,0,0,1,2.115.138A3.037,3.037,0,0,0,3627.185,1018.74Z" transform="translate(-3592.426 -997.636)" fill="#fdda41"/>
  <path id="Path_6850" data-name="Path 6850" d="M3656.945,1007.247a1.5,1.5,0,1,1,0,3Z" transform="translate(-3622.186 -989.156)" fill="#fd9923"/>
</svg>
