<svg xmlns="http://www.w3.org/2000/svg" width="55.438" height="46.441" viewBox="0 0 55.438 46.441">
  <g id="Group_12867" data-name="Group 12867" transform="translate(0)">
    <path id="Path_4355" data-name="Path 4355" d="M-548.717,1206.082a1.028,1.028,0,0,0-.108.677q-.007,4.041-.008,8.081a1.949,1.949,0,0,1-2.478,1.219.791.791,0,0,1-.562-.46,3.266,3.266,0,0,1-.055-.862q0-4.277,0-8.553a2.28,2.28,0,0,0-.109-.907.643.643,0,0,0-.6-.474.672.672,0,0,0-.6.481,2.148,2.148,0,0,0-.091.855q0,4.3,0,8.607a3.167,3.167,0,0,1-.056.861,1.305,1.305,0,0,1-1.413.545,1.939,1.939,0,0,1-1.485-.913c-.041.357.138.774-.146,1.133-.151-.19-.088-.416-.088-.625q0-4.48,0-8.961c0-.233-.019-.466-.029-.7a1.528,1.528,0,0,0,.73-1.594c-.029-2.541-.011-5.083-.012-7.625a3.563,3.563,0,0,0-.032-.7c-.066-.331-.239-.586-.6-.588a.617.617,0,0,0-.639.605,3.3,3.3,0,0,0-.02.486c0,2.7.015,5.408-.014,8.112a3.173,3.173,0,0,0,.41,1.311,1.648,1.648,0,0,1-1.594.962,1.668,1.668,0,0,1-1.561-.948c-.065-.124-.147-.239-.221-.359v-10.827a4.8,4.8,0,0,1,1.321-2.473,6.283,6.283,0,0,1,2.336-1.312c.435-.135.471-.256.2-.622a4.392,4.392,0,0,1-.138-5.286,4.311,4.311,0,0,1,4.587-1.849,4.231,4.231,0,0,1,3.474,3.252,4.4,4.4,0,0,1-.866,4.019c-.2.249-.194.3.127.4a5.241,5.241,0,0,1,3.459,2.637,4.63,4.63,0,0,1,.434,1.985q0,4.628,0,9.256a1.892,1.892,0,0,1-1.254,2.043,1.858,1.858,0,0,1-2.217-.893,2.121,2.121,0,0,0,.5-1.691c-.019-2.524-.007-5.047-.009-7.571a2.289,2.289,0,0,0-.074-.8.584.584,0,0,0-.61-.439.6.6,0,0,0-.568.495,2.921,2.921,0,0,0-.041.7c0,2.614.016,5.227-.012,7.841C-549.448,1205.261-549.348,1205.784-548.717,1206.082Z" transform="translate(560.097 -1171.603)" fill="#fedc90"/>
    <path id="Path_4356" data-name="Path 4356" d="M-428.39,1131.7c-.174.016-.219.169-.3.284a2.034,2.034,0,0,1-2.249.774,2,2,0,0,1-1.36-1.88c0-4.887.02-9.775-.013-14.661a4.786,4.786,0,0,1,2.749-4.477,13.71,13.71,0,0,1,1.82-.739,6.785,6.785,0,0,1-1.12-1.952,4.961,4.961,0,0,1,4.622-6.5,5.014,5.014,0,0,1,4.99,3.949,4.768,4.768,0,0,1-.992,4.112c-.308.366-.186.42.18.537a6.4,6.4,0,0,1,3.268,2.087,4.507,4.507,0,0,1,.946,2.812c.022,4.923.014,9.846.009,14.77a1.978,1.978,0,0,1-1.339,1.9,1.96,1.96,0,0,1-2.271-.682c-.107-.135-.151-.344-.387-.322,0-.036-.009-.093.01-.1.724-.408.7-1.09.693-1.789-.011-4.073-.005-8.145-.006-12.218a2.843,2.843,0,0,0-.083-.911.613.613,0,0,0-.633-.484.631.631,0,0,0-.618.509,2.654,2.654,0,0,0-.06.805c0,4.091.011,8.182-.011,12.272a2.092,2.092,0,0,0,.711,1.919q0,6.528,0,13.056c0,.233-.01.467-.016.7a2.16,2.16,0,0,1-2.638,1.6c-.68-.181-.85-.39-.85-1.1q-.007-5.372,0-10.744,0-1.728,0-3.456a1.755,1.755,0,0,0-.087-.691c-.11-.367-.276-.706-.728-.647s-.58.429-.591.839c-.015.558-.006,1.116-.006,1.673q0,6.289,0,12.578a3.842,3.842,0,0,1-.049.913,1.763,1.763,0,0,1-1.9.623,2.41,2.41,0,0,1-1.439-1.073c-.022.312.1.64-.146.9a4.167,4.167,0,0,1-.065-1.655c.079-.883.054-1.762.055-2.642.007-3.62,0-7.239,0-10.858a1.947,1.947,0,0,0,.621-1.739c-.018-4.165-.009-8.33-.01-12.5a4.293,4.293,0,0,0-.031-.755.554.554,0,0,0-.533-.518.608.608,0,0,0-.661.446,1.865,1.865,0,0,0-.06.643c0,4.346.013,8.691-.016,13.036A1.969,1.969,0,0,0-428.39,1131.7Z" transform="translate(450.801 -1102.547)" fill="#b0e59f"/>
    <path id="Path_4357" data-name="Path 4357" d="M-278.358,1158.21q0,8.066-.005,16.132c0,.252-.012.5-.018.757a2.189,2.189,0,0,1-2.962,1.362c-.192-.093-.4-.167-.485-.392a2.878,2.878,0,0,1-.063-.859q0-4.943,0-9.886a2.162,2.162,0,0,0-.085-.854c-.124-.3-.313-.549-.676-.521-.383.03-.554.3-.606.651a4.834,4.834,0,0,0-.025.7q0,4.943,0,9.886a3.188,3.188,0,0,1-.047.752.993.993,0,0,1-.706.6,2.2,2.2,0,0,1-2.772-1.443c-.008-.2-.023-.395-.023-.592q0-6.139-.005-12.277a1.71,1.71,0,0,0,.629-1.614c-.022-2.885-.009-5.769-.01-8.654a3.093,3.093,0,0,0-.037-.7.6.6,0,0,0-.606-.518.594.594,0,0,0-.586.473,1.846,1.846,0,0,0-.061.589c0,3.047.01,6.094-.012,9.141a2.251,2.251,0,0,0,.5,1.271,1.985,1.985,0,0,1-2.344,1.084,1.99,1.99,0,0,1-1.462-2.129q0-4.923,0-9.847c0-2.969,1.127-4.556,3.935-5.541.645-.226.645-.226.261-.748a4.989,4.989,0,0,1-.236-5.592,5,5,0,0,1,4.952-2.312,4.97,4.97,0,0,1,4.164,3.939,4.692,4.692,0,0,1-.946,4.021c-.378.465-.195.53.23.653a6.4,6.4,0,0,1,2.705,1.521,4.373,4.373,0,0,1,1.391,3.183c.033,2.308.012,4.616.016,6.925a2.7,2.7,0,0,1-.323,1.132,1.487,1.487,0,0,1-1.635.886,2.166,2.166,0,0,1-1.778-1.048.232.232,0,0,0-.266-.127c-.007-.052-.023-.12.031-.146.669-.331.686-.927.678-1.564-.019-1.512-.005-3.024-.007-4.537a2.675,2.675,0,0,0-.056-.7.644.644,0,0,0-.534-.541.668.668,0,0,0-.693.414,1.308,1.308,0,0,0-.128.682c0,1.693.021,3.385-.013,5.077A1.742,1.742,0,0,0-278.358,1158.21Z" transform="translate(329.794 -1132.071)" fill="#f85750"/>
    <path id="Path_4358" data-name="Path 4358" d="M-190.52,1286.1a2.5,2.5,0,0,0,1.635-.885c.008.2.024.4.024.592q0,9,0,18.007v.108c0,.862-.266,1.249-.845,1.239-.56-.01-.814-.388-.814-1.217Q-190.52,1295.024-190.52,1286.1Z" transform="translate(243.997 -1258.785)" fill="#565d76"/>
    <path id="Path_4359" data-name="Path 4359" d="M-409.749,1211.259c-.58-.142-.769-.509-.767-1.1.018-4.546.009-9.091.01-13.637,0-.568.271-.915.727-.949.585-.043.893.219.894.811q.008,6.981,0,13.962a.886.886,0,0,1-.783.944A.268.268,0,0,1-409.749,1211.259Z" transform="translate(432.16 -1182.108)" fill="#82cb95"/>
    <path id="Path_4360" data-name="Path 4360" d="M-268.4,1241.718a.963.963,0,0,1-.658-1q.016-4.864,0-9.728a.873.873,0,0,1,.537-.908.8.8,0,0,1,.922.254.669.669,0,0,1,.17.545q0,4.972,0,9.943a.817.817,0,0,1-.79.9Z" transform="translate(311.175 -1211.575)" fill="#d23d3d"/>
    <path id="Path_4361" data-name="Path 4361" d="M-486.648,1277.425c-.706-.063-.877-.24-.878-.943q0-4.43,0-8.859a.841.841,0,0,1,.819-.926.83.83,0,0,1,.8.9q.009,4.511,0,9.021a.819.819,0,0,1-.662.8Z" transform="translate(498.028 -1242.946)" fill="#eebe73"/>
    <path id="Path_4362" data-name="Path 4362" d="M-540.153,1277.436a1.135,1.135,0,0,1-.573-1.117c.024-2.881.011-5.762.012-8.643,0-.594.331-.983.822-.977s.8.381.8.959q.006,4.43,0,8.859c0,.584-.261.846-.882.913Z" transform="translate(543.529 -1242.947)" fill="#eebe73"/>
    <path id="Path_4363" data-name="Path 4363" d="M-399.544,1299.592c.176.182.1.411.1.618q.007,7.1,0,14.207c0,.773.239,1.026,1.032,1.092a2.1,2.1,0,0,0,2.1-1.213c.055-.117.088-.234.212-.294,0,.486.028.974.009,1.459a2.252,2.252,0,0,1-1.52,1.976,2.129,2.129,0,0,1-2.371-.878c-.261-.4-.432-.389-.7-.006a2.1,2.1,0,0,1-2.412.863,2.052,2.052,0,0,1-1.441-2c0-.4,0-.793,0-1.305a2.969,2.969,0,0,0,1.529,1.314,2.15,2.15,0,0,0,1.837-.349c.164.14.162.355.246.532a.622.622,0,0,0,.721.342.516.516,0,0,0,.467-.511,5.461,5.461,0,0,0,.022-.7q0-7.107,0-14.215C-399.715,1300.205-399.794,1299.865-399.544,1299.592Z" transform="translate(427.05 -1271.08)" fill="#96d4a8"/>
    <path id="Path_4364" data-name="Path 4364" d="M-263.155,1399.877a5.2,5.2,0,0,0,.906,1.044,2.062,2.062,0,0,0,2.448-.071c.126.1.126.252.17.386a.7.7,0,0,0,.648.554.656.656,0,0,0,.7-.468.672.672,0,0,1,.214-.365,2.407,2.407,0,0,0,2.352.023c.456-.269.645-.746.987-1.1.005.45.027.9.012,1.351a2.185,2.185,0,0,1-1.509,1.976,2.129,2.129,0,0,1-2.341-.823c-.361-.5-.4-.5-.77,0a2.125,2.125,0,0,1-2.341.819,2.139,2.139,0,0,1-1.5-1.979C-263.185,1400.777-263.161,1400.327-263.155,1399.877Z" transform="translate(306.139 -1356.854)" fill="#e74642"/>
    <path id="Path_4365" data-name="Path 4365" d="M-534.713,1402.888v-1.517c.8,1.124,1.728,1.524,2.93.852.14.114.125.286.164.438a.693.693,0,0,0,.7.607.666.666,0,0,0,.68-.558c.052-.166.041-.358.191-.486a1.854,1.854,0,0,0,2.705-.644,2.165,2.165,0,0,1,.222-.224c0,.433.013.865.006,1.3a1.847,1.847,0,0,1-1.25,1.774,1.874,1.874,0,0,1-2.142-.6c-.34-.469-.572-.368-.866.008a1.808,1.808,0,0,1-2.042.617A1.752,1.752,0,0,1-534.713,1402.888Z" transform="translate(538.386 -1358.119)" fill="#f8cc80"/>
    <path id="Path_4366" data-name="Path 4366" d="M-512.761,1341.566c-.018.834-.253,1.176-.818,1.189-.667.016-.909-.3-.917-1.19q0-4.917,0-9.835a2.4,2.4,0,0,1,.011-.485.914.914,0,0,1,.825-.808.821.821,0,0,1,.818.656,2.056,2.056,0,0,1,.076.692Q-512.761,1336.676-512.761,1341.566Z" transform="translate(521.098 -1297.46)" fill="#eebe73"/>
    <path id="Path_4367" data-name="Path 4367" d="M-379.661,1294.486c0,5.229-.017,10.458.01,15.687,0,.853-.567,1.01-1.173.83-.517-.153-.47-.617-.469-1.034q0-7.537,0-15.074c0-.126,0-.252,0-.378a.841.841,0,0,1,.814-.894C-380.018,1293.6-379.713,1293.926-379.661,1294.486Z" transform="translate(407.167 -1265.974)" fill="#82cb95"/>
    <path id="Path_4368" data-name="Path 4368" d="M-351.213,1211.267a1.024,1.024,0,0,1-.867-1.177q0-6.739,0-13.477c0-.731.3-1.053.918-1.053a.7.7,0,0,1,.7.481,1.956,1.956,0,0,1,.111.8c0,4.348-.013,8.7.01,13.044,0,.7-.161,1.191-.876,1.387Z" transform="translate(382.18 -1182.101)" fill="#83cb95"/>
    <path id="Path_4369" data-name="Path 4369" d="M-238.116,1333.76c-.061.453-.138.906-.712.972-.7.079-1-.257-1.023-1.079q0-5.519,0-11.039c0-.126,0-.253,0-.378a.848.848,0,0,1,.788-.923.991.991,0,0,1,.93.814,3.1,3.1,0,0,1,.011.486Q-238.118,1328.187-238.116,1333.76Z" transform="translate(286.191 -1289.656)" fill="#d23d3d"/>
    <path id="Path_4370" data-name="Path 4370" d="M-209.811,1237.714c-.651-.219-.87-.491-.872-1.12,0-1.82,0-3.64-.006-5.46a1.13,1.13,0,0,1,.388-.907.768.768,0,0,1,1.24.28,1.726,1.726,0,0,1,.11.686c0,1.712-.028,3.424.01,5.136.016.7-.169,1.185-.874,1.388Z" transform="translate(261.248 -1211.576)" fill="#d23d3d"/>
  </g>
</svg>
