<svg id="Group_12869" data-name="Group 12869" xmlns="http://www.w3.org/2000/svg" width="55.768" height="55.729" viewBox="0 0 55.768 55.729">
  <path id="Path_6814" data-name="Path 6814" d="M2291.933,322.879a23.525,23.525,0,0,1,9.927-17.1,21.4,21.4,0,0,1,3.947-2.155c.148-.062.289-.139.434-.209a.641.641,0,0,1,.544-.181c1.981-.01,3.963-.014,5.944,0a1,1,0,0,1,.37.068.359.359,0,0,1,.159.139,1.1,1.1,0,0,1,.1.526q.01,2.757,0,5.513a1.305,1.305,0,0,1-.061.425c-.092.238-.322.27-.523.344a1.51,1.51,0,0,0-1.071,1.535c0,.544-.023,1.09,0,1.632a1.016,1.016,0,0,1-.646,1.072,4.634,4.634,0,0,0-2.378,2.64,4.766,4.766,0,0,0,4.045,6.271.73.73,0,0,1,.511.146.545.545,0,0,1,.077.172,21.786,21.786,0,0,1,0,2.934.494.494,0,0,1-.08.164,1.493,1.493,0,0,1-1.788-1.268,4.309,4.309,0,0,0-.188-.846,1.457,1.457,0,0,0-2.812.45,4.571,4.571,0,0,0,2.583,4.269c.437.25.741.511.672,1.048a1.956,1.956,0,0,0,1.529,2.427.54.54,0,0,1,.087.175c.107,1.466.023,2.933.048,4.4.007.435,0,.869,0,1.3a.939.939,0,0,1-.172.667h-2.069a6.874,6.874,0,0,0-1.356-.056,25.2,25.2,0,0,1-10.512-2.145,12,12,0,0,1-7.224-9.043c-.132-.674-.071-1.364-.181-2.039v-2.178C2291.983,323.62,2291.828,323.239,2291.933,322.879Z" transform="translate(-2291.843 -283.708)" fill="#fe637a"/>
  <path id="Path_6815" data-name="Path 6815" d="M2485.975,310q0-3.3,0-6.607c.192-.221.459-.189.706-.19q2.764-.01,5.527,0a.845.845,0,0,1,.708.188,26.047,26.047,0,0,1,4.5,2.466,23.207,23.207,0,0,1,6.522,7.119c.054.092.093.194.139.292-.18.212-.43.159-.658.161-.924.009-1.848-.025-2.771.012a3.013,3.013,0,0,0-2.8,1.832,2.978,2.978,0,0,0,.507,3.344,3.767,3.767,0,0,0,1.75,1.039c.18.411-.189.392-.389.463a3.057,3.057,0,0,0-2.032,2.1,3.1,3.1,0,0,0,1.973,3.805c.207.074.56.028.5.432a.668.668,0,0,1-.334.164,3.1,3.1,0,0,0,0,5.982.7.7,0,0,1,.337.161c.07.362-.238.349-.437.421a3.1,3.1,0,0,0-1.919,4.16c.072.2.185.4.08.626a1.375,1.375,0,0,1-.769.367,25.777,25.777,0,0,1-7.552,1.017,8.294,8.294,0,0,0-1.519.056h-2.069q0-3.258,0-6.516c.085-.138.237-.155.371-.2.794-.291,1.17-.7,1.094-1.539a1.931,1.931,0,0,1,1.165-2.077,4.7,4.7,0,0,0-2.1-8.584.881.881,0,0,1-.551-.2.484.484,0,0,1-.09-.162,18.058,18.058,0,0,1-.005-2.889.457.457,0,0,1,.083-.161,1.377,1.377,0,0,1,1.642,1.032c.078.261.1.536.156.8a1.5,1.5,0,0,0,2.979-.321,4.564,4.564,0,0,0-1.013-2.819,4.677,4.677,0,0,0-1.721-1.392.811.811,0,0,1-.522-.86c.011-.526.005-1.052,0-1.579a1.525,1.525,0,0,0-1.247-1.775.8.8,0,0,1-.194-.1Z" transform="translate(-2464.634 -283.69)" fill="#e53950"/>
  <path id="Path_6816" data-name="Path 6816" d="M2704.392,573.83a3.238,3.238,0,0,1,2.581,2.826,3.311,3.311,0,0,1-2.069,3.394c-.18.069-.392.066-.538.219h-8.928a.92.92,0,0,1-.174-.664q-.007-2.6,0-5.2a1.038,1.038,0,0,1,.151-.674,1.1,1.1,0,0,1,.777-.169q3.587-.007,7.174,0A1.436,1.436,0,0,1,2704.392,573.83Z" transform="translate(-2651.229 -524.54)" fill="#fe9000"/>
  <path id="Path_6817" data-name="Path 6817" d="M2603.588,573.714q0,3.264,0,6.528h-8.711a2.868,2.868,0,0,1-1.812-.827,1.116,1.116,0,0,1-.413-.673,3.265,3.265,0,0,1,.282-3.856,3.2,3.2,0,0,1,1.509-1.019c.148-.051.4.023.421-.251a.725.725,0,0,1,.471-.086c2.5.012,4.994,0,7.49.007a1.4,1.4,0,0,1,.69.1Z" transform="translate(-2559.376 -524.513)" fill="#fcbe00"/>
  <path id="Path_6818" data-name="Path 6818" d="M2507.875,634.024c0,.03-.008.059-.014.089h-1.524A4.32,4.32,0,0,1,2507.875,634.024Z" transform="translate(-2482.927 -578.383)" fill="#f6a2ae"/>
  <path id="Path_6819" data-name="Path 6819" d="M2455.386,634.077a.647.647,0,0,0-.008-.092,3.578,3.578,0,0,1,1.424.092Z" transform="translate(-2437.529 -578.348)" fill="#fec4cd"/>
  <path id="Path_6820" data-name="Path 6820" d="M2291.933,483.324a2.221,2.221,0,0,1-.09,1.1v-1.089A.3.3,0,0,1,2291.933,483.324Z" transform="translate(-2291.843 -444.153)" fill="#feccd4"/>
  <path id="Path_6821" data-name="Path 6821" d="M2485.932,124.432a4.678,4.678,0,0,1,4.377,2.762.757.757,0,0,0,.81.5c1.5-.027,3.009-.014,4.514-.009a1.606,1.606,0,0,1,1.619,2.2c-.827,2.576-1.681,5.143-2.523,7.715a.953.953,0,0,1-.718.166q-3.684.007-7.367,0a1.1,1.1,0,0,1-.727-.156,1.133,1.133,0,0,1-.166-.779q-.006-5.813,0-11.626A1,1,0,0,1,2485.932,124.432Z" transform="translate(-2464.585 -124.432)" fill="#e53950"/>
  <path id="Path_6822" data-name="Path 6822" d="M2394.062,124.432q0,6.57,0,13.139l-.073.079a1.418,1.418,0,0,1-.743.112q-3.591,0-7.182,0a1.128,1.128,0,0,1-.783-.152q-1.222-3.715-2.444-7.429a2.131,2.131,0,0,1-.174-1.217,1.651,1.651,0,0,1,1.678-1.279c1.542-.01,3.084-.016,4.626.006a.639.639,0,0,0,.685-.438A4.735,4.735,0,0,1,2394.062,124.432Z" transform="translate(-2372.714 -124.432)" fill="#fe637b"/>
  <path id="Path_6823" data-name="Path 6823" d="M2704.41,520.21c-2.982-.207-5.968-.043-8.951-.089l-.009-.009a.774.774,0,0,1-.164-.557q-.013-2.732,0-5.465a1.094,1.094,0,0,1,.073-.424.353.353,0,0,1,.142-.158,1.7,1.7,0,0,1,.746-.1c2.586-.025,5.173.045,7.759-.039a.457.457,0,0,1,.4.119c-.014.293.256.222.393.272a3.268,3.268,0,0,1,0,6.175C2704.665,519.988,2704.391,519.914,2704.41,520.21Z" transform="translate(-2651.247 -470.92)" fill="#fcbe00"/>
  <path id="Path_6824" data-name="Path 6824" d="M2695.439,395.641c2.849,0,5.7-.034,8.546,0a3.259,3.259,0,0,1,2.969,2.733,3.329,3.329,0,0,1-2.069,3.574c-.171.066-.474-.024-.5.3a.461.461,0,0,1-.4.12c-2.591-.083-5.184-.013-7.776-.039a1.216,1.216,0,0,1-.785-.155,1.124,1.124,0,0,1-.165-.777q-.009-2.494,0-4.988A1,1,0,0,1,2695.439,395.641Z" transform="translate(-2651.227 -366.026)" fill="#fcbe00"/>
  <path id="Path_6825" data-name="Path 6825" d="M2695.453,455.441q3.478,0,6.957,0a10.427,10.427,0,0,1,2,.093,3.239,3.239,0,0,1,0,6.346c-2.981.206-5.965.043-8.948.089a.745.745,0,0,1-.174-.606q-.013-2.658,0-5.315a1.071,1.071,0,0,1,.1-.528Z" transform="translate(-2651.246 -419.311)" fill="#fe9000"/>
  <path id="Path_6826" data-name="Path 6826" d="M2485.936,244.817l8.8.025a3.667,3.667,0,0,1,2.278,1.774,3.274,3.274,0,0,1-2.835,4.75c-.434.007-.867.01-1.3.015l-6.941,0,0-.036a.931.931,0,0,1-.172-.719q-.008-2.529,0-5.057a.931.931,0,0,1,.172-.719Z" transform="translate(-2464.593 -231.678)" fill="#fcbe00"/>
  <path id="Path_6827" data-name="Path 6827" d="M2394.057,245.149v6.5l-6.945.032-1.085-.014a3.264,3.264,0,0,1-1.048-6.394c.1-.035.2-.079.3-.118Z" transform="translate(-2372.716 -231.974)" fill="#fed92d"/>
  <path id="Path_6828" data-name="Path 6828" d="M2603.59,395.5q0,3.258-.005,6.515h0a.848.848,0,0,1-.611.173q-3.719.008-7.436,0a.764.764,0,0,1-.679-.264,3.212,3.212,0,0,1-2.7-3.289,3.278,3.278,0,0,1,3.141-3.141c1.175-.04,2.352-.02,3.528-.027Z" transform="translate(-2559.378 -365.884)" fill="#fed92d"/>
  <path id="Path_6829" data-name="Path 6829" d="M2447.176,379.073a4.928,4.928,0,0,1-4.778-3.752,4.828,4.828,0,0,1,2.614-5.47.79.79,0,0,0,.552-.9c-.04-.522-.011-1.05-.009-1.575a1.655,1.655,0,0,1,1.632-1.847l0,.033a.939.939,0,0,1,.171.718q.008,2.794,0,5.589a.909.909,0,0,1-.173.716v.042c-.229.2-.562.121-.8.312a1.524,1.524,0,0,0-.682,1.446,1.451,1.451,0,0,0,1.036,1.208c.15.055.323.06.441.19l0,.048a.5.5,0,0,1,.158.387c.027.823.03,1.647,0,2.47A.48.48,0,0,1,2447.176,379.073Z" transform="translate(-2425.845 -339.217)" fill="#fed92d"/>
  <path id="Path_6830" data-name="Path 6830" d="M2485.928,463.173q0-1.619.01-3.239a4.882,4.882,0,0,1,2.091,9.283c-.347.166-.508.339-.462.723a6.978,6.978,0,0,1,.005.815,1.607,1.607,0,0,1-1.63,1.775l0-.037a.922.922,0,0,1-.172-.716q-.009-2.3,0-4.608a.883.883,0,0,1,.178-.713v-.045a.9.9,0,0,1,.331-.171,1.325,1.325,0,0,0,1.046-1.382c.006-.784-.239-1.12-1.047-1.426a.83.83,0,0,1-.329-.174C2485.939,463.23,2485.933,463.2,2485.928,463.173Z" transform="translate(-2464.597 -423.316)" fill="#fcbe00"/>
  <path id="Path_6831" data-name="Path 6831" d="M2447.358,493.446q0,3.019-.006,6.037a1.511,1.511,0,0,1-1.611-1.594,1.906,1.906,0,0,0-1.111-2.076,4.329,4.329,0,0,1-2.181-3.837,1.565,1.565,0,0,1,1.411-1.74,1.612,1.612,0,0,1,1.844,1.556A1.618,1.618,0,0,0,2447.358,493.446Z" transform="translate(-2426.01 -450.306)" fill="#fed92d"/>
  <path id="Path_6832" data-name="Path 6832" d="M2487.443,490.387a1.577,1.577,0,0,1,0,3.154Q2487.442,491.964,2487.443,490.387Z" transform="translate(-2466.094 -450.446)" fill="#e53950"/>
  <path id="Path_6833" data-name="Path 6833" d="M2594.854,454.623a1.815,1.815,0,0,0,.747.093h7.98l0,6.529-.009.009a.915.915,0,0,1-.665.168c-2.546.01-5.092-.005-7.638.008a.634.634,0,0,1-.416-.088c-.023-.273-.272-.2-.42-.251a3.255,3.255,0,0,1,0-6.216C2594.582,454.825,2594.834,454.9,2594.854,454.623Z" transform="translate(-2559.373 -418.585)" fill="#fcbe00"/>
  <path id="Path_6834" data-name="Path 6834" d="M2594.859,515.405a1.547,1.547,0,0,1,.583-.094q4.068.006,8.135.006v6.524q-4.068,0-8.135.006a1.545,1.545,0,0,1-.584-.095,3.214,3.214,0,0,1,0-6.347Z" transform="translate(-2559.375 -472.649)" fill="#fed92d"/>
  <path id="Path_6835" data-name="Path 6835" d="M2487.383,372.859q0-3.512,0-7.023a1.544,1.544,0,0,1,1.629,1.58c.01.671.014,1.343,0,2.013a.539.539,0,0,0,.352.586,4.9,4.9,0,0,1,2.9,4.041,1.744,1.744,0,0,1-1.459,2.069,1.718,1.718,0,0,1-1.821-1.546C2488.739,373.345,2488.441,373.025,2487.383,372.859Z" transform="translate(-2466.041 -339.488)" fill="#fcbe00"/>
  <path id="Path_6836" data-name="Path 6836" d="M2473.988,433.721a1.554,1.554,0,0,1-1.636-1.616,1.536,1.536,0,0,1,1.639-1.54Q2473.99,432.143,2473.988,433.721Z" transform="translate(-2452.65 -397.152)" fill="#fe637a"/>
</svg>
