<svg xmlns="http://www.w3.org/2000/svg" width="60.909" height="51.939" viewBox="0 0 60.909 51.939">
  <g id="Group_12864" data-name="Group 12864" transform="translate(0)">
    <path id="Path_4329" data-name="Path 4329" d="M-669.99,759.706a9.512,9.512,0,0,1,1.6-1.179,15.389,15.389,0,0,0,6.014-10.058,14.965,14.965,0,0,0-2.911-11.669,15.154,15.154,0,0,0-10.045-6.046,15.217,15.217,0,0,0-5.915.223.363.363,0,0,1-.387-.062,15.153,15.153,0,0,1,8.389-1.227,14.908,14.908,0,0,1,9.061,4.5,15.226,15.226,0,0,1,4.431,11.8,15.547,15.547,0,0,1-9.95,13.638A2.629,2.629,0,0,1-669.99,759.706Z" transform="translate(690.807 -729.553)" fill="#fd5ca6"/>
    <path id="Path_4330" data-name="Path 4330" d="M-496.874,895.814a11.062,11.062,0,0,1,2.1.393,14.692,14.692,0,0,0,8.356-.954,15.032,15.032,0,0,0,9.272-10.958,15.086,15.086,0,0,0-2.766-12.829,14.679,14.679,0,0,0-4.284-3.862,1.1,1.1,0,0,1-.2-.209,14.96,14.96,0,0,1,8.454,7.974,15.516,15.516,0,0,1-10.95,21.705A14.917,14.917,0,0,1-496.874,895.814Z" transform="translate(535.412 -845.486)" fill="#01cffa"/>
    <path id="Path_4331" data-name="Path 4331" d="M-459.126,746.048c-.217.167-.121.4-.121.608-.007,2.517-.022,5.034.009,7.551.007.554-.18.682-.682.631-.975-.1-1.761-.556-1.735-1.814.049-2.4.013-4.8.015-7.194a1.5,1.5,0,0,1,1.356-1.708,2.432,2.432,0,0,0,1.859-2.719,1.469,1.469,0,0,0-.524-.837c-1.548-1.533-3.062-3.1-4.689-4.553-.17-.152-.395-.286-.386-.568,1.112-1.171,2-1.187,3.134-.053,1.779,1.778,3.565,3.549,5.33,5.341a3.173,3.173,0,0,1,.659,3.567,3.249,3.249,0,0,1-3.065,1.951A8.393,8.393,0,0,1-459.126,746.048Z" transform="translate(507.784 -733.759)" fill="#01cffa"/>
    <path id="Path_4332" data-name="Path 4332" d="M-632.672,937.554a2.779,2.779,0,0,0,1.31-2.487,1.9,1.9,0,0,0-1.878-1.888c-.909-.015-1.819,0-2.729,0-.64,0-.872-.219-.873-.836q-.006-3.975,0-7.95a1.513,1.513,0,0,1,1.4-1.556,4,4,0,0,1,1.111-.119q-.007,3.772-.015,7.543c0,.538.236.79.792.789a7.151,7.151,0,0,1,1.77.1,3.3,3.3,0,0,1,2.529,3.527A3.286,3.286,0,0,1-632.672,937.554Z" transform="translate(653.137 -891.998)" fill="#fd5ca6"/>
    <path id="Path_4333" data-name="Path 4333" d="M-648.029,1022.426c.132-.429.556-.584.841-.863a3.211,3.211,0,0,0,.932-2.287c.029-.709.031-1.422,0-2.131a.7.7,0,0,1,.632-.834,9.429,9.429,0,0,1,1.828-.032c.109,0,.146.117.165.218a2.254,2.254,0,0,0-.119,1.043,11.843,11.843,0,0,1-.122,2.7A3.223,3.223,0,0,1-648.029,1022.426Z" transform="translate(662.543 -970.684)" fill="#fd5ca6"/>
    <path id="Path_4334" data-name="Path 4334" d="M-710.75,748.109a15.257,15.257,0,0,0-4.534-8.816,15.635,15.635,0,0,0-10.967-4.536,14.772,14.772,0,0,0-3.923.533,15.461,15.461,0,0,0-8.811,10.859c-.154.645-.243,1.3-.362,1.958v2.735a5.273,5.273,0,0,1,.231,1.324,15.426,15.426,0,0,0,5.233,9.127,15.214,15.214,0,0,0,6.38,3.265c.231.057.433.111.431.447-.015,2.455-.007,4.91-.011,7.365,0,.418-.241.6-.644.6s-.792-.006-1.188,0a3.326,3.326,0,0,0-3.179,2.826,3.207,3.207,0,0,0,2.606,3.616,7.619,7.619,0,0,0,1.655.073c.526,0,.767.214.757.743-.013.693-.007,1.386,0,2.079a3.334,3.334,0,0,0,2.244,3.354,3.716,3.716,0,0,0,1.947-3.553c-.02-.514-.011-1.031,0-1.546.014-.648.2-.848.848-.889a6.672,6.672,0,0,1,1.6.059c.461-.435,1.041-.153,1.556-.259a2.44,2.44,0,0,0,1.435-2.875,2.141,2.141,0,0,0-2.223-1.674c-.812-.014-1.625.017-2.437-.013-.563-.02-.759-.2-.763-.766-.018-2.6-.026-5.192,0-7.787a1.383,1.383,0,0,1,1.245-1.434,2.6,2.6,0,0,0,1.078-.291,9.027,9.027,0,0,0,2.013-.561,13.694,13.694,0,0,0,4.574-3.88A15.288,15.288,0,0,0-710.75,748.109Zm-13.032,10.757a9.3,9.3,0,0,1-9.4-9.432,9.3,9.3,0,0,1,9.352-9.368,9.325,9.325,0,0,1,9.425,9.44A9.328,9.328,0,0,1-723.782,758.866Z" transform="translate(739.346 -733.927)" fill="#fd7ab5"/>
    <path id="Path_4335" data-name="Path 4335" d="M-523.821,768.209a14,14,0,0,0-6.742-7.827,9,9,0,0,0-1.9-.611c-.31-.084-.49-.181-.486-.579.025-2.81.017-5.619.019-8.429-.436.091-.291.454-.293.7-.018,2.1-.009,4.2-.01,6.294,0,.4.007.792-.007,1.188-.01.294-.159.415-.451.423a1.442,1.442,0,0,1-1.572-1.426q-.039-3.77,0-7.541a1.349,1.349,0,0,1,1.086-1.38,3.889,3.889,0,0,0,.976-.423,2.258,2.258,0,0,0,.418-3.6c-.813-.687-1.521-1.5-2.279-2.254-.9-.892-1.846-1.727-2.768-2.591-.351.346-.7.69-1.052,1.04-1.463,1.478-2.964,2.921-4.371,4.45a3.092,3.092,0,0,0-.271,3.8,3.186,3.186,0,0,0,3.5,1.394c.518-.135.541.04.538.456-.014,2.338-.007,4.675-.007,7.013,0,1.272,0,1.272-1.25,1.637-.114.033-.226.072-.339.11a15.521,15.521,0,0,0-9.693,20.257,15.183,15.183,0,0,0,7.719,8.481.293.293,0,0,1,.173.011,12.8,12.8,0,0,0,6.836.559A15.227,15.227,0,0,0-525.7,783,15.185,15.185,0,0,0-523.821,768.209Zm-3.036,6.693a9.3,9.3,0,0,1-9.384,9.338,9.332,9.332,0,0,1-9.4-9.467,9.327,9.327,0,0,1,9.409-9.334A9.3,9.3,0,0,1-526.857,774.9Z" transform="translate(581.583 -738.473)" fill="#62dafa"/>
  </g>
</svg>
