<svg id="Group_12865" data-name="Group 12865" xmlns="http://www.w3.org/2000/svg" width="53.439" height="53.648" viewBox="0 0 53.439 53.648">
  <path id="Path_4324" data-name="Path 4324" d="M-413.5,421.289c.655.955,1.305,1.913,1.965,2.865,1.266,1.828,2.586,3.615,3.991,5.341.226.277.313.286.543,0a84.386,84.386,0,0,0,5.439-7.511c.156-.243.332-.475.5-.712q3.625.012,7.25.022c2.069,0,4.138.01,6.207-.008a.615.615,0,0,1,.711.475c.422,1.2.9,2.384,1.348,3.574-.137.247-.4.295-.629.38-3.455,1.257-6.923,2.477-10.39,3.7-3.639,1.294-7.282,2.579-10.917,3.885-1.381.5-2.77.973-4.149,1.477a1.315,1.315,0,0,1-.564.109c-.343-.052-.513-.32-.7-.564-3.2-4.127-6.37-8.281-9.565-12.413-.134-.173-.336-.335-.235-.607Z" transform="translate(433.993 -385.08)" fill="#f1d930"/>
  <path id="Path_4325" data-name="Path 4325" d="M-483.947,421.366c1.247,1.645,2.488,3.295,3.745,4.933q3.137,4.091,6.293,8.168c.117.151.26.281.392.421-.066.249-.292.292-.487.36-3.043,1.067-6.077,2.161-9.115,3.244-.348.124-.718.147-1.061.277q-5.314.008-10.629.02c-.409,0-.516-.124-.363-.522q2.784-7.236,5.551-14.478c.262-.684.522-1.37.762-2.062a.5.5,0,0,1,.557-.38C-486.851,421.363-485.4,421.361-483.947,421.366Z" transform="translate(495.239 -385.141)" fill="#deedf3"/>
  <path id="Path_4326" data-name="Path 4326" d="M-424.053,482.345a15.429,15.429,0,0,1,2.426-.921c2.74-1,5.49-1.976,8.236-2.961q7.517-2.668,15.035-5.335c.216-.076.441-.129.662-.192a.993.993,0,0,1,.52.439c2.1,2.77,4.245,5.505,6.347,8.274.153.2.4.38.309.7Z" transform="translate(435.111 -428.717)" fill="#3ea1e4"/>
  <path id="Path_4327" data-name="Path 4327" d="M-247.2,460.8c-1.048-1.558-2.262-2.99-3.391-4.487-1.247-1.653-2.522-3.284-3.785-4.925q3.039-1.1,6.078-2.192,2.473-.889,4.947-1.771l3.844,10.053c.358.937.708,1.878,1.081,2.808.154.383.073.532-.351.53C-241.582,460.807-244.39,460.806-247.2,460.8Z" transform="translate(291.79 -407.17)" fill="#deedf3"/>
  <path id="Path_4328" data-name="Path 4328" d="M-386.918,199.825a14.186,14.186,0,0,0-15.267-11.483,13.788,13.788,0,0,0-11.08,7.009c-2.139,3.543-2.3,7.39-1.571,11.346a43.655,43.655,0,0,0,4.286,11.847c1.035,2.037,2.232,3.98,3.384,5.95a.5.5,0,0,0,.113.321,81.4,81.4,0,0,0,5.694,7.911c.36.443.481.439.85-.009a80.136,80.136,0,0,0,5.224-7.178,2.221,2.221,0,0,0,.555-1.061c.559-.928,1.135-1.846,1.674-2.785a48.668,48.668,0,0,0,5.889-14.376A18.742,18.742,0,0,0-386.918,199.825Zm-14.072,8.756a6.023,6.023,0,0,1-6-6.1,6.042,6.042,0,0,1,6.1-6,6.037,6.037,0,0,1,6,6.1A6.025,6.025,0,0,1-400.99,208.58Z" transform="translate(427.657 -188.285)" fill="#f35858"/>
</svg>
