<svg id="Group_12873" data-name="Group 12873" xmlns="http://www.w3.org/2000/svg" width="59.702" height="40.425" viewBox="0 0 59.702 40.425">
  <path id="Path_6901" data-name="Path 6901" d="M4397.773,928a4.318,4.318,0,0,1-2.391,2.007,22.647,22.647,0,0,1-6.467,1.593,39.592,39.592,0,0,1-7.092.219,26.418,26.418,0,0,1-8.863-1.7,6.531,6.531,0,0,1-1.707-.984,1.825,1.825,0,0,1-.789-1.658c.053-.449-.124-.555-.553-.542a32.9,32.9,0,0,1-8.084-.8c-.151-.033-.3-.086-.446-.129.04-.524.5-.762.79-1.1a13.587,13.587,0,0,0,2.59-4.523c.077-.237.146-.5.46-.542.753.108,1.523-.01,2.27.168.737.043,1.477,0,2.214.023.559.019.67.139.7.7a3.371,3.371,0,0,1-.118,1.208c.033-.09.008-.2.12-.256.348.046.476.374.711.564a8.638,8.638,0,0,0,2.85,1.426,30.123,30.123,0,0,0,6.35,1.144,37.926,37.926,0,0,0,5.352.086,27.761,27.761,0,0,0,9.228-1.736,5.867,5.867,0,0,0,2.309-1.53c.21-.239.177-.657.57-.747Z" transform="translate(-4338.071 -891.455)" fill="#e1a53b"/>
  <path id="Path_6902" data-name="Path 6902" d="M4386.019,885.382c-.765-.237-1.577.018-2.341-.228a.565.565,0,0,1-.03-.556,11.979,11.979,0,0,0,.441-3.969,7.992,7.992,0,0,0-.167-1.9.448.448,0,0,1,.12-.391.859.859,0,0,1,.613-.11,25.459,25.459,0,0,0,2.765.115,2.065,2.065,0,0,1,1.4.422.659.659,0,0,1,.136.436,1.872,1.872,0,0,0,1.034,1.7,14.15,14.15,0,0,0,4.9,1.761,34.264,34.264,0,0,0,5.422.643,31.046,31.046,0,0,0,4.155,0,39.048,39.048,0,0,0,5.865-.74,18.784,18.784,0,0,0,3.648-1.152,4.1,4.1,0,0,0,2.051-1.64c.064-.112.132-.246.306-.215v6.532a4.278,4.278,0,0,1-2.787,2.422,24.9,24.9,0,0,1-5.823,1.444,37.819,37.819,0,0,1-7.872.3,24.327,24.327,0,0,1-8.74-1.754,3.835,3.835,0,0,1-2.073-1.592c-.295-.334-.164-.739-.165-1.113,0-.329-.052-.5-.439-.475C4387.634,885.376,4386.823,885.258,4386.019,885.382Z" transform="translate(-4356.637 -856.661)" fill="#f3b744"/>
  <path id="Path_6903" data-name="Path 6903" d="M4426.772,866.339a26.276,26.276,0,0,1-8.689-1.521,8.19,8.19,0,0,1-2.079-1.151,1.918,1.918,0,0,1-.667-1.878c-.072-.526.287-.825.621-1.112a6.694,6.694,0,0,1,1.846-1.1,25.272,25.272,0,0,1,7.08-1.586c1.1-.115,2.213-.013,3.311-.181a.584.584,0,0,1,.542.134,2.97,2.97,0,0,0,1.2.09,31.53,31.53,0,0,1,9.445,1.42,12.491,12.491,0,0,1,1.707.733,2.875,2.875,0,0,1,1.776,2.067v.233a4.855,4.855,0,0,1-3.048,2.317,26.854,26.854,0,0,1-6.771,1.432c-.657.065-1.309.09-1.965.1A33.973,33.973,0,0,1,4426.772,866.339Z" transform="translate(-4383.167 -839.595)" fill="#fdda41"/>
  <path id="Path_6904" data-name="Path 6904" d="M4246.634,823.059l0,.366c.089.611.142,1.227.225,1.84a12.7,12.7,0,0,1-.579,4.56,17.02,17.02,0,0,1-1.954,3.919c-.548.75-1.165,1.437-1.777,2.131a16.883,16.883,0,0,1-4.917,2.946,13.782,13.782,0,1,1-7.012-26.555,13.059,13.059,0,0,1,6.227.314c.146.044.3.067.449.1a4.4,4.4,0,0,1,1.863.609,14.086,14.086,0,0,1,7.448,9.205A.758.758,0,0,1,4246.634,823.059Z" transform="translate(-4219.242 -801.331)" fill="#fdda41"/>
  <path id="Path_6905" data-name="Path 6905" d="M4338.008,792.507a16.665,16.665,0,0,0-1.221-3.368,13.608,13.608,0,0,0-7.757-6.84c-.124-.041-.275-.039-.357-.172q-.066-2.95-.133-5.9c0-.211.012-.423.019-.634.259-.024.368.191.508.338a6.031,6.031,0,0,0,2.118,1.4,23.874,23.874,0,0,0,6.569,1.464,35.38,35.38,0,0,0,5.4.242,35.858,35.858,0,0,0,8.962-1.256,10.426,10.426,0,0,0,2.624-1.1,3.481,3.481,0,0,0,1.042-.915c.1-.138.193-.3.4-.286q0,6.823,0,13.646c-3.413.162-6.828.306-10.093,1.485a10.017,10.017,0,0,0-2.141,1.027,2.827,2.827,0,0,0-1.166,1.33,2.384,2.384,0,0,0-1.266-.335C4340.348,792.633,4339.178,792.6,4338.008,792.507Z" transform="translate(-4310.615 -770.779)" fill="#eeb241"/>
  <path id="Path_6906" data-name="Path 6906" d="M4356.019,751.5a5.329,5.329,0,0,1-3.026,2.116,24.74,24.74,0,0,1-5.811,1.277,38.356,38.356,0,0,1-6.313.319,32.181,32.181,0,0,1-9.348-1.489,6.4,6.4,0,0,1-3.128-2.116,2.146,2.146,0,0,1,1.273-2.377,15.658,15.658,0,0,1,5.362-1.816,40.386,40.386,0,0,1,9.616-.556,25.941,25.941,0,0,1,8.852,1.716,6.8,6.8,0,0,1,1.566.883A2.05,2.05,0,0,1,4356.019,751.5Z" transform="translate(-4310.451 -746.793)" fill="#fdda41"/>
  <path id="Path_6907" data-name="Path 6907" d="M4398.4,921.259a10.921,10.921,0,0,1,2.7-.09c.244,0,.2.244.2.41a3.713,3.713,0,0,0,.119,1.207c-.224.182-.053.473-.236.85,0-.739-.018-1.308.007-1.875.017-.37-.1-.515-.486-.5C4399.946,921.281,4399.174,921.261,4398.4,921.259Z" transform="translate(-4369.023 -892.538)" fill="#eec270"/>
  <path id="Path_6908" data-name="Path 6908" d="M4485.141,909.877h4.311c-.1.124-.235.113-.368.113h-3.576C4485.375,909.99,4485.236,910,4485.141,909.877Z" transform="translate(-4441.535 -883.132)" fill="#fad96d"/>
  <path id="Path_6909" data-name="Path 6909" d="M4386.5,883.356a6.005,6.005,0,0,1-.225-1.84A4.836,4.836,0,0,1,4386.5,883.356Z" transform="translate(-4358.877 -859.422)" fill="#fbde89"/>
  <path id="Path_6910" data-name="Path 6910" d="M4284.735,840.887c.125.706-1.036,1.375-1.814.989a1.635,1.635,0,0,1-.829-1.379,2.118,2.118,0,0,0-1.878-1.888,2.143,2.143,0,0,0-2.31,1.773,2.2,2.2,0,0,0,2.027,2.427,4.7,4.7,0,0,1,4.707,5.079,4.488,4.488,0,0,1-2.908,3.944.656.656,0,0,0-.469.737,2,2,0,0,1-.072.975,1.217,1.217,0,0,1-1.449.7,1.19,1.19,0,0,1-1-1.255c.085-.865-.365-1.133-1.013-1.463a4.471,4.471,0,0,1-2.4-3.8,1.343,1.343,0,0,1,1.2-1.522,1.317,1.317,0,0,1,1.361,1.339,2.179,2.179,0,0,0,1.7,2.033,2.115,2.115,0,1,0,.5-4.188,4.725,4.725,0,0,1-4.763-4.872,4.386,4.386,0,0,1,2.935-4.129.574.574,0,0,0,.455-.615,1.294,1.294,0,0,1,1.017-1.325,1.2,1.2,0,0,1,1.315.533c.1.135.225.328.2.467-.126.667.327.824.791,1.067A4.95,4.95,0,0,1,4284.735,840.887Z" transform="translate(-4266.123 -820.036)" fill="#e1a53b"/>
</svg>
