<svg id="Group_12871" data-name="Group 12871" xmlns="http://www.w3.org/2000/svg" width="62.798" height="62.827" viewBox="0 0 62.798 62.827">
  <path id="Path_6851" data-name="Path 6851" d="M2576.27,1154.667a3.635,3.635,0,0,1-2.694,2.507,3.535,3.535,0,0,1-4.084-2.226q-.114-.311-.229-.622V1153.1l.148-.357c.3-.034.375.213.479.4a3.416,3.416,0,0,0,5.879-.027c.1-.184.189-.427.484-.387l.018.033A1.639,1.639,0,0,1,2576.27,1154.667Z" transform="translate(-2569.263 -1122.299)" fill="#e39442"/>
  <path id="Path_6852" data-name="Path 6852" d="M2742.074,1327.229a4.985,4.985,0,0,1-1.622-.8,3.472,3.472,0,0,1-1.174-3.73c.323-.027.385.256.51.447a3.393,3.393,0,0,0,5.8,0c.125-.192.187-.474.51-.448a3.523,3.523,0,0,1-2.583,4.422,1.22,1.22,0,0,0-.212.107Z" transform="translate(-2711.275 -1264.402)" fill="#e39542"/>
  <path id="Path_6853" data-name="Path 6853" d="M2663.964,1041.643c.969.212,1.965.235,2.938.443a19.116,19.116,0,0,1,8.608,4.262,2.435,2.435,0,0,0,.358.217,7.746,7.746,0,0,1,1.344,1.345c.678,1.016,1.5,1.925,2.125,2.984a18.607,18.607,0,0,1,2.7,8.86.973.973,0,0,1,.134.765,19.261,19.261,0,0,1-5.929,11.947,18.8,18.8,0,0,1-11.524,5.178,18.529,18.529,0,0,1-10.229-1.905,18.991,18.991,0,0,1-10.228-12.871c-.19-.749-.268-1.525-.406-2.288a1,1,0,0,1,.125-.825,18.725,18.725,0,0,1,4.484-11.348c.128-.155.313-.272.336-.5a7.913,7.913,0,0,1,1.347-1.346c.932-.614,1.761-1.369,2.715-1.957a18.934,18.934,0,0,1,8.846-2.864,1.606,1.606,0,0,0,.341-.1A4.854,4.854,0,0,1,2663.964,1041.643Z" transform="translate(-2631.592 -1029.359)" fill="#6e9eef"/>
  <path id="Path_6854" data-name="Path 6854" d="M2865.618,1270.919a5.425,5.425,0,0,1,.456-3.488c.186-.448.446-.864.673-1.294a3.221,3.221,0,0,1,1.357-1.349,7.357,7.357,0,0,1,4.087-1.241,6.494,6.494,0,0,1,6.177,5.652,6.425,6.425,0,0,1-6,5.141,6.619,6.619,0,0,1-6.556-4.214,2.864,2.864,0,0,1-.08-.412C2865.718,1270.076,2865.936,1270.524,2865.618,1270.919Z" transform="translate(-2816.912 -1214.95)" fill="#fedf7d"/>
  <path id="Path_6855" data-name="Path 6855" d="M2577.611,981.048a6.46,6.46,0,0,1,12.862,1.141.683.683,0,0,1-.105.467c-.312-.364-.125-.775-.125-1.024a6.043,6.043,0,0,1-2.4,3.276,6.637,6.637,0,0,1-9.976-2.92A7.681,7.681,0,0,0,2577.611,981.048Z" transform="translate(-2576.242 -974.045)" fill="#fedf7d"/>
  <path id="Path_6856" data-name="Path 6856" d="M2865.68,981.326a6.455,6.455,0,0,1,12.732-1.194c.046.2.078.4.116.6a6.18,6.18,0,0,1-5.1,5.057,6.514,6.514,0,0,1-7.366-3.837,1.589,1.589,0,0,1-.168-.585C2865.886,980.947,2865.713,981.556,2865.68,981.326Z" transform="translate(-2817.069 -973.843)" fill="#a1d9fc"/>
  <path id="Path_6857" data-name="Path 6857" d="M2643.088,1152.57a18.566,18.566,0,0,0,2.786,8.75,17.712,17.712,0,0,0,3.011,3.753,19,19,0,0,0,9.565,4.954,18.151,18.151,0,0,0,4.245.366,20.179,20.179,0,0,0,6.979-1.56,18.2,18.2,0,0,0,6.271-4.373,18.623,18.623,0,0,0,4.958-9.9,11.369,11.369,0,0,0,.243-1.993l.113.064a2.194,2.194,0,0,1,0,1.906,22,22,0,0,0-.344,2.4,19.03,19.03,0,0,1-4.333,9.109.774.774,0,0,0-.255.406,3.251,3.251,0,0,1-1.34,1.34c-.7.521-1.385,1.068-2.106,1.559a18.369,18.369,0,0,1-9.347,3.254.7.7,0,0,0-.464.121,2.218,2.218,0,0,1-1.91,0,22.113,22.113,0,0,0-2.4-.343,19.039,19.039,0,0,1-9.152-4.375.665.665,0,0,0-.362-.213,3.263,3.263,0,0,1-1.34-1.341c-.509-.685-1.042-1.354-1.522-2.058a18.392,18.392,0,0,1-3.29-9.4.692.692,0,0,0-.121-.464,2.2,2.2,0,0,1,0-1.906Z" transform="translate(-2630.702 -1122.174)" fill="#5b8fdb"/>
  <path id="Path_6858" data-name="Path 6858" d="M2865.661,1009.806l.194-.433a6.07,6.07,0,0,0,1.565,2.878,6.45,6.45,0,0,0,10.88-2.68,1.7,1.7,0,0,1,.209-.363,6.285,6.285,0,0,1-2.522,6.013,6.18,6.18,0,0,1-6.567.714c-.407-.179-.792-.409-1.187-.616a3.574,3.574,0,0,1-1.354-1.348,8.537,8.537,0,0,1-1.168-3.02A7.758,7.758,0,0,1,2865.661,1009.806Z" transform="translate(-2817.05 -1002.323)" fill="#83c7e9"/>
  <path id="Path_6859" data-name="Path 6859" d="M2577.374,1009.926c.345.206.3.608.418.913a6.443,6.443,0,0,0,12.08-.373,1.684,1.684,0,0,1,.093-.225c.016-.03.056-.048.165-.136,0,.519,0,.973,0,1.428a6.706,6.706,0,0,1-1.14,3.024,3.109,3.109,0,0,1-1.35,1.35,7.252,7.252,0,0,1-3.652,1.236A6.446,6.446,0,0,1,2577.374,1009.926Z" transform="translate(-2576.005 -1002.923)" fill="#fecf64"/>
  <path id="Path_6860" data-name="Path 6860" d="M2866.264,1299.74v-1.631c.244.537.407.938.6,1.321a6.342,6.342,0,0,0,4.907,3.5,6.443,6.443,0,0,0,6.98-4.368,1.067,1.067,0,0,1,.26-.541,6.433,6.433,0,0,1-12.75,1.72Z" transform="translate(-2817.557 -1243.77)" fill="#fecf64"/>
  <path id="Path_6861" data-name="Path 6861" d="M2909.632,1139.6a3.682,3.682,0,0,1,3.15-2.547,3.553,3.553,0,0,1,3.712,2.573,3.4,3.4,0,0,1-3.583,2.359A3.5,3.5,0,0,1,2909.632,1139.6Z" transform="translate(-2853.813 -1109.186)" fill="#b2e49e"/>
  <path id="Path_6862" data-name="Path 6862" d="M2746.842,1308.5c-.166.073-.213.238-.292.379a3.574,3.574,0,0,1-6.234,0c-.08-.14-.126-.306-.293-.378a3.656,3.656,0,0,1,2.455-2.478,1.63,1.63,0,0,1,1.909,0A3.655,3.655,0,0,1,2746.842,1308.5Z" transform="translate(-2712.02 -1250.207)" fill="#e6a461"/>
  <path id="Path_6863" data-name="Path 6863" d="M2740,969.807a3.545,3.545,0,0,1,6.825,0,3.647,3.647,0,0,1-6.825,0Z" transform="translate(-2712.004 -967.223)" fill="#b2e49e"/>
  <path id="Path_6864" data-name="Path 6864" d="M2577.006,1139.635a7.4,7.4,0,0,1-1.465,1.667,3.588,3.588,0,0,1-5.031-1.165c-.1-.172-.141-.388-.347-.485a3.577,3.577,0,0,1,3.219-2.586A3.642,3.642,0,0,1,2577.006,1139.635Z" transform="translate(-2570.015 -1109.21)" fill="#e6a461"/>
  <path id="Path_6865" data-name="Path 6865" d="M2739.285,982.984a7.193,7.193,0,0,0,1.424,1.636,3.573,3.573,0,0,0,5.079-1.2c.09-.157.134-.348.322-.433a3.567,3.567,0,0,1-2.46,4.415,1.663,1.663,0,0,1-1.9,0,3.612,3.612,0,0,1-2.6-3.577A6.2,6.2,0,0,1,2739.285,982.984Z" transform="translate(-2711.285 -980.399)" fill="#94d5a3"/>
  <path id="Path_6866" data-name="Path 6866" d="M2908.147,1152.678c.228.1.28.337.393.528a3.561,3.561,0,0,0,6.121-.015c.1-.173.142-.389.348-.487a3.536,3.536,0,0,1-2.305,4.347c-1.939.621-3.718-.326-4.549-2.422a1.671,1.671,0,0,1,0-1.9Z" transform="translate(-2852.328 -1122.264)" fill="#94d5a3"/>
  <path id="Path_6867" data-name="Path 6867" d="M2844.8,1038.251l1.354,1.349-5.562,5.555a5.189,5.189,0,0,1-1.345-1.345Z" transform="translate(-2794.969 -1026.603)" fill="#384656"/>
  <path id="Path_6868" data-name="Path 6868" d="M2640.217,1039.521l1.35-1.35,5.567,5.569a5.068,5.068,0,0,1-1.347,1.346Z" transform="translate(-2628.581 -1026.536)" fill="#384656"/>
  <path id="Path_6869" data-name="Path 6869" d="M2839.306,1238.6a9.863,9.863,0,0,1,1.34-1.339l5.566,5.552-1.357,1.349Z" transform="translate(-2795.02 -1192.977)" fill="#384656"/>
  <path id="Path_6870" data-name="Path 6870" d="M2754.977,1009.9a4.051,4.051,0,0,0,1.9,0q0,2.642.006,5.285a5.682,5.682,0,0,1-1.917,0Q2754.975,1012.547,2754.977,1009.9Z" transform="translate(-2724.516 -1002.904)" fill="#384656"/>
  <path id="Path_6871" data-name="Path 6871" d="M2617.255,1152.952q0,.953,0,1.906h-5.26a4.381,4.381,0,0,0,0-1.909Z" transform="translate(-2604.984 -1122.492)" fill="#384656"/>
  <path id="Path_6872" data-name="Path 6872" d="M2756.9,1280.776a4.314,4.314,0,0,0-1.909,0q0-2.631,0-5.262h1.91Q2756.9,1278.145,2756.9,1280.776Z" transform="translate(-2724.533 -1224.956)" fill="#384656"/>
  <path id="Path_6873" data-name="Path 6873" d="M2882.806,1152.963a4.089,4.089,0,0,0,0,1.9l-5.268,0q0-.954,0-1.907Z" transform="translate(-2826.981 -1122.502)" fill="#384656"/>
  <path id="Path_6874" data-name="Path 6874" d="M2577.623,1269.243a6.438,6.438,0,0,1,9.738-4.7c.174.1.355.2.532.293a3.184,3.184,0,0,1,1.345,1.344,7.213,7.213,0,0,1,1.243,4.085,1.081,1.081,0,0,1-.1.594c-.335-.359-.111-.769-.114-1.173-.035-.052,0-.047-.012.013-.225,1.956-2.745,4.2-5.054,4.592a6.63,6.63,0,0,1-7.437-4.4C2577.7,1269.685,2577.711,1269.453,2577.623,1269.243Z" transform="translate(-2576.252 -1214.999)" fill="#dd5974"/>
  <path id="Path_6875" data-name="Path 6875" d="M2577.464,1297.992c.25.554.462,1.129.758,1.657a6.224,6.224,0,0,0,4.684,3.245,6.476,6.476,0,0,0,7.172-4.564c.009-.032.046-.055.148-.173,0,.544,0,1,0,1.454a6.432,6.432,0,1,1-12.762-1.62Z" transform="translate(-2576.093 -1243.747)" fill="#c6495d"/>
  <path id="Path_6876" data-name="Path 6876" d="M2641.591,1244.164l-1.345-1.344,5.56-5.556a9.43,9.43,0,0,1,1.34,1.341Z" transform="translate(-2628.605 -1192.979)" fill="#384656"/>
  <path id="Path_6877" data-name="Path 6877" d="M2724.569,1101.836q4.07-1.709,8.141-3.417c.8-.337,1.615-.66,2.423-.989.211.191.171.448.171.688q.006,6.617,0,13.233c0,.79-.2.933-.925.636q-4.651-1.9-9.279-3.852a1.032,1.032,0,0,1-.624-.464,5.978,5.978,0,0,1-.085-1.645c-.012-1.123-.007-2.246,0-3.37A1.228,1.228,0,0,1,2724.569,1101.836Z" transform="translate(-2698.939 -1076.076)" fill="#e4ebf6"/>
  <path id="Path_6878" data-name="Path 6878" d="M2789.931,1085.522a2.16,2.16,0,0,1,1.331-2.025,2.034,2.034,0,0,1,2.182.3,2.121,2.121,0,0,1,.817,1.767q.011,2.112.021,4.224a.989.989,0,0,1,.18.692c0,1.89.027,3.779-.014,5.668a5.515,5.515,0,0,1-.166,2.248l-.039,2.688a2.18,2.18,0,0,1-1.774,1.616,2.261,2.261,0,0,1-2.4-1.192,2.308,2.308,0,0,1-.251-.62c.207-4.633.037-9.267.093-13.9C2789.92,1086.5,2789.892,1086.012,2789.931,1085.522Z" transform="translate(-2753.651 -1064.27)" fill="#dd5974"/>
  <path id="Path_6879" data-name="Path 6879" d="M2696.284,1124.22q.015,2.947.03,5.894a3.409,3.409,0,0,1,.052,2.162c-.386.14-.314-.2-.343-.365a5.081,5.081,0,0,1-.024-1.034c.015-.418-.17-.582-.582-.579-.935.007-1.87.017-2.8,0a1.986,1.986,0,0,1-2.052-1.4c-.006-.936-.022-1.873-.015-2.809a1.782,1.782,0,0,1,1.829-1.873C2693.678,1124.19,2694.981,1124.217,2696.284,1124.22Z" transform="translate(-2670.655 -1098.461)" fill="#dd5974"/>
  <path id="Path_6880" data-name="Path 6880" d="M2725.3,1109.4q.025-1.095.049-2.189c3.328,1.382,6.657,2.758,9.979,4.155.433.182.573.135.572-.359q-.02-7.048-.015-14.1l.086-.1c.011.857.031,1.714.031,2.571q0,6.312-.008,12.625c0,.122.014.244.021.366.114.5.4,1-.051,1.482-1.567-.513-3.052-1.231-4.577-1.846-1.83-.738-3.641-1.519-5.463-2.277-.186-.077-.386-.121-.579-.18l-.055-.034A.1.1,0,0,1,2725.3,1109.4Z" transform="translate(-2699.689 -1075.561)" fill="#b8cae9"/>
  <path id="Path_6881" data-name="Path 6881" d="M2705.169,1174.27c-.008,2.207-.008,4.414-.025,6.621a1.974,1.974,0,0,1-2.161,2.11,1.912,1.912,0,0,1-1.824-1.947c-.039-2.267,0-4.535.007-6.8a.211.211,0,0,1,.163.122,4.759,4.759,0,0,1,.087,1.395c.013.352.162.522.52.523.794,0,1.589,0,2.383,0,.4,0,.529-.195.54-.566a4.264,4.264,0,0,1,.093-1.394.2.2,0,0,1,.172-.11C2705.137,1174.239,2705.153,1174.255,2705.169,1174.27Z" transform="translate(-2679.514 -1140.276)" fill="#384656"/>
  <path id="Path_6882" data-name="Path 6882" d="M2817.022,1129.23l0-6.378a3.213,3.213,0,1,1,.763,6.365C2817.544,1129.289,2817.277,1129.407,2817.022,1129.23Z" transform="translate(-2776.386 -1097.33)" fill="#fedf7d"/>
  <path id="Path_6883" data-name="Path 6883" d="M2696.262,1156.336a.766.766,0,0,1-.089.036.541.541,0,0,1-.319.163,26.259,26.259,0,0,1-3.152,0,.519.519,0,0,1-.321-.158.2.2,0,0,0-.076-.017c-1.464-.475-1.763-.887-1.762-2.435,0-.367.01-.734.017-1.1a2.471,2.471,0,0,0,2.4,1.233c.809-.063,1.626-.013,2.439-.012.776,0,.76,0,.782.805a3.694,3.694,0,0,0,.08,1.38A.125.125,0,0,1,2696.262,1156.336Z" transform="translate(-2670.654 -1122.389)" fill="#c6495d"/>
  <path id="Path_6884" data-name="Path 6884" d="M2790.453,1193.19q.026-.741.051-1.482c.321.353.413.863.885,1.126,1.235.688,2.5.469,3.381-1.122.006.529.025,1.059.015,1.588a2.185,2.185,0,0,1-2.094,2.2,2.155,2.155,0,0,1-2.2-2.07C2790.479,1193.351,2790.464,1193.271,2790.453,1193.19Z" transform="translate(-2754.178 -1154.893)" fill="#c6495d"/>
  <path id="Path_6885" data-name="Path 6885" d="M2817.02,1146.724a4.448,4.448,0,0,0,3.251-2,4.352,4.352,0,0,1,.543-.942,4.237,4.237,0,0,1-3.8,5.177Q2817.018,1147.839,2817.02,1146.724Z" transform="translate(-2776.385 -1114.823)" fill="#fecf64"/>
  <path id="Path_6886" data-name="Path 6886" d="M2701.7,1174.453l3.792-.007c0,.569-.011,1.138.007,1.707.012.345-.071.524-.468.515q-1.432-.032-2.865,0c-.39.009-.488-.155-.475-.508C2701.711,1175.592,2701.7,1175.022,2701.7,1174.453Z" transform="translate(-2679.972 -1140.462)" fill="#2f3b48"/>
</svg>
