<svg id="Group_12868" data-name="Group 12868" xmlns="http://www.w3.org/2000/svg" width="62.826" height="62.817" viewBox="0 0 62.826 62.817">
  <path id="Path_6789" data-name="Path 6789" d="M3258.658,183.178c-.5-.013-1-.053-1.5-.033a1.551,1.551,0,0,1-1.423-.574v-.736c.255-.2.427-.523.805-.536,1.18.052,2.351-.132,3.529-.141a4.291,4.291,0,0,1,.549.018,1.1,1.1,0,0,1,.992.855,1.029,1.029,0,0,1-.642,1.135A2.939,2.939,0,0,1,3258.658,183.178Z" transform="translate(-3255.731 -150.798)" fill="#655e68"/>
  <path id="Path_6790" data-name="Path 6790" d="M3440.819,349.1c-.2-.257-.525-.426-.534-.807-.034-.324-.007-.649-.017-.974a5.083,5.083,0,0,0-.17-1.365,3.334,3.334,0,0,1,.155-2.094.93.93,0,0,1,.948-.641,1.02,1.02,0,0,1,1,.895c.084,1.359-.167,2.709-.115,4.067.032.429-.3.649-.536.919Z" transform="translate(-3409.773 -286.285)" fill="#665e68"/>
  <path id="Path_6791" data-name="Path 6791" d="M3292.14,57.765a.893.893,0,0,0-1.052-.711c-.489.095-.691.451-.75.971-.149,1.322.146,2.638,0,3.954a3.879,3.879,0,0,1-.041-1.395c.063-.577-.227-.706-.69-.728a28.912,28.912,0,0,1-16.034-6.1,27.98,27.98,0,0,1-10.454-17.643,21.613,21.613,0,0,1-.364-3.77c.67-.023,1.342-.025,2.01-.078a.883.883,0,0,0,.8-.738.869.869,0,0,0-.386-.9,1.006,1.006,0,0,0-.7-.145q-1.924-.013-3.846-.02a7.151,7.151,0,0,1,1.584-.042c.374,0,.536-.078.554-.5a26.621,26.621,0,0,1,3.105-11.611A28.241,28.241,0,0,1,3286.11,3.3a19.582,19.582,0,0,1,3.4-.406c.549-.012.874-.163.79-.825a3.311,3.311,0,0,1,.044-1.334c.238.143.2.388.2.6a9.549,9.549,0,0,1-.07,1.711,4.5,4.5,0,0,0,.042,1.584c.071.379.173.739.6.832.408.089.64-.184.83-.494a2.248,2.248,0,0,0,.112-1.084c.03-.707.165-.827.865-.7a27.375,27.375,0,0,1,6.534,2.055,28.087,28.087,0,0,1,9.456,6.973,27.789,27.789,0,0,1,7,14.868,27.994,27.994,0,0,1-4.378,20,28.292,28.292,0,0,1-17.194,12.175c-.516.131-1.039.227-1.562.32-.415.074-.669-.021-.633-.532A6.383,6.383,0,0,0,3292.14,57.765Z" transform="translate(-3259.83 0.032)" fill="#fe7f85"/>
  <path id="Path_6792" data-name="Path 6792" d="M3451.526,58.342a3.142,3.142,0,0,1,.08,1.267c0,.355.13.491.477.424a29.216,29.216,0,0,0,9.394-3.517,28.729,28.729,0,0,0,11.553-13,29.938,29.938,0,0,0,2.1-7,16.138,16.138,0,0,0,.292-2.847c0-1.013.014-2.026,0-3.039a26.485,26.485,0,0,0-1.668-8.52,27.166,27.166,0,0,0-3.642-6.835,29.115,29.115,0,0,0-6.494-6.5A27.831,27.831,0,0,0,3453.5,4.175c-.475-.111-.951-.213-1.428-.309-.3-.06-.453.032-.463.376a3.445,3.445,0,0,1-.082,1.329.66.66,0,0,1-.224-.6q-.027-1.469,0-2.939c0-.221.007-.457.232-.6a13.324,13.324,0,0,1,.033,1.4c-.038.49.149.624.617.638a24.6,24.6,0,0,1,8.506,1.759q14.646,5.932,18,21.411a16.392,16.392,0,0,1,.42,3.7c-.008.517.143.74.7.684a10.211,10.211,0,0,1,1.34.03c-.182.269-.47.209-.725.213-.9.013-1.8,0-2.7.006a2.781,2.781,0,0,0-.611.038.674.674,0,0,0-.572.565.64.64,0,0,0,.406.689,2.689,2.689,0,0,0,1.2.2c.339.013.7-.088,1,.173a28.6,28.6,0,0,1-23.18,27.076,20.25,20.25,0,0,1-3.882.434c-.405,0-.528.152-.513.544.021.486-.02.975-.034,1.461Z" transform="translate(-3419.216 -0.545)" fill="#e4646e"/>
  <path id="Path_6793" data-name="Path 6793" d="M3606.615,183.933c-.667-.072-1.339.047-2.007-.083a.917.917,0,0,1-.843-.951c-.007-.475.443-.818,1.015-.823,1.28-.012,2.56-.016,3.84-.023.618.132.927.462.893.957a.948.948,0,0,1-1.006.869C3607.876,183.915,3607.245,183.916,3606.615,183.933Z" transform="translate(-3546.689 -151.548)" fill="#655e68"/>
  <path id="Path_6794" data-name="Path 6794" d="M3443.355-3.073l-.007,4.142a.9.9,0,0,1-1.006.7c-.525-.082-.736-.451-.794-1-.144-1.325.144-2.642.008-3.962a.864.864,0,0,1,.982-.764A.853.853,0,0,1,3443.355-3.073Z" transform="translate(-3411.04 3.956)" fill="#665e68"/>
  <path id="Path_6795" data-name="Path 6795" d="M3306.674,69.985a23.059,23.059,0,1,1,23.041,23.063A23.092,23.092,0,0,1,3306.674,69.985Z" transform="translate(-3298.32 -38.585)" fill="#fefefe"/>
  <path id="Path_6796" data-name="Path 6796" d="M3392.813,205.29a19.634,19.634,0,0,1-3.084-.326,15.3,15.3,0,0,1-5.458-1.858,2.916,2.916,0,0,1-1.446-3.394,11.4,11.4,0,0,1,2.5-4.724,15.154,15.154,0,0,1,2.658-2.088,6.158,6.158,0,0,1,2.125-.833c.514.142.948.466,1.45.636a5.921,5.921,0,0,0,3.158.142,9.205,9.205,0,0,1,3.7,3.2,11.032,11.032,0,0,1,1.683,3.653,2.957,2.957,0,0,1-1.583,3.491,18,18,0,0,1-5.1,1.86,3.884,3.884,0,0,1-.423.07c-.162.011-.322,0-.417.006-.146-.038-.033.09-.033.008,0-.015.02-.006.061,0C3392.717,205.134,3392.811,205.151,3392.813,205.29Z" transform="translate(-3361.893 -159.92)" fill="#fe8085"/>
  <path id="Path_6797" data-name="Path 6797" d="M3440.818,205.26c-.167-.185-.436-.029-.677-.192a17.856,17.856,0,0,0,6.669-2.237A2.809,2.809,0,0,0,3448,199.9a10.51,10.51,0,0,0-4.52-6.507c-.238-.154-.461-.331-.691-.5a11.77,11.77,0,0,1,1.813-.867,8.865,8.865,0,0,1,3.5,1.852,11.915,11.915,0,0,1,1.194,1.074,11.2,11.2,0,0,1,2.48,4.576,2.911,2.911,0,0,1-1.262,3.46,12.246,12.246,0,0,1-5.52,1.94A19.4,19.4,0,0,1,3440.818,205.26Z" transform="translate(-3409.898 -159.89)" fill="#e4646e"/>
  <path id="Path_6798" data-name="Path 6798" d="M3411.669,105.72c.236-.241.125-.544.129-.818a3.3,3.3,0,0,1,3.468-3.461c.571,0,1.143.009,1.714.014a3.258,3.258,0,0,1,2.617,3.479c0,.754.035,1.508-.009,2.262a.3.3,0,0,1-.174.1,7.743,7.743,0,0,0-3.475.5q-1.674.581-3.361,1.123c-.276.089-.579.265-.842-.049A15.056,15.056,0,0,1,3411.669,105.72Z" transform="translate(-3386.055 -84.156)" fill="#655e68"/>
  <path id="Path_6799" data-name="Path 6799" d="M3489.353,205.379a8.922,8.922,0,0,1,6.09,6.7,2.266,2.266,0,0,1-1.2,2.53,15.585,15.585,0,0,1-8.833,1.936c-.083-.478.329-.381.548-.426a16.032,16.032,0,0,0,4.036-1.406c1.511-.765,1.9-1.639,1.43-3.246a9.046,9.046,0,0,0-3.2-4.6c-.273-.218-.683-.315-.756-.743A4.783,4.783,0,0,1,3489.353,205.379Z" transform="translate(-3447.734 -171.049)" fill="#94d5a3"/>
  <path id="Path_6800" data-name="Path 6800" d="M3366.654,205.849a17.41,17.41,0,0,0-1.686,2.548,11.885,11.885,0,0,0-.789,2.183,2.76,2.76,0,0,0,1.469,3.29,18.432,18.432,0,0,0,4.682,1.769c.2.046.394.1.591.156a3.609,3.609,0,0,1-1.188.243,8.472,8.472,0,0,1-3.265-.269,19,19,0,0,1-4.554-1.752,2.922,2.922,0,0,1-1.545-3.605,9.628,9.628,0,0,1,2.836-4.834,2.631,2.631,0,0,1,1.1-.5c.052-.032.117-.078.167-.051C3365.158,205.407,3365.951,205.507,3366.654,205.849Z" transform="translate(-3343.085 -170.751)" fill="#8bb2e9"/>
  <path id="Path_6801" data-name="Path 6801" d="M3376.852,169.083a5.165,5.165,0,0,1-2.353-.768,4.975,4.975,0,0,1-2.022-3.395c-.1-.983-.033-1.985-.039-2.978a7.293,7.293,0,0,1,2.924-.9.713.713,0,0,1,.165.566,5.426,5.426,0,0,0,3.325,4.975c.232.115.587.124.572.522A18.744,18.744,0,0,0,3376.852,169.083Z" transform="translate(-3353.284 -133.984)" fill="#f1cbbb"/>
  <path id="Path_6802" data-name="Path 6802" d="M3491.9,164.6a7.592,7.592,0,0,1-1.852.767c-.167.151-.332.084-.5,0l-1.106-.99a1.087,1.087,0,0,1,.361-.555,4.974,4.974,0,0,0,1.309-3.533c-.021-.9-.006-1.8,0-2.7a1.679,1.679,0,0,1,.1-.783.812.812,0,0,1,.852-.15,5.525,5.525,0,0,1,2.888,1.58,26.1,26.1,0,0,1-.036,3.061A4.928,4.928,0,0,1,3491.9,164.6Z" transform="translate(-3450.278 -130.275)" fill="#ebac99"/>
  <path id="Path_6803" data-name="Path 6803" d="M3446.882,107.182a7.039,7.039,0,0,1-.114-2.352,3.289,3.289,0,0,0-1.311-2.742,9.092,9.092,0,0,0-1.153-.646c1.079,0,2.159-.041,3.235,0a3.274,3.274,0,0,1,2.89,2.716,5.357,5.357,0,0,1,.027,1.4,9.216,9.216,0,0,1,.114,3.177c-.09.282-.3.265-.484.144a14.482,14.482,0,0,0-3.14-1.6C3446.915,107.27,3446.9,107.22,3446.882,107.182Z" transform="translate(-3413.38 -84.142)" fill="#544f57"/>
  <path id="Path_6804" data-name="Path 6804" d="M3352.834,208.407a16.153,16.153,0,0,0-2.143,3.315,10.257,10.257,0,0,0-.654,2.027,2.811,2.811,0,0,0,1.536,2.93,17.426,17.426,0,0,0,7.789,2.189,13.138,13.138,0,0,1-3.942.2,15.861,15.861,0,0,1-6.11-1.79,2.444,2.444,0,0,1-1.324-3.212,8.978,8.978,0,0,1,4.507-5.533A2.478,2.478,0,0,1,3352.834,208.407Z" transform="translate(-3332.715 -173.58)" fill="#a3cbfe"/>
  <path id="Path_6805" data-name="Path 6805" d="M3473.939,210.032l.5,0a10.124,10.124,0,0,1,3.62,4.046,9.57,9.57,0,0,1,.639,1.842,2.408,2.408,0,0,1-1.341,2.638,15.961,15.961,0,0,1-4.646,1.64c-.161.03-.339,0-.362.233a10.792,10.792,0,0,1-2.574-.455,20.992,20.992,0,0,0,4.919-1.753,2.949,2.949,0,0,0,1.658-3.792A12.542,12.542,0,0,0,3473.939,210.032Z" transform="translate(-3434.669 -174.939)" fill="#b2e49e"/>
  <path id="Path_6806" data-name="Path 6806" d="M3493.266,133.744a8.106,8.106,0,0,1-1.289-.8,4.655,4.655,0,0,0-2.362-.7.328.328,0,0,1-.124-.153,8.418,8.418,0,0,1-.054-1.648,2.894,2.894,0,0,0-1.408-2.623c-.173-.107-.438-.171-.4-.472a25.214,25.214,0,0,1,3.111.006,2.775,2.775,0,0,1,2.536,2.721C3493.287,131.3,3493.272,132.523,3493.266,133.744Z" transform="translate(-3449.597 -105.781)" fill="#544f57"/>
  <path id="Path_6807" data-name="Path 6807" d="M3392.927,127.382c.222.163.149.4.151.618.01.872.01,1.744.013,2.616a2.21,2.21,0,0,1,.064,1.658.5.5,0,0,1-.489.175,5.874,5.874,0,0,0-2.383.335.991.991,0,0,1-.878.038.871.871,0,0,1-.2-.686c-.011-1.348-.009-2.7,0-4.045a.984.984,0,0,1,.193-.692C3390.575,127.322,3391.751,127.357,3392.927,127.382Z" transform="translate(-3367.313 -105.818)" fill="#544f57"/>
  <path id="Path_6808" data-name="Path 6808" d="M3375.4,127.644c0,1.59,0,3.181,0,4.771,0,.214-.081.454.12.634.027.11-.01.155-.124.121a19.778,19.778,0,0,0-2.294.7c-.209.06-.425.1-.638.149,0-1.181-.022-2.362-.005-3.543A2.8,2.8,0,0,1,3375.4,127.644Z" transform="translate(-3353.312 -106.062)" fill="#655e68"/>
  <path id="Path_6809" data-name="Path 6809" d="M3481.6,126.8a3.542,3.542,0,0,1,1.876,2.2,11.012,11.012,0,0,1,.09,1.7c.015.305,0,.612,0,.918a23.072,23.072,0,0,1-2.654.589.472.472,0,0,1-.373-.364,2.6,2.6,0,0,1,.086-1.826q.011-1.682.021-3.364C3480.928,126.941,3481.3,126.667,3481.6,126.8Z" transform="translate(-3443.57 -105.233)" fill="#655e68"/>
  <path id="Path_6810" data-name="Path 6810" d="M3411.874,139.4l.029-1.666c1.512-.492,3.021-.994,4.538-1.47a5.164,5.164,0,0,1,3.059-.258,1.008,1.008,0,0,1,.173.753c0,1.343.05,2.689-.01,4.029a5.556,5.556,0,0,1-3.271,4.925.853.853,0,0,1-.7.107,7.858,7.858,0,0,1-1.344-.628,3.772,3.772,0,0,1-1.874-1.852A4.989,4.989,0,0,1,3411.874,139.4Z" transform="translate(-3386.124 -112.936)" fill="#f1cbbb"/>
  <path id="Path_6811" data-name="Path 6811" d="M3436.04,146.379a5.6,5.6,0,0,0,3.814-5.28c-.039-1.51-.008-3.023-.009-4.534l.127-.03a10.7,10.7,0,0,1,3.554,1.743c.011.521.013,1.043.038,1.563.011.226-.031.511.324.543a3.54,3.54,0,0,0-.213,1.173,5.414,5.414,0,0,1-2.468,4.188,6.528,6.528,0,0,1-1.844.758A4.6,4.6,0,0,1,3436.04,146.379Z" transform="translate(-3406.47 -113.496)" fill="#ebac99"/>
  <path id="Path_6812" data-name="Path 6812" d="M3394.045,157.166c.076.7-.053,1.415.081,2.12a6.079,6.079,0,0,0,2.4,3.672,8.358,8.358,0,0,0-2.086.867.463.463,0,0,0-.263-.238,5.573,5.573,0,0,1-3.791-5.776l.124-.121A8.124,8.124,0,0,1,3394.045,157.166Z" transform="translate(-3368.296 -130.702)" fill="#ebac99"/>
  <path id="Path_6813" data-name="Path 6813" d="M3467.545,162.787c.415-.58,1.021-.985,1.409-1.6a5.153,5.153,0,0,0,.909-3.039c-.014-.323,0-.6.363-.726a6.7,6.7,0,0,1,2.58-.5.689.689,0,0,1,.021.083c0,1.279,0,2.558-.018,3.837a4.816,4.816,0,0,1-1.837,3.8A11.6,11.6,0,0,0,3467.545,162.787Z" transform="translate(-3432.809 -130.537)" fill="#f1cbbb"/>
</svg>
