<svg id="Group_12874" data-name="Group 12874" xmlns="http://www.w3.org/2000/svg" width="59.879" height="59.895" viewBox="0 0 59.879 59.895">
  <path id="Path_6911" data-name="Path 6911" d="M4369.843-176.343c.267.346.27.8.489,1.169v7.484a2.481,2.481,0,0,1-2.635,1.541c-3.93-.056-7.86-.018-11.79-.022a1.979,1.979,0,0,1-2.057-2.1c.209-.2.473-.144.72-.154a19.142,19.142,0,0,0,11.878-4.649,18.359,18.359,0,0,0,2.8-2.959C4369.387-176.221,4369.516-176.492,4369.843-176.343Z" transform="translate(-4310.453 226.044)" fill="#3595d7"/>
  <path id="Path_6912" data-name="Path 6912" d="M4232.866-514.926a6.406,6.406,0,0,1,2.728,1.2,1.532,1.532,0,0,1,.178.219,5.572,5.572,0,0,1,.769,2.993,5.275,5.275,0,0,1-5.054,5,5.546,5.546,0,0,1-2.951-.747,5.11,5.11,0,0,1-.888-5.713,4.9,4.9,0,0,1,3.907-2.852c.052-.007.1-.062.143-.094Z" transform="translate(-4202.338 514.926)" fill="#fed3af"/>
  <path id="Path_6913" data-name="Path 6913" d="M4205.612-412.622a1.667,1.667,0,0,1-.053-.916c.029-2.063-.109-4.129.071-6.188a4.083,4.083,0,0,1,3.74-3.561,1.463,1.463,0,0,1,.677.123,9.041,9.041,0,0,0,7.524.008,1.457,1.457,0,0,1,.792-.124,3.955,3.955,0,0,1,3.164,2.1,5.762,5.762,0,0,1-1.406,1.907,19.591,19.591,0,0,1-11.944,6.255,14.5,14.5,0,0,1-1.739.164A1.47,1.47,0,0,0,4205.612-412.622Z" transform="translate(-4183.879 436.733)" fill="#ee2648"/>
  <path id="Path_6914" data-name="Path 6914" d="M4058.014-180.838c-.006-2.081-.053-4.163,0-6.243a4.1,4.1,0,0,1,3.737-4.021,1.919,1.919,0,0,1,1,.245,8.773,8.773,0,0,0,6.813.057,3.069,3.069,0,0,1,2.77.19,3.4,3.4,0,0,1,1.584,1.565c.055.263-.112.442-.25.624a19.327,19.327,0,0,1-8.833,6.538,18.357,18.357,0,0,1-6.093,1.193A.933.933,0,0,1,4058.014-180.838Z" transform="translate(-4057.988 238.609)" fill="#fea411"/>
  <path id="Path_6915" data-name="Path 6915" d="M4369.741-188.958c-.63.27-.864.918-1.269,1.389a19.716,19.716,0,0,1-4.912,4.049,19.652,19.652,0,0,1-7.144,2.488,13.4,13.4,0,0,1-2.67.146c0-2.159-.042-4.319.006-6.477a4.11,4.11,0,0,1,3.886-3.806,1.146,1.146,0,0,1,.5.125,9.357,9.357,0,0,0,7.632.028,2.919,2.919,0,0,1,2.765.663A3.588,3.588,0,0,1,4369.741-188.958Z" transform="translate(-4310.35 238.658)" fill="#4db4fe"/>
  <path id="Path_6916" data-name="Path 6916" d="M4106.256-476.476c-.634-.294-1.215-.559-1.792-.831-.75-.352-1.022-.882-.76-1.465s.858-.746,1.592-.417q1.863.835,3.72,1.685a1.072,1.072,0,0,1,.583,1.58q-.952,2-1.922,4c-.339.7-.871.929-1.458.657a1.083,1.083,0,0,1-.395-1.554c.183-.408.38-.809.615-1.306a9.49,9.49,0,0,0-1.7,1.063,22.6,22.6,0,0,0-8.894,13.5,19.7,19.7,0,0,0-.526,4.455c0,1-.4,1.53-1.077,1.506s-1.047-.55-1-1.56c.461-9.238,4.616-16.269,12.575-21.025C4105.948-476.272,4106.072-476.358,4106.256-476.476Z" transform="translate(-4088.069 484.575)" fill="#fedb13"/>
  <path id="Path_6917" data-name="Path 6917" d="M4206.153-400.312c0-.354.228-.368.509-.378a19.528,19.528,0,0,0,8.312-2.117,19.323,19.323,0,0,0,6.891-5.857,1.717,1.717,0,0,1,.2-.2,3.642,3.642,0,0,1,.579,2.155c.019,1.946.014,3.893,0,5.839a2.138,2.138,0,0,1-2.31,2.282q-5.985.007-11.969,0A2.058,2.058,0,0,1,4206.153-400.312Z" transform="translate(-4184.42 424.423)" fill="#b10d24"/>
  <path id="Path_6918" data-name="Path 6918" d="M4332.752-446.671c-1.308-8.02-5.459-13.99-12.81-17.654-.261-.13-.532-.241-.789-.378a1.035,1.035,0,0,1-.592-1.443,1.055,1.055,0,0,1,1.458-.422,24.02,24.02,0,0,1,4.9,2.822,24.575,24.575,0,0,1,9.4,14.347,15.224,15.224,0,0,1,.439,2.526c.012.184.063.365.117.662.487-.495.884-.918,1.3-1.321a1.051,1.051,0,0,1,1.555-.106,1.044,1.044,0,0,1-.1,1.554q-1.45,1.484-2.928,2.941a1,1,0,0,1-1.55,0q-1.479-1.456-2.927-2.943a1.044,1.044,0,0,1-.1-1.554,1.055,1.055,0,0,1,1.556.1,6.337,6.337,0,0,1,.494.5c.139.162.251.347.375.522Z" transform="translate(-4280.238 473.769)" fill="#fedb13"/>
  <path id="Path_6919" data-name="Path 6919" d="M4058.159-168.821a19.072,19.072,0,0,0,11.625-3.8,17.181,17.181,0,0,0,4.272-4.408,3.441,3.441,0,0,1,.6,2.255c.014,1.929.018,3.858,0,5.787a2.063,2.063,0,0,1-2.338,2.268q-6.051,0-12.1,0A1.988,1.988,0,0,1,4058.159-168.821Z" transform="translate(-4058.133 226.591)" fill="#ef7f15"/>
  <path id="Path_6920" data-name="Path 6920" d="M4376.409-273.78a4.855,4.855,0,0,1-1.416-3.038,4.964,4.964,0,0,1,1.54-4.265,5.214,5.214,0,0,1,6.95-.164c.026.023.031.069.047.1a5.033,5.033,0,0,1,.8,2.336,5.289,5.289,0,0,1-4.421,5.65A5.943,5.943,0,0,1,4376.409-273.78Z" transform="translate(-4328.464 316.587)" fill="#fed3af"/>
  <path id="Path_6921" data-name="Path 6921" d="M4080.567-273.979a5.142,5.142,0,0,1,.1-7.019,5.143,5.143,0,0,1,6.629-.674c.185.125.424.21.529.44a4.973,4.973,0,0,1,.326,5,5.079,5.079,0,0,1-3.908,2.987A5.1,5.1,0,0,1,4080.567-273.979Z" transform="translate(-4076.115 316.658)" fill="#fed3af"/>
  <path id="Path_6922" data-name="Path 6922" d="M4194.995-172.707c.237.461.482.917.707,1.383a1.043,1.043,0,0,1-.373,1.509,1.042,1.042,0,0,1-1.449-.563q-.992-1.851-1.957-3.717a1.06,1.06,0,0,1,.684-1.606q1.9-.553,3.808-1.1c.745-.212,1.288.023,1.473.623s-.126,1.1-.861,1.348a1.315,1.315,0,0,0-.626.259,22.4,22.4,0,0,0,7.176.677,23.232,23.232,0,0,0,6.968-1.57c.952-.373,1.55-.2,1.791.436s-.1,1.138-1.065,1.513a24.6,24.6,0,0,1-15.735.874c-.15-.04-.3-.076-.452-.11C4195.068-172.751,4195.047-172.733,4194.995-172.707Z" transform="translate(-4172.144 226.461)" fill="#fedb13"/>
  <path id="Path_6923" data-name="Path 6923" d="M4236.578-498.035c.252-.123.451.072.636.154a5.1,5.1,0,0,0,6.812-2.659,5.018,5.018,0,0,0-.1-4.225c-.072-.156-.292-.3-.114-.515a4.835,4.835,0,0,1,1.47,5.127,4.852,4.852,0,0,1-4.015,3.692A4.816,4.816,0,0,1,4236.578-498.035Z" transform="translate(-4210.383 506.695)" fill="#ecc3a1"/>
  <path id="Path_6924" data-name="Path 6924" d="M4088.341-266.149c.4-.117.655.215.97.335a5.149,5.149,0,0,0,6.762-3.408,5.148,5.148,0,0,0-.392-3.768c-.059-.123-.228-.24-.085-.411a4.773,4.773,0,0,1,1.693,4.255,4.973,4.973,0,0,1-3.338,4.384A5.081,5.081,0,0,1,4088.341-266.149Z" transform="translate(-4083.889 308.828)" fill="#ecc3a1"/>
  <path id="Path_6925" data-name="Path 6925" d="M4384.857-265.919c.36-.2.613.112.891.217a5.085,5.085,0,0,0,6.852-4.392,5.176,5.176,0,0,0-.661-2.985.143.143,0,0,1,.04-.2,4.718,4.718,0,0,1,1.6,2.632,5.151,5.151,0,0,1-4.364,6.249A4.909,4.909,0,0,1,4384.857-265.919Z" transform="translate(-4336.912 308.726)" fill="#ecc3a1"/>
</svg>
