<svg id="Group_12872" data-name="Group 12872" xmlns="http://www.w3.org/2000/svg" width="62.852" height="41.546" viewBox="0 0 62.852 41.546">
  <path id="Path_6887" data-name="Path 6887" d="M4541.319,86.724a1.98,1.98,0,0,1,1.173-.253q12.109,0,24.217,0a3.132,3.132,0,0,1,3.1,2.471v14.235l-.232.494a1.188,1.188,0,0,1-.817.191q-12.053,0-24.107-.005a3.211,3.211,0,0,1-3.384-3.4c-.011-4.4,0-8.792-.007-13.188A2.164,2.164,0,0,1,4541.319,86.724Z" transform="translate(-4506.954 -86.469)" fill="#e4646e"/>
  <path id="Path_6888" data-name="Path 6888" d="M4386.167,162.823a7.452,7.452,0,0,0,1.51,1.414c1.366,1.223,2.652,2.521,3.889,3.872a7.168,7.168,0,0,1-2.039,2.795,41.4,41.4,0,0,1-11.5,8.449,33.3,33.3,0,0,1-11.013,3.168,32.142,32.142,0,0,1-18.479-3.615,37.589,37.589,0,0,1-9.588-7.055,25.459,25.459,0,0,1-2.41-2.524,2.657,2.657,0,0,1-.558-1.337c1.124-1.212,2.292-2.375,3.517-3.486a39.771,39.771,0,0,1,5.169-3.98,36.052,36.052,0,0,1,13.949-5.452,45.478,45.478,0,0,1,7.622-.315c.5,0,1.009.094,1.518.1a.424.424,0,0,1,.163.316,27.481,27.481,0,0,1-.049,4.124.4.4,0,0,1-.527.179c-.78-.231-1.588-.345-2.369-.57-.131-.043-.243-.181-.386-.146-.649.159-1.314-.058-1.961.1a13.4,13.4,0,0,0-3.941,1.2,12.337,12.337,0,0,0-2.132,1.4,11.69,11.69,0,0,0-3.6,6.4,10.557,10.557,0,0,0,4.434,10.935,10.788,10.788,0,0,0,13.583-.672,5.672,5.672,0,0,0,.985-.914,11.449,11.449,0,0,0,2.678-6,10.893,10.893,0,0,0-1.607-7.19c-.171-.278-.375-.534-.527-.824-.094-.182-.2-.382.1-.5a2.723,2.723,0,0,1,.85-.072q5.866,0,11.733,0A1.361,1.361,0,0,1,4386.167,162.823Z" transform="translate(-4335.341 -143.541)" fill="#ecf3fe"/>
  <path id="Path_6889" data-name="Path 6889" d="M4528.945,103.63V99.082c.009-2.714.013-5.427.028-8.141a3.025,3.025,0,0,1,1.923-2.917c.229.193.137.457.137.69,0,4.373.034,8.746-.012,13.119a3.149,3.149,0,0,0,3.18,3.149c8.316-.023,16.634-.008,24.95-.007a3.029,3.029,0,0,1-3.085,2.044c-2.679.01-5.357,0-8.036,0-.226,0-.449.018-.673.027-2.039-.009-4.078-.026-6.115-.025-2.55,0-5.1.015-7.646.024a3.583,3.583,0,0,1-4.606-2.136C4528.862,104.5,4528.639,104.067,4528.945,103.63Z" transform="translate(-4496.531 -87.77)" fill="#da4655"/>
  <path id="Path_6890" data-name="Path 6890" d="M4332.717,235.538c1.314,2.529,3.547,4.207,5.612,6.035a34.966,34.966,0,0,0,7.563,5.021,33.257,33.257,0,0,0,9.837,3.154,27.191,27.191,0,0,0,5.163.372,33.6,33.6,0,0,0,12.537-2.778,39.7,39.7,0,0,0,9.244-5.775,37.215,37.215,0,0,0,4.731-4.593,2.482,2.482,0,0,0,.53-.886c.058-.193.1-.408.365-.43a3.25,3.25,0,0,1-.684,4.314,45.015,45.015,0,0,1-8.222,6.9,36.68,36.68,0,0,1-12.824,5.213,32.768,32.768,0,0,1-8.213.488,33.373,33.373,0,0,1-11.593-2.886,39.716,39.716,0,0,1-9.708-6.172,33.143,33.143,0,0,1-4.24-4.136A3.013,3.013,0,0,1,4332.717,235.538Z" transform="translate(-4332.077 -211.091)" fill="#dae9fe"/>
  <path id="Path_6891" data-name="Path 6891" d="M4610.023,118.2a2.622,2.622,0,0,1-.513,1.665.452.452,0,0,0-.021.629,2.946,2.946,0,0,1-.016,3.438,3,3,0,0,1-5.419-1.35,1.11,1.11,0,0,1,.843-1.4c.595-.092,1.046.31,1.176,1.048a.947.947,0,0,0,1.022.912.977.977,0,0,0,.92-.9,1.032,1.032,0,0,0-.926-1.044c-.749-.142-1.052-.442-1.04-1.032.012-.563.308-.847,1.031-.976a.981.981,0,0,0,.922-.978.885.885,0,0,0-.78-.954.955.955,0,0,0-1.137.7c-.267.722-.767,1.018-1.331.809a1.093,1.093,0,0,1-.562-1.532,3.021,3.021,0,0,1,3.208-2.019A2.981,2.981,0,0,1,4610.023,118.2Z" transform="translate(-4559.432 -110.471)" fill="#fefefe"/>
  <path id="Path_6892" data-name="Path 6892" d="M4655.456,117.309c0,.368,0,.736,0,1.1-.007.536-.091,1.019.607,1.331a.922.922,0,0,1-.142,1.6.7.7,0,0,0-.484.833,3.656,3.656,0,0,1-.014.735,1,1,0,0,1-1.979-.056c0-.04,0-.082,0-.122-.053-1.22-.053-1.22-1.27-1.221-.53,0-1.063.026-1.593-.01a1,1,0,0,1-.88-1.532c.949-1.738,1.883-3.485,2.963-5.146a1.52,1.52,0,0,1,1.778-.766,1.569,1.569,0,0,1,1.009,1.591c.009.552,0,1.1,0,1.655Z" transform="translate(-4597.485 -109.481)" fill="#fefefe"/>
  <path id="Path_6893" data-name="Path 6893" d="M4560.193,122.582c.718,0,1.308-.007,1.9,0a1.03,1.03,0,0,1,1.138.948.987.987,0,0,1-1.014,1.074,28.476,28.476,0,0,1-3.857-.013c-1.111-.107-1.465-.951-.808-1.872.832-1.163,1.685-2.309,2.526-3.465a5.088,5.088,0,0,0,.7-1.218.913.913,0,0,0-.506-1.265.949.949,0,0,0-1.259.539c-.05.111-.075.234-.126.344a1.01,1.01,0,0,1-1.261.581,1.029,1.029,0,0,1-.635-1.236,3,3,0,0,1,3.713-2.228,2.956,2.956,0,0,1,2.031,3.8,12.192,12.192,0,0,1-1.794,2.977C4560.722,121.865,4560.491,122.17,4560.193,122.582Z" transform="translate(-4520.079 -110.042)" fill="#fefefe"/>
  <path id="Path_6894" data-name="Path 6894" d="M4461.136,179.641c.156,2.31,1.33,3.4,3.671,3.4.326,0,.653.013.979.02a11.379,11.379,0,0,1,2.472,7.253,9.683,9.683,0,0,1-15.562,7.346,11.269,11.269,0,0,1-3.159-15.554,3.837,3.837,0,0,0,.311-.526,11.1,11.1,0,0,1,6.14-2.575,11.754,11.754,0,0,1,2.327,0Z" transform="translate(-4428.721 -163.781)" fill="#8ab2e9"/>
  <path id="Path_6895" data-name="Path 6895" d="M4440.9,195a.684.684,0,0,1-.124.458,11.1,11.1,0,0,0-1.817,7.561,10.407,10.407,0,0,0,2.228,5.464,11.225,11.225,0,0,0,14.684,2.7c.174-.1.3-.44.609-.225a10.655,10.655,0,0,1-6.4,3.549,10.954,10.954,0,0,1-12.365-7.155,10.753,10.753,0,0,1,2.021-11.1C4440.1,195.808,4440.511,195.413,4440.9,195Z" transform="translate(-4419.771 -177.2)" fill="#7399d5"/>
  <path id="Path_6896" data-name="Path 6896" d="M4500.666,178.194l-2.327,0c.022-.138.091-.245.241-.206a3.431,3.431,0,0,0,1.749,0C4500.488,177.944,4500.592,178.061,4500.666,178.194Z" transform="translate(-4471.073 -162.97)" fill="#ebf2fe"/>
  <path id="Path_6897" data-name="Path 6897" d="M4391.27,243.948a1.948,1.948,0,0,1-.387,2.051,30.693,30.693,0,0,1-2.855,2.908,42.614,42.614,0,0,1-7.841,5.762,33.368,33.368,0,0,1-8.189,3.349,45.345,45.345,0,0,1-4.844.9,11.678,11.678,0,0,1-1.542.086c-.1,0-.229-.028-.3.021-.87.586-1.877-.024-2.771.328-2.025-.64-4.18-.5-6.227-1.053a44.775,44.775,0,0,1-6.023-2,41.391,41.391,0,0,1-8.992-5.51c-1.773-1.376-3.237-3.07-4.863-4.6a2.277,2.277,0,0,1-.54-2.226c.56.621,1.074,1.235,1.632,1.807a42.591,42.591,0,0,0,9.3,7.3,34.369,34.369,0,0,0,11.25,4.108,31.288,31.288,0,0,0,7.054.462,32.37,32.37,0,0,0,7.607-1.3,36.983,36.983,0,0,0,10.42-5.032,47.659,47.659,0,0,0,7.357-6.421C4390.777,244.61,4391,244.289,4391.27,243.948Z" transform="translate(-4335.206 -218.122)" fill="#dae9fe"/>
  <path id="Path_6898" data-name="Path 6898" d="M4667.99,134.943c0,.708,0,1.226,0,1.745,0,.208-.1.295-.3.286-.242-.01-.588.07-.7-.057-.172-.192.118-.419.224-.621C4667.427,135.892,4667.667,135.5,4667.99,134.943Z" transform="translate(-4612.021 -126.994)" fill="#e56973"/>
  <path id="Path_6899" data-name="Path 6899" d="M4484.608,216.975a5.019,5.019,0,0,1,6.377.723,5.113,5.113,0,0,1,.5,6.416,5.221,5.221,0,0,1-7.59-3.948A4.118,4.118,0,0,1,4484.608,216.975Z" transform="translate(-4458.942 -194.887)" fill="#5d5360"/>
  <path id="Path_6900" data-name="Path 6900" d="M4476.7,221.158c-.15.442-.332.876-.446,1.327a5.065,5.065,0,0,0,6.895,5.844c.13-.059.271-.233.429-.033a5.057,5.057,0,0,1-9.186-3.378A4.807,4.807,0,0,1,4476.7,221.158Z" transform="translate(-4451.031 -199.07)" fill="#4b3f4e"/>
</svg>
