<svg xmlns="http://www.w3.org/2000/svg" width="122.126" height="137.246" viewBox="0 0 122.126 137.246">
  <g id="Group_4782" data-name="Group 4782" transform="translate(0 0)">
    <g id="Group_676" data-name="Group 676" transform="translate(0 15.077)">
      <g id="Group_675" data-name="Group 675" transform="translate(0 0)">
        <path id="Path_1890" data-name="Path 1890" d="M119.111,119.92H107.049c-1.313,0-3.015.2-3.015,1.508,0,11.559-3.886,23.489-12.062,31.662A43.711,43.711,0,0,1,30.155,91.273C38.33,83.1,48.75,79.211,60.309,79.211A3.614,3.614,0,0,0,63.325,76.2V64.134a3.614,3.614,0,0,0-3.015-3.015c-16.261,0-30.719,6.6-42.216,18.093S0,105.167,0,121.427a62.089,62.089,0,0,0,57.294,61.817c1.4.1,1.622,0,3.015,0a60.45,60.45,0,0,0,36.186-12.062c1.053-.785,2.29-1.962,1.508-3.015s-1.962-2.292-3.015-1.508c-22.146,16.5-54.315,15.038-73.879-4.523A56.59,56.59,0,0,1,58.8,65.641v9.046a47.4,47.4,0,0,0-31.662,13.57,47.976,47.976,0,0,0,67.848,67.848,47.4,47.4,0,0,0,13.57-31.662H117.6c-.49,11.41-5.159,22.612-12.062,31.662-.8,1.044-1.046,2.219,0,3.015s3.724,1.044,4.523,0c8.009-10.5,12.062-24.424,12.062-37.693,0-1.315-1.7-1.508-3.015-1.508Zm0,0" transform="translate(0 -61.118)" fill="#fa935b"/>
      </g>
      <path id="Path_1891" data-name="Path 1891" d="M420.527,482.066h0a1.979,1.979,0,0,0,0,3.015c.466.471.894,0,1.508,0s1.044.459,1.508,0h0a2.132,2.132,0,0,0-3.016-3.015Zm0,0" transform="translate(-319.509 -381.048)" fill="#fa935b"/>
      <path id="Path_1892" data-name="Path 1892" d="M174.466,170.339c-10.489,0-18.093,9.111-18.093,19.6v9.046a25.145,25.145,0,0,0-6.031,16.585c0,13.9,10.224,24.124,24.124,24.124S200.1,229.471,200.1,215.571a25.144,25.144,0,0,0-6.031-16.585V189.94a20.045,20.045,0,0,0-19.6-19.6Zm0,4.523c7.869,0,15.077,7.208,15.077,15.077v4.523a27.77,27.77,0,0,0-15.077-4.523,22.975,22.975,0,0,0-13.57,4.523V189.94c0-7.869,5.7-15.077,13.57-15.077Zm0,60.309c-11.276,0-19.6-8.324-19.6-19.6s8.324-21.108,19.6-21.108,21.108,9.832,21.108,21.108-9.832,19.6-21.108,19.6Zm0,0" transform="translate(-114.156 -144.708)" fill="#fa935b"/>
    </g>
    <g id="Group_677" data-name="Group 677" transform="translate(73.879)">
      <path id="Path_1893" data-name="Path 1893" d="M326.843,52.425a5.859,5.859,0,0,1-6.031-6.031V37.348a5.859,5.859,0,0,1,6.031-6.031c1.263-.012,12.062-2.172,12.062-10.554,0-4.192-2.761-7.539-9.046-7.539-5.115,0-9.046,3.934-9.046,6.031a6.031,6.031,0,1,1-12.062,0c0-10.225,9.749-19.6,21.108-19.6,16.765,0,22.616,13.606,22.616,24.124,0,8.684-4.9,14.726-13.57,18.093a38.653,38.653,0,0,1-6.031,1.508v3.015a5.859,5.859,0,0,1-6.031,6.031" transform="translate(-308.751 0.345)" fill="#fff"/>
      <path id="Path_1894" data-name="Path 1894" d="M373.344,244.089a6.031,6.031,0,1,1-6.031-6.031,5.859,5.859,0,0,1,6.031,6.031" transform="translate(-349.22 -180.765)" fill="#fff"/>
    </g>
  </g>
</svg>
