<svg xmlns="http://www.w3.org/2000/svg" width="84" height="70" viewBox="0 0 84 70">
  <g id="Group_5164" data-name="Group 5164" transform="translate(0.456 0)">
    <rect id="Rectangle_1796" data-name="Rectangle 1796" width="84" height="70" rx="14" transform="translate(-0.456 0)" fill="#fff"/>
    <path id="Path_4322" data-name="Path 4322" d="M227.885,365.76h-1.1a6.22,6.22,0,0,1-2.976-1.831,23.651,23.651,0,0,1-6.078-13.005,15.079,15.079,0,0,1,.2-5.671,10.113,10.113,0,0,1,4.88-6.767,7.414,7.414,0,0,1,5.531-.9,26.315,26.315,0,0,1,3.213,1.093,3.54,3.54,0,0,0,2.867.021c.633-.28,1.3-.487,1.953-.726a9.368,9.368,0,0,1,8.885,1.066,6.474,6.474,0,0,1,1.891,2.025,7.864,7.864,0,0,0-3.995,7.656,8.076,8.076,0,0,0,5,7.064c-.033.122-.047.194-.07.262a24.027,24.027,0,0,1-4.572,7.769,4.728,4.728,0,0,1-5.135,1.71,21.486,21.486,0,0,1-2.174-.751,6.79,6.79,0,0,0-4.618-.229C230.352,364.939,229.121,365.356,227.885,365.76Z" transform="translate(-188.969 -316.915)"/>
    <path id="Path_4323" data-name="Path 4323" d="M232.476,332.931a7.381,7.381,0,0,1-.693,4.009,8.518,8.518,0,0,1-3.968,4.145,5.444,5.444,0,0,1-2.813.464C224.5,337.606,227.937,333.331,232.476,332.931Z" transform="translate(-181.116 -321.576)"/>
  </g>
</svg>
