<?xml version="1.0" encoding="utf-8"?>
<!-- Generator: Adobe Illustrator 16.0.0, SVG Export Plug-In . SVG Version: 6.00 Build 0)  -->
<!DOCTYPE svg PUBLIC "-//W3C//DTD SVG 1.1//EN" "http://www.w3.org/Graphics/SVG/1.1/DTD/svg11.dtd">
<svg version="1.1" id="Layer_1" xmlns="http://www.w3.org/2000/svg" xmlns:xlink="http://www.w3.org/1999/xlink" x="0px" y="0px"
	 width="141.732px" height="141.732px" viewBox="-38.866 -38.866 141.732 141.732"
	 enable-background="new -38.866 -38.866 141.732 141.732" xml:space="preserve">
<g>
	<path fill-rule="evenodd" clip-rule="evenodd" d="M16.698,31.344c-1.005-0.613-2.058-1.01-2.787-1.735
		C-1.137,14.658-16.135-0.345-31.181-15.299c-3.364-3.345-5.016-7.144-3.671-11.872c2.177-7.654,11.204-10.661,17.529-5.843
		c0.97,0.739,1.83,1.632,2.696,2.5C0.114-15.75,14.853-0.983,29.566,13.807c0.731,0.735,1.228,1.703,1.971,2.756
		c1.306-1.239,2.065-1.926,2.788-2.649C49.309-1.103,64.305-16.107,79.257-31.155c3.339-3.361,7.122-5.048,11.858-3.719
		c7.676,2.153,10.72,11.14,5.929,17.496c-0.734,0.974-1.624,1.838-2.491,2.704C79.788,0.065,65.021,14.803,50.231,29.517
		c-0.738,0.733-1.69,1.25-2.753,2.021c1.192,1.263,1.873,2.022,2.595,2.742C65.15,49.326,80.22,64.382,95.323,79.402
		c3.143,3.126,4.754,6.732,3.722,11.155c-2.051,8.781-12.404,11.713-18.998,5.301C73.198,89.197,66.542,82.34,59.78,75.588
		c-9.177-9.163-18.372-18.307-27.789-27.688c-0.744,0.706-1.498,1.386-2.213,2.103C14.731,65.078-0.327,80.145-15.345,95.251
		c-3.122,3.141-6.709,4.802-11.134,3.798c-4.266-0.968-7.134-3.631-8.375-7.864c-1.247-4.257-0.141-8.002,2.929-11.1
		c7.033-7.1,14.135-14.131,21.209-21.188C-2.4,50.601,5.918,42.308,14.23,34.007C14.836,33.401,15.397,32.752,16.698,31.344z"/>
</g>
</svg>
