<svg xmlns="http://www.w3.org/2000/svg" width="18.645" height="17.185" viewBox="0 0 18.645 17.185">
  <g id="Group_5160" data-name="Group 5160" transform="translate(0 0)">
    <path id="Path_4279" data-name="Path 4279" d="M539.919,516.941a5.79,5.79,0,0,1,.476,1.743c.005.04-.012.087.037.113v.218a2.083,2.083,0,0,0,0,.619v.328a2.321,2.321,0,0,0-.131.611,5.872,5.872,0,0,1-4.714,4.618,5.2,5.2,0,0,1-2.095.025,2.119,2.119,0,0,0-.235-.017,3.323,3.323,0,0,1-1.242-.4c.011-.089.094-.119.146-.172q.431-.437.867-.868c.054-.054.1-.122.186-.134a5.221,5.221,0,0,0,1.2.167,4.119,4.119,0,0,0,1.463-.227,4.392,4.392,0,0,0,2.991-3.571,4.107,4.107,0,0,0-.112-1.815.387.387,0,0,1-.025-.142c.353-.321.678-.669,1.02-1C539.8,516.987,539.838,516.922,539.919,516.941Z" transform="translate(-521.787 -508.125)" fill="#f3b64a"/>
    <path id="Path_4280" data-name="Path 4280" d="M715.607,563.095a1.109,1.109,0,0,1,0-.619Z" transform="translate(-696.961 -551.586)" fill="#f4be5e"/>
    <path id="Path_4281" data-name="Path 4281" d="M308.985,408.81a.793.793,0,0,1-.606-.731c-.012-.625-.019-1.25,0-1.874a.874.874,0,0,1,.615-.783c-.114,0-.228,0-.342,0a.844.844,0,0,1-.858-.852q-.012-.864,0-1.729a.838.838,0,0,1,.847-.843c.433-.007.867,0,1.345,0a2.869,2.869,0,0,1-.288-.156.819.819,0,0,1-.371-.675c-.008-.588-.009-1.177,0-1.765a.815.815,0,0,1,.608-.791.23.23,0,0,1,.193-.082c.6,0,1.209-.006,1.813,0a.208.208,0,0,1,.087.021c.077.086-.019.1-.06.126a1.175,1.175,0,0,0-.274.208.688.688,0,0,0-.206.49c0,.418-.008.836,0,1.254a.768.768,0,0,0,.765.768c1.278.01,2.556,0,3.835,0a.563.563,0,0,0,.32-.111,3.582,3.582,0,0,1,.583-.331c.21-.114.439-.184.657-.28a6.1,6.1,0,0,1,.931-.252,3.374,3.374,0,0,1,.7-.08c.121.007.243,0,.364.006.059,0,.149-.008.155.058s-.084.068-.14.075a5.456,5.456,0,0,0-1.232.312,5.9,5.9,0,0,0-3.525,7.467c.051.149.108.3.161.445.021.059.061.129-.031.172-.43.035-.86.007-1.289.016-.139,0-.279,0-.418,0q-1.34,0-2.679,0c-.46,0-.921.005-1.381,0-.085,0-.142-.1-.236-.064A.067.067,0,0,1,308.985,408.81Z" transform="translate(-307.79 -395.111)" fill="#dc9e3a"/>
    <path id="Path_4282" data-name="Path 4282" d="M455.911,409.481a6.231,6.231,0,0,1-.513-1.84,5.809,5.809,0,0,1,.2-2.348,5.871,5.871,0,0,1,1.355-2.372,6.069,6.069,0,0,1,1.6-1.228,6.287,6.287,0,0,1,2.048-.658h-.465c.042-.115.144-.085.227-.091.211-.015.223-.021.224-.235,0-.416,0-.832,0-1.249,0-.254.013-.265.266-.261a2.11,2.11,0,0,1,.45.014.857.857,0,0,1,.789.932c0,.248.009.5,0,.744-.006.135.036.189.172.209a5.869,5.869,0,0,1,3.551,1.979c.043.05.013.093-.02.127-.324.327-.637.666-.982.972a4.556,4.556,0,0,1-.492-.479,4.358,4.358,0,0,0-2.794-1.16,4.437,4.437,0,0,0-4.61,3.783,4.354,4.354,0,0,0,1.029,3.554c.168.2.382.352.534.565.013.092-.055.142-.108.2-.3.3-.6.6-.891.9a.941.941,0,0,1-.419-.328,5.819,5.819,0,0,1-1.114-1.555.569.569,0,0,1-.049-.117A.062.062,0,0,1,455.911,409.481Z" transform="translate(-448.626 -395.751)" fill="#f3b64a"/>
    <path id="Path_4283" data-name="Path 4283" d="M315.109,624.985a8.3,8.3,0,0,0,.781,1.21,6.752,6.752,0,0,0,.783.794c.152.029.239.157.358.236a8,8,0,0,0,.913.551.215.215,0,0,1,.112.087,5.4,5.4,0,0,0,1.053.362.44.44,0,0,1,.184.068.847.847,0,0,1-.452.112q-5.032,0-10.063-.006a.87.87,0,0,1-.952-.949c0-.546-.005-1.092,0-1.638a.826.826,0,0,1,.757-.83,10.634,10.634,0,0,1,1.115-.014c.259,0,.519,0,.778,0,.025,0,.05.009.043.039a.12.12,0,0,1-.076.074.909.909,0,0,0-.491.921,6.729,6.729,0,0,0,.028,1.089.8.8,0,0,0,.839.719c1.23,0,2.46,0,3.691,0,.523,0,1.046,0,1.546,0a6.017,6.017,0,0,1-2.592-2.506c-.053-.1-.138-.193-.073-.319a3.813,3.813,0,0,1,.685-.015A9.557,9.557,0,0,1,315.109,624.985Z" transform="translate(-307.823 -611.219)" fill="#dc9e3a"/>
    <path id="Path_4284" data-name="Path 4284" d="M308.546,327.622a.818.818,0,0,1-.754-.791q-.019-.907,0-1.814a.818.818,0,0,1,.753-.791c.638-.025,1.277-.006,1.915-.01.065.087-.028.106-.067.127a.859.859,0,0,0-.443.868c.013.327,0,.654,0,.981a.8.8,0,0,0,.868.858c1.248,0,2.5,0,3.744,0,.315,0,.63,0,.945,0,.206-.006.411,0,.616,0,.313-.008.627-.005.94,0q.6-.007,1.2,0c.187.008.375.011.562,0a.8.8,0,0,0,.741-.466c.026-.055.033-.135.123-.137a1.146,1.146,0,0,1-.178.864.758.758,0,0,1-.4.269c-.062.092-.157.085-.251.085-.624,0-1.248,0-1.872,0q-2.4,0-4.8,0a2.324,2.324,0,0,0-.523-.034q-1.463,0-2.926,0A.511.511,0,0,1,308.546,327.622Z" transform="translate(-307.783 -324.192)" fill="#dc9e3a"/>
    <path id="Path_4285" data-name="Path 4285" d="M377.79,326.66h-1.236c-.117-.071-.093-.189-.093-.294,0-.7,0-1.405,0-2.108,0-.042,0-.085,0-.127,0-.283,0-.286-.28-.288-.188,0-.375.006-.563,0-.44.02-.427-.092-.426.433,0,.641,0,1.282,0,1.924,0,.276,0,.276.272.3a.286.286,0,0,1,.138.038.086.086,0,0,1,.005.124h-.617a.4.4,0,0,1-.059-.3c0-.752,0-1.5,0-2.255,0-.257-.008-.265-.266-.265h-4.219a.731.731,0,0,1-.305-.03.052.052,0,0,1-.03-.058c.073,0,.145-.007.218-.007q3.94,0,7.879,0a.5.5,0,0,1,.284.032c-.115.1-.254.057-.383.061-.247.008-.257.012-.258.256,0,.756,0,1.511,0,2.267A.4.4,0,0,1,377.79,326.66Z" transform="translate(-367.266 -323.745)" fill="#f8c562"/>
    <path id="Path_4286" data-name="Path 4286" d="M538.463,327.424c0-.9,0-1.79,0-2.685,0-.153.045-.2.195-.192.169.011.338,0,.508,0a.843.843,0,0,1,.707.9,9.7,9.7,0,0,1-.023,1.327,1.225,1.225,0,0,1-.319.472,1.022,1.022,0,0,1-.648.184C538.741,327.421,538.6,327.425,538.463,327.424Z" transform="translate(-527.938 -324.51)" fill="#f3b64a"/>
    <path id="Path_4287" data-name="Path 4287" d="M662.945,485.414c0-.077.061-.114.107-.16.255-.257.512-.512.767-.769.045-.046.108-.082.107-.16a4.8,4.8,0,0,1,.944,1.491q-.5.492-1,.983c-.042.041-.074.122-.16.07-.1-.076-.106-.2-.148-.3a5,5,0,0,0-.543-.978C662.983,485.536,662.921,485.492,662.945,485.414Z" transform="translate(-646.739 -477)" fill="#f8c562"/>
    <path id="Path_4288" data-name="Path 4288" d="M543.21,398.187a.527.527,0,0,0,.225-.034c.047.058.112.033.17.033.327,0,.654,0,.981,0a.282.282,0,0,1,.193.03c-.158,0-.316.013-.473,0s-.192.052-.189.2c.008.467,0,.934.007,1.4,0,.155-.049.2-.2.192-.1-.005-.218-.04-.317.031a5.2,5.2,0,0,0-.728.074.207.207,0,0,1-.056-.167q-.008-.782,0-1.564a.3.3,0,0,1,.031-.141C542.963,398.152,543.1,398.245,543.21,398.187Z" transform="translate(-532.101 -394.759)" fill="#f8c562"/>
    <path id="Path_4289" data-name="Path 4289" d="M324.508,398.893l3.646,0a.035.035,0,0,1-.009.051.11.11,0,0,1-.137-.015c-.617,0-1.233,0-1.85,0a2.279,2.279,0,0,0-.267.032c-.044-.061-.11-.035-.166-.035-.342,0-.683,0-1.025,0A.307.307,0,0,1,324.508,398.893Z" transform="translate(-323.745 -395.462)" fill="#e4b569"/>
    <path id="Path_4290" data-name="Path 4290" d="M326.443,623.93l-1.934,0c.136-.079.3.025.432-.064l.047-.008a.217.217,0,0,1,.144.036l1.456,0a.035.035,0,0,1-.009.051A.111.111,0,0,1,326.443,623.93Z" transform="translate(-323.746 -610.163)" fill="#e4b569"/>
    <path id="Path_4291" data-name="Path 4291" d="M326.584,323.925c0,.01,0,.019,0,.029a.1.1,0,0,1-.147,0l-1.934-.008a.568.568,0,0,1,.121-.027Q325.6,323.921,326.584,323.925Z" transform="translate(-323.74 -323.914)" fill="#f8c562"/>
    <path id="Path_4292" data-name="Path 4292" d="M495.419,472.708a4.4,4.4,0,0,1,.765,1.456,4.069,4.069,0,0,1,.214,1.459,4.539,4.539,0,0,1-2.342,3.836,4.124,4.124,0,0,1-1.557.5,4.316,4.316,0,0,1-1.888-.154.161.161,0,0,1-.156.01,4.754,4.754,0,0,1-1.348-.724.2.2,0,0,1-.059-.089c-.186-.2-.392-.371-.568-.58a4.581,4.581,0,0,1-.961-1.906,4.526,4.526,0,0,1-.11-1.131,4.314,4.314,0,0,1,.887-2.559,4.358,4.358,0,0,1,2.824-1.749,4.463,4.463,0,0,1,2.681.347,4.958,4.958,0,0,1,1.313.923A4.343,4.343,0,0,1,495.419,472.708Z" transform="translate(-479.214 -464.294)" fill="#dfa23f"/>
    <path id="Path_4293" data-name="Path 4293" d="M502.782,646.291a5.337,5.337,0,0,0,1.338.74c.074.025.15.042.225.062-.342.383-.721.731-1.082,1.1-.019.019-.054.022-.082.032a5.113,5.113,0,0,1-1.384-.874c0-.084.071-.123.121-.174Q502.349,646.731,502.782,646.291Z" transform="translate(-492.948 -631.578)" fill="#f8c562"/>
    <path id="Path_4294" data-name="Path 4294" d="M388.29,399.26h.146a.247.247,0,0,1,.142-.017h4.534a.279.279,0,0,1,.125.013.241.241,0,0,1,.062.2c0,.688,0,1.376,0,2.064a1.068,1.068,0,0,1-.022.143,2.3,2.3,0,0,0-.423.238,1.161,1.161,0,0,1-.844.239c-1.158-.01-2.315,0-3.473,0a.833.833,0,0,1-.868-.867q0-.573,0-1.146a.819.819,0,0,1,.558-.826A.447.447,0,0,0,388.29,399.26Z" transform="translate(-384.027 -395.796)" fill="#f3b64a"/>
    <path id="Path_4295" data-name="Path 4295" d="M359.81,473.889a5.968,5.968,0,0,1-.648,0,.584.584,0,0,0-.548.24,6.539,6.539,0,0,0-1,1.44,4.934,4.934,0,0,0-.392,1.032.194.194,0,0,1-.227.173c-.692-.007-1.383,0-2.075,0a.809.809,0,0,1-.784-.794q0-.646,0-1.292a.79.79,0,0,1,.515-.723,1.583,1.583,0,0,1,.566-.1c1.456,0,2.912,0,4.368,0A.367.367,0,0,1,359.81,473.889Z" transform="translate(-352.02 -467.005)" fill="#f3b64a"/>
    <path id="Path_4296" data-name="Path 4296" d="M354.831,549.713H357.4c.224,0,.227,0,.2.229a6.05,6.05,0,0,0,.2,2.311c.1.37.1.371-.282.371-.813,0-1.626,0-2.439,0a.874.874,0,0,1-.909-.632.58.58,0,0,1-.026-.178c0-.431,0-.861,0-1.292a.781.781,0,0,1,.545-.737C354.71,549.714,354.788,549.748,354.831,549.713Z" transform="translate(-352.023 -539.405)" fill="#f3b64a"/>
    <path id="Path_4297" data-name="Path 4297" d="M523.836,399.208q0,.946,0,1.893a8.9,8.9,0,0,0-.912.253.308.308,0,0,1-.057-.239q0-.84,0-1.68a.344.344,0,0,1,.047-.225A4.685,4.685,0,0,1,523.836,399.208Z" transform="translate(-513.055 -395.744)" fill="#f3b64a"/>
    <path id="Path_4298" data-name="Path 4298" d="M510.387,399.241q0,1.073,0,2.146l-.618.257c-.059-.054-.035-.125-.035-.188q0-1.107,0-2.214l.029-.016A4.032,4.032,0,0,1,510.387,399.241Z" transform="translate(-500.517 -395.778)" fill="#f8c561"/>
    <path id="Path_4299" data-name="Path 4299" d="M370.108,624.772c0-.011,0-.023,0-.035H372.8a.043.043,0,0,1-.02.06.474.474,0,0,1-.232.034q-1.092,0-2.184,0A.333.333,0,0,1,370.108,624.772Z" transform="translate(-367.265 -611.006)" fill="#f1b64f"/>
    <path id="Path_4300" data-name="Path 4300" d="M429.118,624.76c0-.012,0-.024,0-.036h1.748c0,.012,0,.024,0,.036-.508,0-1.016,0-1.524,0-.063,0-.135-.024-.188.036C429.123,624.8,429.109,624.793,429.118,624.76Z" transform="translate(-423.581 -610.994)" fill="#e2a541"/>
    <path id="Path_4301" data-name="Path 4301" d="M340.468,549.718l-.146.072c-.054-.059-.125-.034-.188-.035-.348,0-.7,0-1.045-.037Z" transform="translate(-337.661 -539.41)" fill="#e1a94e"/>
    <path id="Path_4302" data-name="Path 4302" d="M335.168,622.8c-.05,0-.106.018-.144-.036C335.105,622.642,335.126,622.763,335.168,622.8Z" transform="translate(-333.781 -609.073)" fill="#dc9e3a"/>
    <path id="Path_4303" data-name="Path 4303" d="M356.514,625.518l.036.037a4.534,4.534,0,0,0,.746,1.193,5.759,5.759,0,0,0,1.45,1.274c.2.124.406.232.653.372h-5.29c-.668,0-.951-.211-1.038-.873a5.768,5.768,0,0,1,0-1.214.9.9,0,0,1,.6-.788h2.841Z" transform="translate(-350.977 -611.752)" fill="#f3b64a"/>
    <path id="Path_4304" data-name="Path 4304" d="M354.583,324.564l.147,0c1.559,0,3.119,0,4.678,0,.159,0,.206.04.2.2-.008.892,0,1.784,0,2.676q-2.381,0-4.763,0a.841.841,0,0,1-.846-.857c0-.345.017-.692,0-1.036A.922.922,0,0,1,354.583,324.564Z" transform="translate(-351.886 -324.521)" fill="#f3b64a"/>
    <path id="Path_4305" data-name="Path 4305" d="M489.4,324.534c.23,0,.461.01.69,0,.171-.011.227.038.225.217-.01.811,0,1.622,0,2.432a.394.394,0,0,0,.036.229H489.4c0-.036,0-.072,0-.108a.332.332,0,0,1-.058-.241q0-1.143,0-2.286A.332.332,0,0,1,489.4,324.534Z" transform="translate(-481.059 -324.493)" fill="#f3b64a"/>
    <path id="Path_4306" data-name="Path 4306" d="M409.24,398.916h-4.806c0-.012,0-.023,0-.035h4.807c.012.008.016.016.012.024s-.008.012-.012.012Z" transform="translate(-400.024 -395.453)" fill="#e4b058"/>
    <path id="Path_4307" data-name="Path 4307" d="M509.8,398.916c0-.012,0-.024,0-.036H511.7c-.1.07-.219.019-.328.035H509.8Z" transform="translate(-500.588 -395.453)" fill="#e4b058"/>
    <path id="Path_4308" data-name="Path 4308" d="M480.661,324.526q0,1.383,0,2.767c-.473,0-.473,0-.473-.464,0-.7.005-1.4,0-2.105,0-.164.047-.218.205-.2A2.284,2.284,0,0,0,480.661,324.526Z" transform="translate(-472.319 -324.485)" fill="#f8c562"/>
    <path id="Path_4309" data-name="Path 4309" d="M524.819,503.11a3.777,3.777,0,0,1,1.325,3.86,3.717,3.717,0,0,1-3.017,2.993,3.758,3.758,0,0,1-3.844-1.354c-.018-.088.052-.129.1-.178.39-.393.781-.785,1.176-1.173.052-.051.093-.156.2-.091.048.108.018.227.055.339a1.4,1.4,0,0,0,.944.933c.184.06.315.132.341.341a.2.2,0,0,0,.222.174.2.2,0,0,0,.217-.2c.006-.192.113-.257.279-.3a1.385,1.385,0,0,0,.706-.426,1.209,1.209,0,0,0-.315-1.883,1.446,1.446,0,0,0-.468-.194.209.209,0,0,1-.193-.24,2.524,2.524,0,0,1,.017-.435,4.468,4.468,0,0,1,.562-.583.091.091,0,0,1,.1-.024.4.4,0,0,1,.13.25c.011.041.012.084.021.125.04.169.136.251.271.231a.258.258,0,0,0,.2-.315,1.2,1.2,0,0,0-.186-.542.252.252,0,0,1-.071-.162.312.312,0,0,1,.1-.144c.3-.3.6-.607.91-.908C524.665,503.151,524.713,503.061,524.819,503.11Z" transform="translate(-509.633 -494.914)" fill="#fed387"/>
    <path id="Path_4310" data-name="Path 4310" d="M500.16,488.373a1.594,1.594,0,0,1-.1-.508,3.945,3.945,0,0,1,3.083-4.275,3.351,3.351,0,0,1,1.644.015c.016.1-.063.136-.115.189-.26.265-.525.525-.785.79a.325.325,0,0,0-.15.274c0,.052,0,.112-.065.136-.073-.044-.055-.1-.037-.157a2.57,2.57,0,0,0-.24.25c-.159.118-.354.176-.505.31a1.765,1.765,0,0,0-.439.631c-.73.708-1.439,1.436-2.162,2.151C500.23,488.235,500.218,488.318,500.16,488.373Z" transform="translate(-491.275 -476.207)" fill="#f8c562"/>
    <path id="Path_4311" data-name="Path 4311" d="M502.574,540.909a.243.243,0,0,1,.069-.2q1.081-1.074,2.158-2.152a.158.158,0,0,1,.031-.019c.012.013.027.029.024.046a1.679,1.679,0,0,0,.176.974c0,.068-.048.108-.09.151q-.953.956-1.909,1.908c-.045.044-.084.109-.165.088A3.206,3.206,0,0,1,502.574,540.909Z" transform="translate(-493.689 -528.743)" fill="#fed387"/>
    <path id="Path_4312" data-name="Path 4312" d="M509.018,563.652c.17-.163.341-.325.509-.49q.82-.809,1.639-1.621a.054.054,0,0,1,.066.011,2.346,2.346,0,0,0,.531.431.1.1,0,0,1,.04.058c0,.09-.068.135-.12.19-.16.168-.333.324-.487.5-.092.054-.16.139-.25.2q-.751.706-1.457,1.457A3.11,3.11,0,0,1,509.018,563.652Z" transform="translate(-499.838 -550.688)" fill="#f8c562"/>
    <path id="Path_4313" data-name="Path 4313" d="M600.138,492.863c-.084,0-.122.07-.173.119-.348.333-.668.694-1.032,1.01-.006,0-.014.006-.017,0-.229-.17-.479-.31-.717-.467q.575-.6,1.171-1.17A4.329,4.329,0,0,1,600.138,492.863Z" transform="translate(-584.951 -484.668)" fill="#f8c562"/>
    <path id="Path_4314" data-name="Path 4314" d="M585.872,486.194a.137.137,0,0,1-.055.108l-.985.985a.176.176,0,0,1-.123.068c-.174.044-.313,0-.319-.124-.011-.231-.149-.323-.334-.389q.39-.4.779-.8c.046-.047.088-.1.131-.147A3.216,3.216,0,0,1,585.872,486.194Z" transform="translate(-571.454 -478.502)" fill="#fed387"/>
    <path id="Path_4315" data-name="Path 4315" d="M552.672,506.566c.273,0,.351.07.363.327.01.21.184.14.291.186a2.1,2.1,0,0,1,.725.472,1.653,1.653,0,0,1,.284.677.366.366,0,0,1-.1.35.269.269,0,0,1-.29.045.3.3,0,0,1-.18-.274.857.857,0,0,0-.116-.359c-.131-.053-.216-.174-.345-.233-.194-.089-.219-.079-.221.13,0,.158,0,.315,0,.473a.415.415,0,0,1-.045.211c0,.133.009.268-.005.4-.018.166.051.219.209.261a1.424,1.424,0,0,1,1,.842,1.289,1.289,0,0,1-.737,1.658.806.806,0,0,1-.186.072c-.175.032-.317.065-.3.308.009.118-.111.207-.253.209s-.26-.058-.271-.189c-.019-.224-.15-.282-.335-.344a1.42,1.42,0,0,1-.957-.964,1.443,1.443,0,0,1-.03-.36.366.366,0,0,1,.219-.219.259.259,0,0,1,.358.167,1.45,1.45,0,0,1,.065.245.761.761,0,0,0,.424.494c.105.055.158.025.158-.1q0-.572,0-1.145a.18.18,0,0,0-.148-.2.431.431,0,0,1-.238-.123,2.269,2.269,0,0,1-.62-.507,1.345,1.345,0,0,1-.184-1.055,1.616,1.616,0,0,1,.949-.944.392.392,0,0,1,.292-.075.111.111,0,0,0,.034-.113A.3.3,0,0,1,552.672,506.566Z" transform="translate(-540.07 -498.227)" fill="#dfa23f"/>
    <path id="Path_4316" data-name="Path 4316" d="M592,530.743c0-.271,0-.541,0-.812,0-.132.048-.163.164-.108a.906.906,0,0,1,.453.339Z" transform="translate(-579.035 -520.398)" fill="#f8c561"/>
    <path id="Path_4317" data-name="Path 4317" d="M573.15,511.327a.637.637,0,0,1-.292.075,2.051,2.051,0,0,1,.292-.308Z" transform="translate(-560.766 -502.548)" fill="#fbce7f"/>
    <path id="Path_4318" data-name="Path 4318" d="M556.714,572.785c.115.034.23.07.346.1a.112.112,0,0,1,.094.13q0,.663,0,1.327c0,.117-.043.135-.144.094a.8.8,0,0,1-.556-.633c-.043-.277-.123-.352-.36-.358Z" transform="translate(-544.767 -561.425)" fill="#fed387"/>
    <path id="Path_4319" data-name="Path 4319" d="M592.036,577.772c0-.206,0-.412,0-.617,0-.053-.009-.113.082-.1a.785.785,0,0,1,.6.972.867.867,0,0,1-.566.5c-.107.039-.122-.031-.121-.116C592.037,578.2,592.036,577.984,592.036,577.772Z" transform="translate(-579.069 -565.497)" fill="#fed387"/>
    <path id="Path_4320" data-name="Path 4320" d="M566.1,538.363c0,.309-.008.618,0,.926.006.166-.058.171-.177.114a.729.729,0,0,1-.447-.419.069.069,0,0,1,.014-.083,6.392,6.392,0,0,1,.524-.524A.068.068,0,0,1,566.1,538.363Z" transform="translate(-553.719 -528.564)" fill="#f8c562"/>
    <path id="Path_4321" data-name="Path 4321" d="M564.488,530.331a5.8,5.8,0,0,0-.62.621.565.565,0,0,1,.009-.611.856.856,0,0,1,.481-.387c.095-.034.137-.017.133.088S564.489,530.235,564.488,530.331Z" transform="translate(-552.105 -520.533)" fill="#fed387"/>
  </g>
</svg>
