<?xml version="1.0" encoding="utf-8"?>
<!-- Generator: Adobe Illustrator 16.0.0, SVG Export Plug-In . SVG Version: 6.00 Build 0)  -->
<!DOCTYPE svg PUBLIC "-//W3C//DTD SVG 1.1//EN" "http://www.w3.org/Graphics/SVG/1.1/DTD/svg11.dtd">
<svg version="1.1" id="Layer_1" xmlns="http://www.w3.org/2000/svg" xmlns:xlink="http://www.w3.org/1999/xlink" x="0px" y="0px"
	 width="141.732px" height="141.732px" viewBox="-38.866 -38.866 141.732 141.732"
	 enable-background="new -38.866 -38.866 141.732 141.732" xml:space="preserve">
<g id="Group_12981" transform="translate(-1594.552 -122.727)">
	<g id="Group_12250" transform="translate(1239.552 -42.273)">
		<g id="Group_12249" transform="translate(340.979 12.717)">
			<path id="Path_4463" d="M115.409,158.116c-0.157,0.416-0.314,0.826-0.46,1.249c-1.507,4.527-6.399,6.98-10.925,5.476
				c-3.461-1.154-5.835-4.357-5.914-8.006c-0.052-4.031,0-8.059,0-12.371c-0.549,0.518-0.931,0.852-1.271,1.209
				c-9.324,9.312-18.637,18.623-27.947,27.941c-3.208,3.55-8.682,3.836-12.237,0.629c-3.552-3.204-3.836-8.679-0.628-12.232
				c0.065-0.075,0.132-0.151,0.202-0.223c1.738-1.833,3.562-3.584,5.371-5.371c7.686-7.688,15.377-15.374,23.067-23.059
				c0.343-0.297,0.696-0.57,1.076-0.819l-0.171-0.322c-0.38,0-0.748-0.082-1.12-0.082c-3.522,0-7.037,0-10.55,0
				c-4.788,0.135-8.774-3.636-8.905-8.415c-0.131-4.78,3.632-8.768,8.417-8.902c0.16-0.002,0.316-0.002,0.488,0
				c10.739,0,21.479,0,32.221,0c4.336-0.35,8.249,2.571,9.148,6.823c0.059,0.164,0.129,0.328,0.209,0.486L115.409,158.116z"/>
			<path id="Path_4464" d="M-15.838,253.402l-1.396-0.466c-3.466-1.113-5.833-4.314-5.889-7.953
				c-0.039-11.232-0.059-22.471,0-33.698c0.188-4.767,4.207-8.479,8.978-8.291c4.505,0.174,8.114,3.794,8.292,8.291
				c0.075,3.606,0,7.22,0,10.826v1.594c0.563-0.524,0.954-0.859,1.344-1.219c9.313-9.313,18.628-18.63,27.94-27.944
				c3.232-3.518,8.708-3.749,12.229-0.518c3.285,3.018,3.737,8.037,1.046,11.595c-0.452,0.564-0.937,1.104-1.458,1.601
				L7.715,234.787c-0.341,0.34-0.669,0.668-1.2,1.266H12.8c1.893,0,3.787,0,5.679,0c4.783-0.085,8.731,3.719,8.816,8.504
				c0.073,4.021-2.629,7.563-6.524,8.551c-0.206,0.073-0.407,0.157-0.6,0.263L-15.838,253.402z"/>
		</g>
	</g>
</g>
</svg>
