<?xml version="1.0" encoding="utf-8"?>
<!-- Generator: Adobe Illustrator 16.0.0, SVG Export Plug-In . SVG Version: 6.00 Build 0)  -->
<!DOCTYPE svg PUBLIC "-//W3C//DTD SVG 1.1//EN" "http://www.w3.org/Graphics/SVG/1.1/DTD/svg11.dtd">
<svg version="1.1" id="Layer_1" xmlns="http://www.w3.org/2000/svg" xmlns:xlink="http://www.w3.org/1999/xlink" x="0px" y="0px"
	 width="84px" height="70px" viewBox="0 0 84 70" enable-background="new 0 0 84 70" xml:space="preserve">
<path id="Rectangle_138" fill="#FFFFFF" d="M14,0h56c7.732,0,14,6.268,14,14v42c0,7.732-6.268,14-14,14H14C6.268,70,0,63.732,0,56
	V14C0,6.268,6.268,0,14,0z"/>
<path id="Path_1267" fill="#4267B2" d="M56.506,18.694H27.495c-0.994,0-1.8,0.806-1.8,1.8l0,0v29.012c0,0.994,0.806,1.801,1.8,1.801
	h29.011c0.994,0,1.799-0.807,1.799-1.801l0,0l0,0V20.494C58.305,19.5,57.5,18.694,56.506,18.694L56.506,18.694z"/>
<path id="Path_1268" fill="#FFFFFF" d="M44.15,48.843v-12.61h4.251l0.637-4.936H44.15v-3.146c0-1.426,0.399-2.399,2.439-2.399h2.591
	v-4.4c-1.262-0.134-2.53-0.198-3.8-0.194c-3.758,0-6.33,2.293-6.33,6.507v3.633h-4.231v4.936h4.235v12.61H44.15z"/>
</svg>
