<?xml version="1.0" encoding="utf-8"?>
<!-- Generator: Adobe Illustrator 16.0.0, SVG Export Plug-In . SVG Version: 6.00 Build 0)  -->
<!DOCTYPE svg PUBLIC "-//W3C//DTD SVG 1.1//EN" "http://www.w3.org/Graphics/SVG/1.1/DTD/svg11.dtd">
<svg version="1.1" id="Layer_1" xmlns="http://www.w3.org/2000/svg" xmlns:xlink="http://www.w3.org/1999/xlink" x="0px" y="0px"
	 width="141.73px" height="141.73px" viewBox="0 0 141.73 141.73" enable-background="new 0 0 141.73 141.73" xml:space="preserve">
<rect fill="#E6E7E8" width="141.407" height="141.73"/>
<g>
	<path fill-rule="evenodd" clip-rule="evenodd" fill="#444444" d="M56.426,94.873c-2.867,0.028-5.724,0.058-8.531-0.727
		c-9.585-2.683-15.777-11.811-14.691-21.713c1.02-9.298,8.332-16.695,17.619-17.793c0.517-0.061,0.614-0.327,0.74-0.732
		c2.146-6.9,6.644-11.567,13.53-13.718c10.714-3.347,22.063,2.852,25.214,13.656c0.17,0.583,0.417,0.754,0.991,0.842
		c9.141,1.407,15.87,8.272,17.168,17.479c1.471,10.413-6.107,20.775-16.5,22.344c-2.657,0.402-5.396,0.266-8.099,0.357
		c-0.947,0.032-1.895,0.025-2.841-0.001c-1.417-0.04-2.502-1.154-2.498-2.528c0.005-1.381,1.085-2.494,2.513-2.507
		c2.471-0.027,4.943-0.003,7.416-0.011c7.547-0.023,13.627-5.058,15.078-12.479c1.633-8.344-4.485-16.701-12.945-17.679
		c-0.548-0.063-1.1-0.118-1.65-0.133c-1.857-0.049-2.78-0.826-3.116-2.676c-0.7-3.84-2.593-6.965-5.673-9.347
		c-8.881-6.868-21.999-1.866-24.06,9.161c-0.414,2.215-1.117,2.806-3.401,2.86c-7.474,0.176-13.952,6.285-14.551,13.72
		c-0.629,7.807,4.56,14.855,12.049,16.234c1.613,0.297,3.292,0.282,4.943,0.328c1.839,0.054,3.681,0.006,5.522,0.014
		c1.593,0.008,2.732,1.083,2.72,2.546c-0.012,1.431-1.139,2.488-2.686,2.5C59.267,94.881,57.846,94.873,56.426,94.873z"/>
	<path fill-rule="evenodd" clip-rule="evenodd" fill="#444444" d="M73.477,68.351c0,0.28,0,0.561,0,0.84
		c0,10.074,0.002,20.147-0.003,30.219c0,0.392-0.007,0.798-0.105,1.17c-0.318,1.21-1.462,1.981-2.678,1.855
		c-1.207-0.127-2.174-1.136-2.256-2.364c-0.018-0.263-0.008-0.526-0.008-0.788c0-10.021,0-20.042,0-30.063c0-0.286,0-0.571,0-1.051
		c-0.313,0.299-0.511,0.483-0.703,0.674c-2.493,2.492-4.985,4.983-7.477,7.476c-0.751,0.75-1.634,1.04-2.664,0.708
		c-0.962-0.31-1.528-0.995-1.706-1.982c-0.15-0.835,0.093-1.573,0.685-2.168c4.197-4.209,8.396-8.416,12.61-12.606
		c1.03-1.024,2.509-1.04,3.542-0.017c4.22,4.187,8.421,8.391,12.61,12.609c1.017,1.024,0.986,2.565,0.016,3.548
		c-0.993,1.005-2.549,1.018-3.605-0.027c-2.506-2.478-4.99-4.978-7.479-7.474c-0.203-0.204-0.367-0.446-0.551-0.671
		C73.629,68.277,73.554,68.314,73.477,68.351z"/>
</g>
</svg>
