<svg xmlns="http://www.w3.org/2000/svg" width="84" height="70" viewBox="0 0 84 70">
  <g id="Group_12230" data-name="Group 12230" transform="translate(0.456 0)">
    <rect id="Rectangle_138" data-name="Rectangle 138" width="84" height="70" rx="14" transform="translate(-0.456 0)" fill="#fff"/>
    <g id="brands-and-logotypes" transform="translate(26.154 17.999)">
      <path id="Path_1269" data-name="Path 1269" d="M7.715,110.231a8.69,8.69,0,0,1,1.23-4.467v-5.549H3.4a16.468,16.468,0,0,0,0,20.032H8.945V114.7A8.69,8.69,0,0,1,7.715,110.231Z" transform="translate(0 -93.772)" fill="#fbbd00"/>
      <path id="Path_1270" data-name="Path 1270" d="M199.858,374.185,196,378.043l3.858,3.858a16.334,16.334,0,0,0,10.016-3.4v-5.543H204.33A8.742,8.742,0,0,1,199.858,374.185Z" transform="translate(-183.398 -348.982)" fill="#0f9d58"/>
      <path id="Path_1271" data-name="Path 1271" d="M58.372,325.477l-5.549,5.549a16.719,16.719,0,0,0,1.425,1.622,16.352,16.352,0,0,0,11.638,4.821v-7.715A8.748,8.748,0,0,1,58.372,325.477Z" transform="translate(-49.427 -304.551)" fill="#31aa52"/>
      <path id="Path_1272" data-name="Path 1272" d="M272.459,201.1a16.609,16.609,0,0,0-.269-2.982l-.145-.791H256v7.715h7.809a8.7,8.7,0,0,1-3.336,3.577l5.543,5.543a16.715,16.715,0,0,0,1.622-1.425A16.352,16.352,0,0,0,272.459,201.1Z" transform="translate(-239.541 -184.637)" fill="#3c79e6"/>
      <path id="Path_1273" data-name="Path 1273" d="M206.041,10.276l.682.682L212.178,5.5l-.682-.682A16.352,16.352,0,0,0,199.858,0L196,3.858l3.858,3.858A8.687,8.687,0,0,1,206.041,10.276Z" transform="translate(-183.398 0)" fill="#cf2d48"/>
      <path id="Path_1274" data-name="Path 1274" d="M65.885,7.715V0A16.352,16.352,0,0,0,54.247,4.821a16.707,16.707,0,0,0-1.425,1.622l5.549,5.549a8.748,8.748,0,0,1,7.514-4.277Z" transform="translate(-49.426 0)" fill="#eb4132"/>
    </g>
  </g>
</svg>
