<svg xmlns="http://www.w3.org/2000/svg" xmlns:xlink="http://www.w3.org/1999/xlink" width="112" height="109.42" viewBox="0 0 112 109.42">
  <defs>
    <filter id="Path_4381" x="19.893" y="31.784" width="45.638" height="32.937" filterUnits="userSpaceOnUse">
      <feOffset dy="3" input="SourceAlpha"/>
      <feGaussianBlur result="blur"/>
      <feFlood flood-opacity="0.161"/>
      <feComposite operator="in" in2="blur"/>
      <feComposite in="SourceGraphic"/>
    </filter>
    <filter id="Kamashka" x="0" y="61.42" width="112" height="48" filterUnits="userSpaceOnUse">
      <feOffset dy="3" input="SourceAlpha"/>
      <feGaussianBlur result="blur-2"/>
      <feFlood flood-opacity="0.161"/>
      <feComposite operator="in" in2="blur-2"/>
      <feComposite in="SourceGraphic"/>
    </filter>
    <filter id="Union_10" x="27.95" y="0" width="59.719" height="66.84" filterUnits="userSpaceOnUse">
      <feOffset dy="3" input="SourceAlpha"/>
      <feGaussianBlur result="blur-3"/>
      <feFlood flood-opacity="0.161"/>
      <feComposite operator="in" in2="blur-3"/>
      <feComposite in="SourceGraphic"/>
    </filter>
  </defs>
  <g id="Group_13082" data-name="Group 13082" transform="translate(-134.672 -419)">
    <g id="Group_6" data-name="Group 6" transform="translate(137.671 482.84)">
      <g id="Group_2" data-name="Group 2" transform="translate(0)">
        <g transform="matrix(1, 0, 0, 1, -3, -63.84)" filter="url(#Kamashka)">
          <text id="Kamashka-2" data-name="Kamashka" transform="translate(56 89.42)" fill="#fa935b" font-size="29" font-family="Gvtime-Regular, 'Gv\. time'"><tspan x="-55" y="0">Kamashka</tspan></text>
        </g>
      </g>
    </g>
    <g transform="matrix(1, 0, 0, 1, 134.67, 419)" filter="url(#Union_10)">
      <path id="Union_10-2" data-name="Union 10" d="M11.441,63.6a3.658,3.658,0,0,1-.686-.354,3.616,3.616,0,0,1-1.584-2.359,3.564,3.564,0,0,1,.6-2.737,13.013,13.013,0,0,1,2.638-2.79,16.181,16.181,0,0,0-2.762-1.446,13.809,13.809,0,0,0-1.44-.473,6.41,6.41,0,0,0-2.577-.2,3.481,3.481,0,0,1-1.1.5,1.319,1.319,0,0,1-1.718-1.037,4.419,4.419,0,0,1-.075-1.232A12.161,12.161,0,0,1,3.6,48.032a40.9,40.9,0,0,1,5.058-9.3,23.541,23.541,0,0,1,3.665-4.191,5.511,5.511,0,0,1,1.742-1.105A1.386,1.386,0,0,1,16.1,34.674a6.906,6.906,0,0,1-.023,1.187,7.983,7.983,0,0,0,.633,1.488,7.031,7.031,0,0,1,.406.67,12.567,12.567,0,0,0,1.751,2.044c.526.506,1.119,1.019,1.861,1.611l.2.154c4.223-6.974,7.625-22.281,10.453-29.121a16.331,16.331,0,0,0-4.869-.3c-2.675.377-5.452,2.025-5.182,3.947s3.2,1.369,3.472,3.289c.355,2.538-3.932,5.869-8.461,6.505C3.917,27.9,3.081,7.519,19,5.281A26.724,26.724,0,0,1,33.912,7.873a8.752,8.752,0,0,1,5.926-3.632c3.293-.463,3.991,7.486-3.486,8.536a31.17,31.17,0,0,0-1.832,8.372C42.751,19.992,41.479,1.982,55.2.053c5.831-.818,5.75,8.077,1.292,8.7a4.935,4.935,0,0,1-2.031-.234A5.206,5.206,0,0,0,52.3,8.3c-5.281.741-6.323,10.753-11.486,14.347,8.26.028,4.884,11.346,8.04,10.9,1.372-.194,1.522-2.1,2.689-2.268,3.223-.453,1.78,14.161-5.286,15.155-5.231.733-5.99-4.407-6.624-9.546C39,31.782,38.5,26.676,33.848,27.33c-.928,10.183-.409,20.859-7.088,25.648a8.316,8.316,0,0,1-4.089,1.9,17.8,17.8,0,0,1-2.268.464c-.162.023-.321.044-.478.064q-.237.2-.465.4c-.081.07-.163.137-.242.207l0,0a8.719,8.719,0,0,0-1.067,1.015,10.459,10.459,0,0,0-1.8,3.615c-.021.065-.042.13-.063.2a5.772,5.772,0,0,1-.518,1.282A3.572,3.572,0,0,1,11.441,63.6Zm.152-3.53a1.07,1.07,0,0,0,.6,1.374l.01,0a1.05,1.05,0,0,0,.813-.025,1.066,1.066,0,0,0-.054-1.969l0,0a1.061,1.061,0,0,0-1.367.618Zm1.736-1.885a.854.854,0,0,0,.479,1.1l.009,0a.825.825,0,0,0,.648-.02.85.85,0,0,0-.042-1.566l-.006,0a.834.834,0,0,0-.3-.053A.848.848,0,0,0,13.33,58.189Zm1.248-23.8a4.356,4.356,0,0,0-.934.466,13.908,13.908,0,0,0-2.791,2.738,41.006,41.006,0,0,0-5,7.863,22.88,22.88,0,0,0-1.766,4.5,10.765,10.765,0,0,0-.314,2.094c-.035.73.247.872.9.546A7.652,7.652,0,0,0,6.678,51a31.834,31.834,0,0,0,4.225-5.55,38.966,38.966,0,0,0,3.014-5.794A15.359,15.359,0,0,0,15.067,35.7a4.383,4.383,0,0,0-.037-1.042c-.021-.164-.079-.262-.174-.3a.255.255,0,0,0-.092-.015A.534.534,0,0,0,14.578,34.385ZM8.264,43a2.746,2.746,0,0,1,3.412-1.062c-.85,1.484-1.683,2.937-2.521,4.4A2.807,2.807,0,0,1,8.264,43ZM.342,44.531a.569.569,0,0,1-.314-.721,1.4,1.4,0,0,1,.422-.259c1.034-.192,2.069-.366,3.106-.534a.514.514,0,0,1,.6.411.527.527,0,0,1-.422.613c-.18.04-.363.065-.545.1-.836.142-1.671.287-2.507.424a.954.954,0,0,1-.117.008A.626.626,0,0,1,.342,44.531Zm4.563-3.523,0,0a.466.466,0,0,1-.05-.022c-.863-.528-1.73-1.05-2.589-1.585a.5.5,0,0,1-.15-.7.5.5,0,0,1,.7-.174c.17.092.331.2.5.3.683.419,1.368.833,2.048,1.256a.509.509,0,0,1,.21.69.525.525,0,0,1-.463.281A.571.571,0,0,1,4.906,41.007ZM7,38.231A.62.62,0,0,1,6.721,38c-.7-1-1.406-2-2.092-3.016a1.957,1.957,0,0,1-.155-.553,2.457,2.457,0,0,1,.5-.276.47.47,0,0,1,.514.244q1.05,1.505,2.1,3.012a.52.52,0,0,1-.112.755.508.508,0,0,1-.289.094A.5.5,0,0,1,7,38.231Z" transform="translate(27.95)" fill="#fa935b"/>
    </g>
  </g>
</svg>
