<svg xmlns="http://www.w3.org/2000/svg" width="123.682" height="50.548" viewBox="0 0 123.682 50.548">
  <g id="Group_19" data-name="Group 19" transform="translate(-158.252 -419)">
    <g id="Group_6" data-name="Group 6" transform="translate(203.934 426.751)">
      <g id="Group_2" data-name="Group 2" transform="translate(0 0)">
        <text id="amashka" transform="translate(39 24)" fill="#fa935b" font-size="25" font-family="Gvtime-Regular, 'Gv\. time'"><tspan x="-38" y="0">amashka</tspan></text>
      </g>
    </g>
    <path id="Union_10" data-name="Union 10" d="M9.059,50.361a2.9,2.9,0,0,1-.543-.28,2.864,2.864,0,0,1-1.255-1.868,2.821,2.821,0,0,1,.477-2.167,10.32,10.32,0,0,1,2.089-2.209,12.832,12.832,0,0,0-2.187-1.145A10.916,10.916,0,0,0,6.5,42.318a5.075,5.075,0,0,0-2.04-.155,2.75,2.75,0,0,1-.871.394,1.045,1.045,0,0,1-1.361-.821,3.487,3.487,0,0,1-.059-.976,9.632,9.632,0,0,1,.684-2.729,32.413,32.413,0,0,1,4-7.361,18.628,18.628,0,0,1,2.9-3.318,4.361,4.361,0,0,1,1.379-.875,1.1,1.1,0,0,1,1.605.978,5.5,5.5,0,0,1-.019.94,6.3,6.3,0,0,0,.5,1.178,5.7,5.7,0,0,1,.321.53,9.942,9.942,0,0,0,1.386,1.618c.417.4.886.806,1.474,1.276l.156.122C19.909,27.6,22.6,15.477,24.841,10.061a12.932,12.932,0,0,0-3.855-.234c-2.118.3-4.317,1.6-4.1,3.125s2.534,1.084,2.749,2.6c.281,2.01-3.114,4.647-6.7,5.151C3.1,22.089,2.439,5.953,15.042,4.182A21.16,21.16,0,0,1,26.851,6.233a6.93,6.93,0,0,1,4.692-2.876c2.607-.366,3.16,5.927-2.76,6.759a24.676,24.676,0,0,0-1.451,6.629c6.518-.916,5.511-15.176,16.376-16.7,4.617-.648,4.553,6.4,1.024,6.891a3.905,3.905,0,0,1-1.608-.185,4.124,4.124,0,0,0-1.712-.178c-4.182.587-5.007,8.514-9.094,11.36,6.54.022,3.867,8.984,6.366,8.633,1.087-.153,1.206-1.666,2.13-1.8,2.551-.358,1.409,11.213-4.186,12-4.142.58-4.743-3.489-5.245-7.558-.5-4.043-.9-8.086-4.581-7.568-.735,8.063-.324,16.516-5.612,20.308a6.585,6.585,0,0,1-3.238,1.508,14.1,14.1,0,0,1-1.8.368l-.379.051c-.125.106-.248.211-.368.315-.064.056-.128.108-.192.164h0a6.909,6.909,0,0,0-.845.8,8.277,8.277,0,0,0-1.425,2.862l-.05.156a4.585,4.585,0,0,1-.41,1.015,2.829,2.829,0,0,1-3.425,1.169Zm.121-2.795a.847.847,0,0,0,.477,1.088l.008,0a.831.831,0,0,0,.644-.02.844.844,0,0,0-.043-1.559h0a.84.84,0,0,0-1.083.489Zm1.375-1.493a.675.675,0,0,0,.38.867h.007a.653.653,0,0,0,.513-.016.673.673,0,0,0-.033-1.24h0a.661.661,0,0,0-.234-.042A.671.671,0,0,0,10.555,46.074Zm.988-18.848a3.452,3.452,0,0,0-.739.369,11,11,0,0,0-2.209,2.168,32.437,32.437,0,0,0-3.959,6.226,18.088,18.088,0,0,0-1.4,3.559,8.5,8.5,0,0,0-.249,1.658c-.028.578.2.69.712.432A6.068,6.068,0,0,0,5.288,40.38a25.2,25.2,0,0,0,3.345-4.395A30.889,30.889,0,0,0,11.019,31.4a12.162,12.162,0,0,0,.911-3.129,3.468,3.468,0,0,0-.029-.825c-.017-.13-.062-.208-.138-.237a.2.2,0,0,0-.072-.012A.427.427,0,0,0,11.542,27.226Zm-5,6.818a2.174,2.174,0,0,1,2.7-.841l-2,3.484A2.222,2.222,0,0,1,6.543,34.044ZM.271,35.259a.45.45,0,0,1-.248-.571,1.107,1.107,0,0,1,.334-.2c.819-.152,1.638-.29,2.46-.423a.407.407,0,0,1,.473.325.417.417,0,0,1-.334.485c-.143.032-.287.052-.432.077-.662.112-1.323.227-1.985.336a.743.743,0,0,1-.092.007A.494.494,0,0,1,.271,35.259Zm3.613-2.79,0,0a.348.348,0,0,1-.039-.017c-.684-.418-1.37-.832-2.05-1.255a.393.393,0,0,1-.119-.558.4.4,0,0,1,.553-.137c.135.073.262.157.392.237.541.332,1.083.66,1.621.994a.4.4,0,0,1,.167.546.416.416,0,0,1-.367.222A.451.451,0,0,1,3.884,32.469Zm1.66-2.2a.491.491,0,0,1-.222-.18C4.765,29.3,4.209,28.5,3.665,27.7a1.549,1.549,0,0,1-.123-.438,1.946,1.946,0,0,1,.392-.218.372.372,0,0,1,.407.193Q5.173,28.432,6,29.626a.412.412,0,0,1-.088.6.405.405,0,0,1-.229.074A.39.39,0,0,1,5.544,30.271Z" transform="translate(158.252 419)" fill="#fa935b"/>
  </g>
</svg>
