<svg xmlns="http://www.w3.org/2000/svg" width="166.042" height="150.001" viewBox="0 0 166.042 150.001">
  <g id="Group_13112" data-name="Group 13112" transform="translate(-131 -352.086)">
    <g id="Group_13111" data-name="Group 13111" transform="translate(1366.252 840.68)">
      <path id="Path_7092" data-name="Path 7092" d="M-1089.758-356.89a5.657,5.657,0,0,0-1.367.806c-1.926,1.287-3.846,2.58-5.84,3.765-2.238,1.329-4.506,2.6-6.841,3.744-1.836.9-3.729,1.681-5.6,2.5-2.069.9-4.194,1.629-6.318,2.366-2.262.785-4.563,1.448-6.888,2.032-2.1.529-4.223.978-6.357,1.366-2.052.373-4.108.719-6.179.96-1.87.217-3.744.381-5.622.525-3.47.266-6.942.272-10.412.2-2.558-.056-5.12-.226-7.663-.5-2.455-.264-4.9-.641-7.344-1.028-2.346-.372-4.674-.829-6.991-1.324-2.922-.624-5.806-1.418-8.667-2.288a103.981,103.981,0,0,1-11.141-4.044,95.76,95.76,0,0,1-9.239-4.616,75.32,75.32,0,0,1-7.461-4.869,58.94,58.94,0,0,1-5.465-4.486c-.763-.718-1.516-1.447-2.272-2.172a61.945,61.945,0,0,1-6.209-7.073,59,59,0,0,1-5.631-9.019,56.157,56.157,0,0,1-4.117-10.3,47.885,47.885,0,0,1-1.382-7.091,70.225,70.225,0,0,1-.443-10.876c.06-2.062.219-4.127.43-6.186.225-2.2.488-4.391.8-6.576.261-1.821.657-3.622,1.015-5.428.457-2.311,1.076-4.585,1.721-6.847a75.709,75.709,0,0,1,3.124-8.865,56.655,56.655,0,0,1,4.338-7.976,92.177,92.177,0,0,1,5.507-7.767c1.252-1.595,2.552-3.159,3.949-4.635.763-.806,1.512-1.624,2.294-2.411a75.229,75.229,0,0,1,9.909-8.369,80.862,80.862,0,0,1,9.014-5.531,84.06,84.06,0,0,1,11.5-4.992,77.414,77.414,0,0,1,7.462-2.243q3.364-.808,6.8-1.342c1.535-.239,3.075-.443,4.611-.659.989-.139,2-.213,2.995-.277,2.833-.181,5.674-.214,8.508-.114,2.226.079,4.448.285,6.666.563a80.006,80.006,0,0,1,8.511,1.526,67.341,67.341,0,0,1,9.1,2.705,23.981,23.981,0,0,1,6.767,3.84,12.251,12.251,0,0,1,4.13,7.243,16.3,16.3,0,0,1,.386,3.164c0,1.721.094,3.441,0,5.162a1.023,1.023,0,0,0,.13.713c-.266.2-.562.1-.831.048-1.435-.252-2.89-.368-4.322-.637a1.873,1.873,0,0,1-.783-.578q-1.638-1.631-3.27-3.266a2.037,2.037,0,0,0-.525-.449c-.173.211-.106.443-.107.653-.006,1.951.006,3.9-.015,5.854,0,.249.167.633-.3.715a1.358,1.358,0,0,1-.183-.947c-.007-1.893,0-3.787,0-5.681,0-.9-.03-.934-.938-.934q-12.781,0-25.562,0c-13.975,0-27.95.052-41.924-.03a8.209,8.209,0,0,0-8.246,8.075c0,.288,0,.576,0,.864q0,21.888,0,43.777a5.5,5.5,0,0,1-.06,1.23,9.462,9.462,0,0,0-.552,2.827c-.531,3.56-1.009,7.129-1.558,10.686-.544,3.517-1.072,7.038-1.616,10.555-.5,3.212-.935,6.434-1.4,9.651-.461,3.2-1,6.383-1.433,9.584a8.179,8.179,0,0,0,3.734,7.632,7.758,7.758,0,0,0,1.891.895,1.1,1.1,0,0,0,.989-.111c.306.214.295.575.395.878a7.947,7.947,0,0,0,5.906,5.5,9.047,9.047,0,0,0,2.265.244c10.843,0,21.688.109,32.529-.025,13.949-.173,27.9-.018,41.844-.1.329,0,.659-.016.988.007a7.99,7.99,0,0,0,8.2-7.984c0-.987-.015-1.975.012-2.962-.02-1.621-.044-3.242.011-4.862a.55.55,0,0,1,.123-.337,4.694,4.694,0,0,1,2.2-1.307c.558.172.859.667,1.275,1.02a2,2,0,0,0,1.658.906,1.486,1.486,0,0,0,.873-.247.721.721,0,0,1,1.086.046,2.639,2.639,0,0,1,.376.375c.8.653,1.429,1.477,2.245,2.108a.682.682,0,0,1,.31.693,2.286,2.286,0,0,0,.7,2.283q4.707,4.652,9.362,9.356C-1090-357.42-1089.651-357.281-1089.758-356.89Z" fill="#ffe2d2"/>
      <path id="Path_7093" data-name="Path 7093" d="M-615.707-240.806c-.126.778.536,1.141.935,1.569a37.73,37.73,0,0,0,7.12,6.133c1.9,1.224,3.859,2.332,5.861,3.359a92.412,92.412,0,0,1,10.954,6.078,24.958,24.958,0,0,1,8.281,9.316,34.533,34.533,0,0,1,2.941,9.256,45,45,0,0,1,.708,9.855,45.67,45.67,0,0,1-1.166,8.684A39.812,39.812,0,0,1-584.7-174.9a33.282,33.282,0,0,1-4.248,5.63c-1.1,1.173-2.342,2.178-3.477,3.3-.144.143-.346.234-.309.487-.388.087-.532-.251-.732-.451-3.271-3.257-6.547-6.509-9.785-9.8a2.584,2.584,0,0,0-2.331-.942c-.877-.007-1.282-.736-1.8-1.242-.419-.408-.8-.865-1.217-1.285a3.629,3.629,0,0,1-.639-.748.633.633,0,0,1,.076-.47c.661-1.375.609-1.7-.43-2.735-.338-.432-.876-.7-1.041-1.274a3.629,3.629,0,0,1,.876-1.526,32.092,32.092,0,0,0,3.549-7.434,28.235,28.235,0,0,0,1.41-7.177,29.591,29.591,0,0,0-.221-6.521,31.4,31.4,0,0,0-2.207-7.875,30.117,30.117,0,0,0-4.576-7.434,31.725,31.725,0,0,0-4.813-4.67c-.424-.33-.985-.562-1.092-1.194a12.058,12.058,0,0,1,.271-1.965c.3-2.467.742-4.913,1.052-7.378.118-.939.307-1.867.395-2.809C-615.974-240.573-615.969-240.79-615.707-240.806Z" transform="translate(-490.332 -196.744)" fill="#ffe2d2"/>
      <path id="Path_7094" data-name="Path 7094" d="M-576.4,69.663a2.461,2.461,0,0,1,2.317.839c3.341,3.38,6.711,6.731,10.072,10.091.144.144.3.275.451.412q3.852,3.872,7.7,7.743c.958.962,1.924,1.916,2.878,2.884a1.985,1.985,0,0,1,.016,3.008c-.949.971-1.915,1.926-2.878,2.883a2.023,2.023,0,0,1-3.182.009q-5.351-5.343-10.694-10.693c-.174-.174-.358-.338-.538-.506q-4.976-4.994-9.957-9.984a2.229,2.229,0,0,1-.64-2.389,2.233,2.233,0,0,1,.682-1.063c.867-.847,1.728-1.7,2.57-2.573A1.957,1.957,0,0,1-576.4,69.663Z" transform="translate(-519.508 -443.224)" fill="#3c5654"/>
      <path id="Path_7095" data-name="Path 7095" d="M-664.7-344.069c-.162,1.022-.334,2.043-.485,3.068-.275,1.859-.521,3.722-.815,5.578a12.132,12.132,0,0,1-.3,1.98c-.285-.312-.195-.7-.2-1.06q-.009-10.679-.008-21.358c0-2.074.209-1.544-1.275-3.042a4.854,4.854,0,0,0-1.187-1.06,4.1,4.1,0,0,0-1.038-.085q-3.133,0-6.267,0a1.857,1.857,0,0,1-.96-.132c-.165-.17-.048-.247.107-.3a2.338,2.338,0,0,1,.735-.055c2.3,0,4.6,0,6.923,0-.076-.27-.283-.386-.435-.538q-4.49-4.5-8.985-9c-.223-.224-.542-.4-.53-.788,1.356.178,2.712.353,4.067.535.384.052.765.123,1.147.185,1.817.311,3.658.466,5.464.849a7.927,7.927,0,0,1,5.354,3.905,8.545,8.545,0,0,1,.958,6c-.609,3.657-1.106,7.333-1.648,11Q-664.393-346.228-664.7-344.069Z" transform="translate(-441.336 -93.481)" fill="#fca678"/>
      <path id="Path_7096" data-name="Path 7096" d="M-985.783-292.308a19.937,19.937,0,0,1-.242,4.906,8.222,8.222,0,0,1-6.576,6.172,8.384,8.384,0,0,1-1.777.036c-13.583,0-27.167-.1-40.749.033-11.521.113-23.042.013-34.562.082a8.377,8.377,0,0,1-6-2.289,7.7,7.7,0,0,1-2.36-4.231,1.433,1.433,0,0,0-.114-.275,1.25,1.25,0,0,1-.308-.848,8.053,8.053,0,0,1-.031-1.11q0-23.642.005-47.283a7.207,7.207,0,0,1,.2-2.38q0-1.451,0-2.9,0-21.458,0-42.915a8.335,8.335,0,0,1,3.791-7.146,7.02,7.02,0,0,1,4.047-1.268q34.209,0,68.418,0c.818,0,.818,0,.818.845,0,2.079,0,4.158.006,6.237,0,.237-.084.5.118.706a1.929,1.929,0,0,1,.342.973,8.16,8.16,0,0,0,3.079,4.762,3.5,3.5,0,0,1,.58.551,7.969,7.969,0,0,0,4.157,2.835,8.005,8.005,0,0,0,2.372.332c1.357.021,2.714,0,4.07.01.3,0,.632-.059.829.275a2.452,2.452,0,0,1,.093.916q0,11.632,0,23.264a3.126,3.126,0,0,1-.063.857c-.209.45-.507.222-.765.078a28.776,28.776,0,0,0-5.831-2.5,31.334,31.334,0,0,0-8.2-1.315,32.415,32.415,0,0,0-8.565.9,31.018,31.018,0,0,0-4.832,1.679,29.7,29.7,0,0,0-6.621,4.028,30.445,30.445,0,0,0-8.26,10.013,28.539,28.539,0,0,0-3.012,9.227,31.388,31.388,0,0,0,1.583,15.725,30.848,30.848,0,0,0,8.364,12.124,29.624,29.624,0,0,0,7.111,4.75,9.112,9.112,0,0,1,1.063.625,24.148,24.148,0,0,0,5.166,2.86,29.839,29.839,0,0,0,9.676,2.308,29.762,29.762,0,0,0,10.38-1.028c.689-.207,1.4-.345,2.07-.61C-986.138-292.371-985.957-292.452-985.783-292.308Z" transform="translate(-124.459 -75.323)" fill="#fefefe"/>
      <path id="Path_7097" data-name="Path 7097" d="M-835.39-146.9a35.174,35.174,0,0,1-7.7-4.9,32.837,32.837,0,0,1-5.253-5.693,30.485,30.485,0,0,1-3.823-7.4,29.709,29.709,0,0,1-1.637-7.535,30.7,30.7,0,0,1,2.035-14.417,30.815,30.815,0,0,1,5.964-9.4,32.281,32.281,0,0,1,5.732-4.909,30.314,30.314,0,0,1,8.22-3.824,31.044,31.044,0,0,1,11.136-1.174,28.4,28.4,0,0,1,10.7,2.775c.845.415,1.685.84,2.527,1.261.259-.108.41.105.588.212.6.362,1.146.82,1.772,1.15.269.651.919.9,1.412,1.3a34.075,34.075,0,0,1,4.686,4.673,32.11,32.11,0,0,1,3.557,5.445,29.969,29.969,0,0,1,2.779,7.976,30.365,30.365,0,0,1,.515,8.2,26.482,26.482,0,0,1-1.13,6.384,31.542,31.542,0,0,1-3.888,8.382,3.8,3.8,0,0,0-.9,1.5,18.174,18.174,0,0,1-2.26,2.752,28.583,28.583,0,0,1-4.91,4.279,5.832,5.832,0,0,0-2.211,1.353A14.361,14.361,0,0,1-810.9-146.7a29.4,29.4,0,0,1-7.213,2.073,31.513,31.513,0,0,1-8.3.2,32.712,32.712,0,0,1-7.549-1.76A6.713,6.713,0,0,1-835.39-146.9Z" transform="translate(-302.763 -224.195)" fill="#bcd8df"/>
      <path id="Path_7098" data-name="Path 7098" d="M-1103.148-130.458q0,23.534.01,47.068a31.2,31.2,0,0,0,.125,4.554c.027.4-.077.527-.532.4a8.17,8.17,0,0,1-5.645-4.975,8.417,8.417,0,0,1-.469-4.752c.358-2.05.639-4.113.956-6.17.273-1.775.563-3.547.821-5.324.238-1.637.428-3.281.666-4.918.282-1.939.6-3.873.892-5.811.285-1.9.511-3.8.847-5.691.237-1.328.4-2.664.6-4,.256-1.7.49-3.394.743-5.09.24-1.614.5-3.227.735-4.841C-1103.368-130.2-1103.348-130.37-1103.148-130.458Z" transform="translate(-99.607 -284.361)" fill="#fca678"/>
      <path id="Path_7099" data-name="Path 7099" d="M-996.308-413.414h-40.018c-.813,0-.826-.008-.44-.736a7.849,7.849,0,0,1,3.7-3.467,9.106,9.106,0,0,1,5.7-.541c1.326.237,2.677.331,4.006.557,1.41.24,2.826.434,4.24.645,1.9.282,3.788.62,5.7.841,1.42.165,2.826.44,4.241.652,1.859.279,3.72.539,5.578.817,1.434.214,2.867.441,4.3.664l2.783.435C-996.445-413.535-996.355-413.546-996.308-413.414Z" transform="translate(-157.403 -55.757)" fill="#fca678"/>
      <path id="Path_7100" data-name="Path 7100" d="M-698.893-379.64a19.336,19.336,0,0,1-2.005-1.885,8.754,8.754,0,0,1-1.825-4.428v-7.791l4.8,4.714c1.21,1.228,2.414,2.461,3.63,3.682q3.13,3.143,6.27,6.277a1.086,1.086,0,0,1,.4.522H-695.8c-.21.183-.433.064-.644.015A6.125,6.125,0,0,1-698.893-379.64Z" transform="translate(-422.83 -75.311)" fill="#fa935b"/>
      <path id="Path_7101" data-name="Path 7101" d="M-852.431,155.878a40.538,40.538,0,0,1-4.192-.565c-2.064-.29-4.123-.616-6.184-.921q-3.126-.463-6.255-.914a7.362,7.362,0,0,1-.9-.168h41.58a6.364,6.364,0,0,1-1.814,2.568,1.559,1.559,0,0,1-.826.2c-6.426-.011-12.852.031-19.277-.027A15.308,15.308,0,0,1-852.431,155.878Z" transform="translate(-290.046 -509.673)" fill="#fca678"/>
      <path id="Path_7102" data-name="Path 7102" d="M-763.89,75.614a45.412,45.412,0,0,0,4.654,1.521,38.007,38.007,0,0,0,5.135.846,26.211,26.211,0,0,0,4.184.075,30.9,30.9,0,0,0,7.456-1.332,32.073,32.073,0,0,0,6.186-2.672.9.9,0,0,1,.3-.047q0,2.535,0,5.069a33.222,33.222,0,0,1-6.045,1.558,29.6,29.6,0,0,1-3.726.308,31.333,31.333,0,0,1-10.7-1.525,28.466,28.466,0,0,1-7.152-3.487A1.777,1.777,0,0,1-763.89,75.614Z" transform="translate(-374.263 -446.704)" fill="#e4e4e4"/>
      <path id="Path_7103" data-name="Path 7103" d="M-784.879,165.775h22.24a7.824,7.824,0,0,1-4.749,2.345,13.1,13.1,0,0,1-4.124-.332c-2.1-.34-4.2-.606-6.3-.907-1.8-.258-3.6-.5-5.395-.791A6.265,6.265,0,0,1-784.879,165.775Z" transform="translate(-357.598 -519.57)" fill="#fca678"/>
      <path id="Path_7104" data-name="Path 7104" d="M-605.132,38.611c1.13.948,1.254,1.638.5,2.878a.727.727,0,0,0-.135.452c-1.3,1.1-2.417,2.386-3.653,3.549-.293.276.035.537-.073.789-.375-.318-.686-.216-1.093.03-.906.549-1.743.267-2.6-.77.037-.253.239-.373.419-.5A31.653,31.653,0,0,0-605.585,39C-605.461,38.841-605.366,38.644-605.132,38.611Z" transform="translate(-494.716 -418.602)" fill="#bcd8df"/>
      <path id="Path_7105" data-name="Path 7105" d="M-585.883,60.282a3.944,3.944,0,0,0-1.3.983,39.771,39.771,0,0,0-3.148,3.315.558.558,0,0,0-.243-.526c-.868-.633-1.515-1.5-2.334-2.187,1.34-1.37,2.687-2.733,4.068-4.061.759.56,1.248,1.384,1.963,1.992A1.359,1.359,0,0,0-585.883,60.282Z" transform="translate(-510.02 -433.842)" fill="#bcd8df"/>
      <path id="Path_7106" data-name="Path 7106" d="M-609.463,34.4a30.532,30.532,0,0,1-6.514,6.526l-.54.4-1.123-.99c.09-.416.485-.533.767-.742a31.532,31.532,0,0,0,5.8-5.695,1.928,1.928,0,0,1,.605-.594Z" transform="translate(-490.385 -414.391)" fill="#97afb3"/>
      <path id="Path_7107" data-name="Path 7107" d="M-590.911,55.224a.588.588,0,0,1-.231.415l-3.424,3.423c-.115.115-.225.243-.414.223l-.277-.347c-.422-.383-.282-.669.091-1.024,1.049-1,2.056-2.043,3.086-3.064.146-.145.259-.4.548-.251Z" transform="translate(-507.952 -431.261)" fill="#97afb3"/>
      <path id="Path_7108" data-name="Path 7108" d="M-626.892-290.081c-.193.118-.348.018-.5-.088l-1.857-1.274c.005-1.626.015-3.251.016-4.877q0-9.725,0-19.449c0-.329-.012-.658-.019-.987a2.327,2.327,0,0,1,.024-1.979c.574.2.831.771,1.29,1.1a3.386,3.386,0,0,1,1.332,3.127c-.068,7.482-.031,14.966-.03,22.449Z" transform="translate(-480.999 -134.869)" fill="#fa935b"/>
      <path id="Path_7109" data-name="Path 7109" d="M-672.635-323.931q-.012.989-.024,1.979c-1.644,0-3.288.027-4.931-.014a8.288,8.288,0,0,1-5.846-2.457,9.914,9.914,0,0,1-.693-.857,12.845,12.845,0,0,0,3.093,1.091c.2.212.462.134.7.135,2.354.012,4.707.01,7.061.02C-673.063-324.033-672.825-324.114-672.635-323.931Z" transform="translate(-437.594 -129.672)" fill="#e4e4e5"/>
      <path id="Path_7110" data-name="Path 7110" d="M-1027.925-312.3c-.383-.49-.975-.725-1.4-1.185a2.852,2.852,0,0,1-.414-3.5,16.979,16.979,0,0,1,5.933-5.752,19.881,19.881,0,0,1,7.613-2.609,20.639,20.639,0,0,1,6.611.117,20.065,20.065,0,0,1,4.974,1.482,14.4,14.4,0,0,1,4.244,2.883c.578.583,1.14,1.182,1.71,1.773a13.822,13.822,0,0,1,2.937,6.305,19.351,19.351,0,0,1,.268,6.141,14.031,14.031,0,0,1-5.009,9.46,38.159,38.159,0,0,1-6.392,4.289,19.5,19.5,0,0,0-4.951,3.538,8.483,8.483,0,0,0-1.889,2.929,3.374,3.374,0,0,1-3.569,2.46c-1.029,0-2.058,0-3.087,0a1.216,1.216,0,0,1-.91-.293c-.424-.351-.981-.5-1.347-.948a3.565,3.565,0,0,1-.6-3.083,12.031,12.031,0,0,1,3.658-7.011,23.608,23.608,0,0,1,4.757-3.153,24.583,24.583,0,0,0,6.8-4.692,8.022,8.022,0,0,0,2.448-5.282,6.274,6.274,0,0,0-1.388-4.735c-.491-.375-.864-.878-1.359-1.25a8.144,8.144,0,0,0-3.473-1.475,8.733,8.733,0,0,0-3.6-.03,11.127,11.127,0,0,0-6.15,3.861,4.689,4.689,0,0,1-1.76,1.409,2.733,2.733,0,0,1-2.494-.131A9.98,9.98,0,0,1-1027.925-312.3Z" transform="translate(-162.846 -129.448)" fill="#ffe2d2"/>
      <path id="Path_7111" data-name="Path 7111" d="M-986.929-259.335a14.378,14.378,0,0,0,3.192.112,6.638,6.638,0,0,0,2.021-.1,3.005,3.005,0,0,0,2.108-2,9.914,9.914,0,0,1,3.87-4.844,60.305,60.305,0,0,1,5.306-3.2,32.012,32.012,0,0,0,4.133-2.976,13.823,13.823,0,0,0,3.678-4.7,15.332,15.332,0,0,0,1.181-3.752,20.469,20.469,0,0,0,.165-4.907,14.927,14.927,0,0,0-2.009-6.736,12.805,12.805,0,0,1-1.042-1.724,12.189,12.189,0,0,1,2.63,3.211,15.789,15.789,0,0,1,1.724,3.84,19.853,19.853,0,0,1,.549,7.078,13.285,13.285,0,0,1-3.432,7.956,26.436,26.436,0,0,1-6.523,5.035,39.33,39.33,0,0,0-5.11,3.158,8.953,8.953,0,0,0-3.226,4.366,3.1,3.1,0,0,1-2.973,2.164c-1.029.009-2.057-.019-3.085.007A3.084,3.084,0,0,1-986.929-259.335Z" transform="translate(-197.169 -154.374)" fill="#e4e4e4"/>
      <path id="Path_7112" data-name="Path 7112" d="M-995.046-73.96a3.449,3.449,0,0,1-1.971-2.057,2.837,2.837,0,0,1-.131-.841q0-2.8,0-5.6a2.949,2.949,0,0,1,2.81-3.192,16.749,16.749,0,0,1,4.171.078,2.882,2.882,0,0,1,2.3,1.977,1.477,1.477,0,0,1,.42,1.124c.016,1.79.067,3.582-.012,5.369a3.26,3.26,0,0,1-3.491,3.347c-1.088-.048-2.18-.006-3.271-.01A1.139,1.139,0,0,1-995.046-73.96Z" transform="translate(-189.055 -319.862)" fill="#ffe2d2"/>
      <path id="Path_7113" data-name="Path 7113" d="M-1019.318-276.468a6.682,6.682,0,0,1,1.608,1c1.868,1.372,3.483.592,4.628-.772,2.357-2.808,5.277-4.48,9.034-4.155a7.7,7.7,0,0,1,5.394,2.547,4.247,4.247,0,0,1,.331.514,13.4,13.4,0,0,0-2.8-1.048,9.671,9.671,0,0,0-8.216,2.128A13.485,13.485,0,0,0-1011.6-274a2.946,2.946,0,0,1-3.719.7,22.2,22.2,0,0,1-3.63-2.624C-1019.116-276.069-1019.316-276.207-1019.318-276.468Z" transform="translate(-171.452 -165.279)" fill="#e4e4e4"/>
      <path id="Path_7114" data-name="Path 7114" d="M-986.942-65.686c1.523,0,3.045,0,4.568,0a2.859,2.859,0,0,0,2.614-2.125c.475-1.808.1-3.637.225-5.452a4.928,4.928,0,0,0-.232-2.062,2.905,2.905,0,0,1,1.978,2.5,48.335,48.335,0,0,1,.095,5.6,3.244,3.244,0,0,1-2.025,3.28,1.6,1.6,0,0,1-.655.108q-2.037.005-4.073,0A2.788,2.788,0,0,1-986.942-65.686Z" transform="translate(-197.159 -328.136)" fill="#e3e5e5"/>
      <path id="Path_7115" data-name="Path 7115" d="M-763.026-148.651a13.489,13.489,0,0,1,2.122,2.289,24.017,24.017,0,0,1,4.8,11.329A23.2,23.2,0,0,1-757.168-124,23.623,23.623,0,0,1-768.3-110.707a23.237,23.237,0,0,1-8.789,2.8,23.87,23.87,0,0,1-8.242-.478,23.432,23.432,0,0,1-11.494-6.447c-.026-.026-.029-.075-.042-.113a19.331,19.331,0,0,1-2.423-3.605c-.1-.212-.375-.432-.069-.695a26.516,26.516,0,0,1,2.811.32,32.219,32.219,0,0,0,5.341,0,27.017,27.017,0,0,0,6.588-1.5,24.846,24.846,0,0,0,7.58-4.3,1.439,1.439,0,0,1,.455-.31c.368-.053.552.229.764.439,1.182,1.171,2.351,2.356,3.534,3.525a2.669,2.669,0,0,0,1.826.9,2.3,2.3,0,0,0,2.318-1.4,2.44,2.44,0,0,0-.543-2.727c-1.222-1.247-2.469-2.47-3.7-3.71-.211-.213-.491-.4-.451-.763.463-.826,1.064-1.559,1.581-2.35a26.5,26.5,0,0,0,4.072-10.819,26.61,26.61,0,0,0-.111-8.283,1.537,1.537,0,0,1-.015-.85c.208-.292.433-.118.644-.013a14.238,14.238,0,0,1,3.37,2.306A.409.409,0,0,0-763.026-148.651Z" transform="translate(-345.992 -267.856)" fill="#fa935b"/>
      <path id="Path_7116" data-name="Path 7116" d="M-815.871-135.992a20.338,20.338,0,0,0,2.541,3.972c.066.08.148.152.038.256a22.5,22.5,0,0,1-5.152-7.821,22.985,22.985,0,0,1-1.717-9.823,23.554,23.554,0,0,1,6.255-15.188,23.394,23.394,0,0,1,14.067-7.541,23.366,23.366,0,0,1,15.4,2.872,21.568,21.568,0,0,1,4.983,3.8c-.555-.113-.9-.563-1.334-.859a15.1,15.1,0,0,0-2.848-1.654,1.086,1.086,0,0,1-.638-.2,22.617,22.617,0,0,0-8.475-2.244,23.14,23.14,0,0,0-16.134,4.771,23.1,23.1,0,0,0-8.8,13.606,23.288,23.288,0,0,0,1.643,15.358C-815.939-136.468-815.773-136.261-815.871-135.992Z" transform="translate(-329.563 -251.038)" fill="#fa935b"/>
      <path id="Path_7117" data-name="Path 7117" d="M-809.122-129.353a23.557,23.557,0,0,1-2.5-9.127,23.381,23.381,0,0,1,2.425-12.277,23.591,23.591,0,0,1,6.153-7.751,23.8,23.8,0,0,1,9.582-4.85,22.687,22.687,0,0,1,6.462-.685,23.289,23.289,0,0,1,9.764,2.459,3.273,3.273,0,0,1,.351.241c.121,1.385.361,2.755.431,4.147a16.761,16.761,0,0,1-.006,2.452c-.1,1.038-.125,2.081-.3,3.114a27.3,27.3,0,0,1-2.066,6.867,30.212,30.212,0,0,1-3.627,5.91.324.324,0,0,1-.337-.1c-.694-.644-1.356-1.321-2.013-2a.5.5,0,0,1,.008-.765c.139-.152.284-.3.43-.444q2.772-2.773,5.546-5.544a5.479,5.479,0,0,0,.832-.991,2.314,2.314,0,0,0-.314-3,2.4,2.4,0,0,0-3.111-.219,5.775,5.775,0,0,0-.636.584l-5.763,5.763c-.809.808-.813.809-1.6.019q-2.992-2.989-5.984-5.979a2.517,2.517,0,0,0-2.99-.6,2.41,2.41,0,0,0-.77,3.649,6.076,6.076,0,0,0,.548.585q2.968,2.97,5.936,5.94c.565.567.562.681-.009,1.254-2.092,2.1-4.2,4.184-6.282,6.292a2.319,2.319,0,0,0,.561,3.8,2.379,2.379,0,0,0,2.468-.123,5.4,5.4,0,0,0,.94-.8q2.834-2.841,5.675-5.676c.654-.653.742-.651,1.39-.009.482.478.967.955,1.438,1.443.164.17.4.309.349.609a24.425,24.425,0,0,1-3.469,2.521,27.839,27.839,0,0,1-5.509,2.491,23.829,23.829,0,0,1-4.689,1.1,23.052,23.052,0,0,1-4.512.233c-1.4-.127-2.809-.185-4.2-.412C-808.724-129.262-808.923-129.311-809.122-129.353Z" transform="translate(-336.312 -257.677)" fill="#fca678"/>
      <path id="Path_7118" data-name="Path 7118" d="M-740.558-90.826c-.746-.765-1.5-1.526-2.235-2.3-.311-.325-.469-.029-.644.146q-3,2.986-5.987,5.978a8.315,8.315,0,0,1-.688.617,2.585,2.585,0,0,1-3.473-.249,2.519,2.519,0,0,1,.052-3.517q3.169-3.206,6.377-6.373c.383-.376.405-.58.009-.969q-3.2-3.135-6.337-6.326a2.548,2.548,0,0,1,.624-4.124,2.578,2.578,0,0,1,3.057.549c2.059,2.046,4.106,4.1,6.161,6.152.669.666.507.673,1.162.021q3.085-3.071,6.16-6.154a2.509,2.509,0,0,1,2.645-.728,2.47,2.47,0,0,1,1.8,2.074,2.4,2.4,0,0,1-.466,1.86,6.309,6.309,0,0,1-.7.782q-2.986,3-5.987,5.978c-.3.3-.333.487-.008.788.74.682,1.448,1.4,2.169,2.1,1.424,1.447,2.857,2.885,4.27,4.343a2.522,2.522,0,0,1-.064,3.639,2.551,2.551,0,0,1-3.647-.1c-1.245-1.222-2.469-2.465-3.706-3.7C-740.185-90.507-740.375-90.663-740.558-90.826Z" transform="translate(-381.898 -302.013)" fill="#fefefe"/>
    </g>
  </g>
</svg>
