<svg xmlns="http://www.w3.org/2000/svg" width="121.617" height="106.53" viewBox="0 0 121.617 106.53">
  <g id="Group_13239" data-name="Group 13239" transform="translate(0)">
    <g id="Group_4782" data-name="Group 4782" transform="translate(0 0)">
      <g id="Group_676" data-name="Group 676" transform="translate(0 0)">
        <g id="Group_675" data-name="Group 675">
          <path id="Path_1890" data-name="Path 1890" d="M103.864,112.393H93.346c-1.145,0-2.629.17-2.629,1.315,0,10.08-3.389,20.482-10.518,27.609a38.116,38.116,0,0,1-53.9-53.9c7.129-7.127,16.215-10.518,26.295-10.518a3.151,3.151,0,0,0,2.629-2.629V63.748a3.151,3.151,0,0,0-2.629-2.629c-14.179,0-26.787,5.751-36.812,15.777S0,99.528,0,113.707a54.141,54.141,0,0,0,49.96,53.9c1.217.083,1.414,0,2.629,0a52.712,52.712,0,0,0,31.554-10.518c.919-.684,2-1.711,1.315-2.629s-1.711-2-2.629-1.315c-19.311,14.391-47.362,13.113-64.422-3.944A49.346,49.346,0,0,1,51.275,65.062v7.888A41.337,41.337,0,0,0,23.665,84.783a41.834,41.834,0,0,0,59.163,59.163,41.332,41.332,0,0,0,11.833-27.609h7.888c-.427,9.949-4.5,19.717-10.518,27.609-.695.91-.912,1.935,0,2.629s3.247.91,3.944,0c6.984-9.159,10.518-21.3,10.518-32.868,0-1.147-1.485-1.315-2.629-1.315Zm0,0" transform="translate(0 -61.118)" fill="#fa935b"/>
        </g>
        <path id="Path_1891" data-name="Path 1891" d="M420.438,481.977h0a1.725,1.725,0,0,0,0,2.629c.406.411.78,0,1.315,0s.91.4,1.315,0h0a1.859,1.859,0,1,0-2.629-2.629Zm0,0" transform="translate(-332.351 -393.89)" fill="#fa935b"/>
        <path id="Path_1892" data-name="Path 1892" d="M171.378,170.339c-9.147,0-15.777,7.945-15.777,17.092v7.888a21.926,21.926,0,0,0-5.259,14.462c0,12.12,8.916,21.036,21.036,21.036s22.35-8.916,22.35-21.036a21.926,21.926,0,0,0-5.259-14.462v-7.888a17.479,17.479,0,0,0-17.091-17.092Zm0,3.944c6.862,0,13.147,6.286,13.147,13.147v3.944a24.215,24.215,0,0,0-13.147-3.944,20.034,20.034,0,0,0-11.833,3.944v-3.944c0-6.862,4.971-13.147,11.833-13.147Zm0,52.589a16.612,16.612,0,0,1-17.092-17.092c0-9.833,7.259-18.406,17.092-18.406a18.849,18.849,0,0,1,18.406,18.406c0,9.833-8.573,17.092-18.406,17.092Zm0,0" transform="translate(-118.788 -147.989)" fill="#fa935b"/>
      </g>
      <path id="right" d="M46.091,29.972,53.115,37,20.257,69.854,0,49.6l7.024-7.024L20.257,55.806Z" transform="translate(68.503 -28.44)" fill="#fff"/>
    </g>
    <path id="Path_4385" data-name="Path 4385" d="M-199.223,290.428c0-1.224-.014-2.449.008-3.673a.881.881,0,0,0-.419-.829,4.6,4.6,0,0,1-1.742-5.339,4.857,4.857,0,0,1,4.525-3.306,4.871,4.871,0,0,1,4.56,3.175,4.6,4.6,0,0,1-1.636,5.422,1.036,1.036,0,0,0-.487.971q.029,3.614,0,7.228a2.377,2.377,0,0,1-2.449,2.536,2.31,2.31,0,0,1-2.325-2.158c-.06-1.34-.014-2.685-.014-4.027Z" transform="translate(249.483 -225.943)" fill="#fff"/>
  </g>
</svg>
