<svg xmlns="http://www.w3.org/2000/svg" width="39.363" height="34.508" viewBox="0 0 39.363 34.508">
  <g id="Group_12998" data-name="Group 12998" transform="translate(0 0)">
    <path id="Path_6983" data-name="Path 6983" d="M266,410.132c.114-.729.193-1.466.348-2.186a16.192,16.192,0,0,1,4.949-8.57,20,20,0,0,1,11.021-5.233,21.246,21.246,0,0,1,14.963,3.08,16.646,16.646,0,0,1,7.444,9.665,15.129,15.129,0,0,1-3.41,14.668,19.557,19.557,0,0,1-12.255,6.56,21.647,21.647,0,0,1-12.305-1.62.6.6,0,0,0-.66.063,10.227,10.227,0,0,1-4.261,1.735,6.621,6.621,0,0,1-2.779-.128c-.661-.185-1.307-.429-1.961-.648.529-.544,1.046-1.052,1.535-1.586a6.179,6.179,0,0,0,1.595-3.7.858.858,0,0,0-.224-.7,15.222,15.222,0,0,1-3.244-5.775c-.323-1.123-.467-2.3-.691-3.45-.026-.136-.043-.274-.064-.411Zm4.96,16.251c.322-.046.666-.074,1-.147a9.443,9.443,0,0,0,3.93-2,.47.47,0,0,1,.6-.08,19.511,19.511,0,0,0,11.187,2.113,18,18,0,0,0,12.486-6.445,13.362,13.362,0,0,0,3.164-8.113,13.209,13.209,0,0,0-2.686-8.661,17.561,17.561,0,0,0-11.583-6.88,19.328,19.328,0,0,0-12.923,2.141,15.685,15.685,0,0,0-6.7,6.821,13.053,13.053,0,0,0-.666,10.39,14.872,14.872,0,0,0,3.248,5.291.622.622,0,0,1,.2.384,17.255,17.255,0,0,1-.286,2.7A18.837,18.837,0,0,1,270.96,426.382Z" transform="translate(-266 -393.878)" fill="#fff"/>
    <path id="Path_6985" data-name="Path 6985" d="M296.321,417.283c-.091.145-.185.289-.274.435-.492.809-.98,1.62-1.476,2.426a.592.592,0,0,1-1.051,0c-.492-.823-.974-1.653-1.461-2.48a.8.8,0,0,0-.278-.3v.4q0,2.5,0,4.994c0,.652-.048.7-.7.7-1.032.006-1.032.006-1.032-1.008q0-3.591,0-7.184c0-.718.07-.747.8-.8a1.287,1.287,0,0,1,1.356.746c.577,1.022,1.236,2,1.885,3.031.1-.151.179-.266.253-.382.623-.984,1.254-1.963,1.864-2.954a.809.809,0,0,1,.79-.43c.1.005.2,0,.308,0,.782,0,.8.018.8.786q0,3.765,0,7.53c0,.61-.046.653-.653.658-1.054.009-1.054.009-1.054-1.05v-5.092Z" transform="translate(-274.985 -401.566)" fill="#fff"/>
    <path id="Path_6986" data-name="Path 6986" d="M281.514,414.055c.586.079,1.168.155,1.749.236a.351.351,0,0,1,.335.455c-.018.113-.023.23-.047.341-.152.7-.229.706-.919.608a10.79,10.79,0,0,0-1.976-.09.835.835,0,0,0-.841.71.894.894,0,0,0,.542,1.036c.487.251,1,.444,1.495.689a7.289,7.289,0,0,1,1.091.635,2.572,2.572,0,0,1,.489,3.728,2.973,2.973,0,0,1-2.05.92,7.561,7.561,0,0,1-3.078-.234c-.6-.187-.638-.259-.538-.878.006-.038.013-.076.022-.113.159-.688.193-.711.853-.5a4.815,4.815,0,0,0,2.83.084.865.865,0,0,0,.71-.713.961.961,0,0,0-.4-1.012,11.369,11.369,0,0,0-1.075-.584,15.966,15.966,0,0,1-1.658-.87,2.3,2.3,0,0,1-.947-2.468,2.168,2.168,0,0,1,1.817-1.754A15.735,15.735,0,0,1,281.514,414.055Z" transform="translate(-270.38 -401.415)" fill="#fff"/>
    <path id="Path_6987" data-name="Path 6987" d="M309.147,414.053c.593.081,1.174.157,1.754.241a.338.338,0,0,1,.316.434c-.014.1-.013.2-.031.305-.127.722-.244.76-.953.658a10.493,10.493,0,0,0-1.938-.087.851.851,0,0,0-.859.693.906.906,0,0,0,.56,1.063c.452.235.937.408,1.392.638a8.2,8.2,0,0,1,1.191.69,2.569,2.569,0,0,1,.485,3.7,2.871,2.871,0,0,1-1.929.913,7.5,7.5,0,0,1-3.227-.219c-.566-.177-.622-.276-.523-.852.006-.038.016-.075.024-.113.163-.717.186-.732.873-.516a4.8,4.8,0,0,0,2.792.084.873.873,0,0,0,.733-.737.947.947,0,0,0-.452-1.025c-.613-.34-1.25-.638-1.885-.937a3.153,3.153,0,0,1-1.422-1.127,2.317,2.317,0,0,1,1.471-3.575A14.971,14.971,0,0,1,309.147,414.053Z" transform="translate(-280.697 -401.414)" fill="#fff"/>
  </g>
</svg>
