<svg id="Group_12982" data-name="Group 12982" xmlns="http://www.w3.org/2000/svg" width="38.952" height="38.973" viewBox="0 0 38.952 38.973">
  <path id="Path_6975" data-name="Path 6975" d="M93.077,236.277v-1.14a3.553,3.553,0,0,0,.038-.8,15.549,15.549,0,0,1,1.657-7.049,19.324,19.324,0,0,1,4.568-6.15,18.672,18.672,0,0,1,9.9-4.806,23.616,23.616,0,0,1,4.583-.127,17.224,17.224,0,0,1,3.194.331,19.713,19.713,0,0,1,5.735,2.365,19.4,19.4,0,0,1,5.9,5.558,18.108,18.108,0,0,1,3.217,7.916,31,31,0,0,1,.135,4.667,15.542,15.542,0,0,1-.937,5.142,19.877,19.877,0,0,1-13.37,12.454,15.223,15.223,0,0,1-3.353.453c-.123.008-.253-.039-.369.037h-2.052a4.15,4.15,0,0,0-.874-.038,17.671,17.671,0,0,1-8.779-2.685,1.061,1.061,0,0,0-.973-.124c-.761.24-1.518.491-2.278.732-1.352.428-2.7.868-4.053,1.294-.085.027-.169.055-.255.074-.363.079-.512-.063-.436-.42a5.179,5.179,0,0,1,.156-.508c.615-1.9,1.284-3.79,1.93-5.684a1.267,1.267,0,0,0-.167-1.239,18.646,18.646,0,0,1-2.884-6.85,17.147,17.147,0,0,1-.2-2.451A4.974,4.974,0,0,0,93.077,236.277Z" transform="translate(-93.077 -216.153)" fill="#50b054"/>
  <path id="Path_6976" data-name="Path 6976" d="M93.143,428.47a.24.24,0,0,1-.066-.005v-.988A3.009,3.009,0,0,1,93.143,428.47Z" transform="translate(-93.077 -407.353)" fill="#bfe2c1"/>
  <path id="Path_6977" data-name="Path 6977" d="M281.359,624.665a.526.526,0,0,0-.008-.064,2.347,2.347,0,0,1,.92.064Z" transform="translate(-263.422 -585.692)" fill="#b0dbb1"/>
  <path id="Path_6978" data-name="Path 6978" d="M93.077,406.586a.083.083,0,0,1,.066-.013,1.96,1.96,0,0,1-.066.849Z" transform="translate(-93.077 -388.439)" fill="#89ca8c"/>
  <path id="Path_6979" data-name="Path 6979" d="M196.042,331.322a8.022,8.022,0,0,1-2.529-.471,20.776,20.776,0,0,1-7.746-4.041,30.341,30.341,0,0,1-5.07-5.73,12.25,12.25,0,0,1-2.037-4.248,6.2,6.2,0,0,1,1.862-6.3,3.336,3.336,0,0,1,3.126-.552.721.721,0,0,1,.489.447c.757,1.6,1.388,3.256,2.067,4.89a1.326,1.326,0,0,1-.386,1.385c-.334.414-.7.8-1.053,1.2-.554.629-.567.791-.13,1.5a15.317,15.317,0,0,0,7.342,6.4,1.3,1.3,0,0,0,1.849-.477c.4-.506.776-1.031,1.162-1.548a1.187,1.187,0,0,1,1.678-.459c1.476.635,2.9,1.385,4.345,2.08a.816.816,0,0,1,.51.844c-.1,2.485-.892,3.826-3.738,4.837A4.314,4.314,0,0,1,196.042,331.322Z" transform="translate(-170.326 -300.916)" fill="#fff"/>
</svg>
